<?xml version="1.0" encoding="UTF-8"?>
<svg id="b" data-name="Layer_2" xmlns="http://www.w3.org/2000/svg" width="1248.314" height="996.635" viewBox="0 0 1248.314 996.635">
  <defs>
    <style>
      .d {
        opacity: .2;
      }

      .e {
        fill: #dcd8d0;
      }

      .f {
        fill: #ce2128;
      }
    </style>
  </defs>
  <g id="c" data-name="Layer_1">
    <g class="d">
      <path class="f" d="M617.372,0c12.383,3.883,24.033,8.808,31.84,20.062,10.996,15.851,12.748,32.331,3.338,49.357-8.917,16.132-27.577,24.878-46.846,22.528-19.568-2.386-33.104-12.506-38.954-31.533-7.743-25.185,7.325-51.352,33.174-58.442,1.823-.5,4.18.335,5.343-1.973h12.105Z"/>
      <path class="e" d="M160.823,996.635c.009-2.034-1.111-2.94-2.992-3.559-9.578-3.151-13.228-9.973-12.739-19.834.514-10.364,5.878-16.793,15.901-18.002,11.259-1.358,20.539,4.91,23.207,15.674,2.27,9.159-2.855,18.994-11.668,22.03-2.115.729-4.788.367-4.791,3.69h-6.917Z"/>
      <path class="f" d="M493.096,110.832c-25.459-.048-46.168-21.075-46.136-46.844.032-25.728,20.804-46.052,46.936-45.924,25.542.125,44.919,20.353,44.834,46.802-.083,26.019-19.934,46.014-45.634,45.966Z"/>
      <path class="e" d="M265.769,284.895c24.995-2.514,46.883,22.374,45.843,44.333-1.223,25.802-20.244,44.696-46.152,45.93-22.263,1.06-46.895-22.473-46.52-45.759.354-21.941,20.741-47.134,46.829-44.504Z"/>
      <path class="f" d="M386.506,81.268c20.403.13,38.153,17.826,38.101,37.984-.053,20.303-17.804,37.914-38.201,37.901-20.49-.013-37.911-17.448-38-38.028-.087-20.314,17.699-37.987,38.101-37.857Z"/>
      <path class="f" d="M727.113,10.361c22.288.078,37.636,15.238,37.542,37.079-.09,20.684-17.168,37.346-38.125,37.198-20.548-.146-38.103-17.632-37.977-37.829.132-21.191,16.356-36.527,38.561-36.449Z"/>
      <path class="e" d="M235.287,407.679c1.903,19.407-14.357,36.652-35.835,36.242-20.718-.396-38.144-13.822-37.202-36.974.946-23.267,14.502-37.554,37.813-37.278,20.404.242,36.935,16.061,35.224,38.009Z"/>
      <path class="e" d="M377.096,260.526c-.034,20.572-15.931,36.625-36.257,36.613-21.663-.013-38.098-15.869-38.208-36.862-.11-20.841,16.614-37.386,37.92-37.39,15.907-.003,38.731,14.674,36.545,37.64Z"/>
      <path class="e" d="M161.327,532.104c-22.214.011-36.939-14.049-36.92-35.253.018-20.806,16.347-37.399,36.847-37.446,20.595-.047,37.354,16.605,37.735,36.86.354,18.842-16.227,38.127-37.661,35.838Z"/>
      <path class="f" d="M251.023,177.117c.046-21.39,14.438-35.641,35.837-35.483,18.38.136,33.289,16.801,33.065,36.959-.218,19.621-15.177,33.197-36.417,33.051-17.623-.121-32.524-15.959-32.485-34.528Z"/>
      <path class="f" d="M230.271,259.846c-.366,21.05-14.961,35.815-35.112,35.519-18.675-.274-34.408-16.557-34.059-35.25.372-19.884,16.43-35.608,36.044-35.296,18.24.29,33.451,16.373,33.127,35.026Z"/>
      <path class="f" d="M846.319,90.104c-19.17.049-33.527-15.404-33.474-36.03.046-18.065,15.938-32.687,35.313-32.493,21.2.213,34.498,13.784,34.74,35.452.207,18.548-15.798,33.018-36.578,33.071Z"/>
      <path class="f" d="M989.469,93.287c-.005,18.906-15.32,34.926-33.279,34.809-22.046-.144-35.296-13.109-35.386-34.625-.091-21.629,13.679-35.392,35.643-35.625,17.176-.182,33.027,16.83,33.023,35.441Z"/>
      <path class="e" d="M392.508,206.374c.054-22.632,13.1-35.418,36.137-35.417,18.6,0,33.112,15.647,33.035,35.618-.074,19.236-15.473,33.483-36.224,33.515-18.028.027-32.992-15.285-32.948-33.715Z"/>
      <path class="f" d="M270.092,532.283c-21.42.088-34.643-13.368-34.632-35.241.009-17.917,15.321-32.581,34.135-32.69,19.688-.114,34.407,14.416,34.491,34.049.088,20.696-13.055,33.797-33.993,33.882Z"/>
      <path class="e" d="M558.668,173.075c2.403,14.988-14.734,32.709-35.039,32.482-18.926-.212-32.569-15.235-32.533-35.992.035-19.905,13.999-33.172,34.886-33.144,19.182.025,32.73,15.217,32.685,36.653Z"/>
      <path class="e" d="M157.445,591.189c-.042,21.729-12.949,34.2-35.373,34.183-19.31-.015-32.641-14.033-32.094-34.722.611-23.123,14.284-32.43,34.094-32.526,21.841-.107,33.638,13.439,33.373,33.066Z"/>
      <path class="e" d="M407.093,917.19c-18.488-.003-33.675-14.936-33.532-32.974.164-20.757,12.609-34.373,31.443-34.4,22.764-.033,36.638,12.914,37.401,34.901.611,17.61-15.554,32.475-35.312,32.472Z"/>
      <path class="f" d="M1084.301,159.499c-.032,18.453-10.597,28.952-28.951,28.769-17.63-.176-28.046-10.885-28.119-28.91-.075-18.304,10.639-28.877,29.022-28.642,17.89.229,28.079,10.685,28.048,28.783Z"/>
      <path class="f" d="M1176.193,233.992c.062,18.554-10.264,28.895-28.795,28.839-16.858-.052-28.788-11.933-28.799-28.681-.011-16.325,13.233-28.751,30.31-28.437,16.075.295,27.229,11.856,27.284,28.279Z"/>
      <path class="f" d="M152.177,346.223c-.182,18.888-10.428,29.124-28.819,28.791-17.252-.312-28.387-11.326-28.253-27.949.134-16.766,13.07-29.305,29.885-28.971,16.263.324,27.344,11.789,27.187,28.128Z"/>
      <path class="e" d="M752.262,156.721c-.023,17.406-10.985,28.16-28.689,28.143-16.873-.016-28.729-11.894-28.377-28.921.409-19.771,13.26-26.952,28.757-27.61,17.667-.75,28.331,10.806,28.308,28.388Z"/>
      <path class="e" d="M138.34,685.81c.016,16.461-11.868,29.633-27.42,29.164-18.336-.553-29.652-8.469-29.812-27.743-.163-19.51,12.42-28.426,27.992-28.944,16.049-.534,29.226,12.363,29.241,27.522Z"/>
      <path class="e" d="M648.501,154.36c-.102,17.004-10.805,27.061-28.735,27.003-16.962-.054-28.396-11.339-28.169-27.801.239-17.315,13.017-29.551,30.389-29.099,15.63.407,26.619,12.796,26.515,29.896Z"/>
      <path class="f" d="M217.889,570.332c.022-17.105,10.273-27.224,27.533-27.177,16.203.044,28.653,11.736,28.741,26.992.093,16.157-12.719,28.52-29.444,28.412-16.45-.106-26.851-11.049-26.829-28.226Z"/>
      <path class="f" d="M243.698,614.845c17.868.151,28.35,10.81,28.087,28.564-.253,17.076-10.706,27.302-27.645,27.045-17.327-.263-27.756-10.51-27.698-27.214.063-17.98,10.199-28.539,27.255-28.395Z"/>
      <path class="f" d="M302.585,458.013c-17.663-.036-27.582-10.524-27.504-29.08.066-15.511,11.608-26.305,28.022-26.206,16.614.101,27.471,10.585,27.483,26.538.013,18.159-10.336,28.784-28.001,28.748Z"/>
      <path class="e" d="M451.955,918.803c16.457.002,27.117,10.272,27.115,26.123-.002,16.405-10.662,27.582-26.238,27.62-20.256.05-28.067-9.62-28.972-27.268-.815-15.881,10.847-26.477,28.095-26.475Z"/>
      <path class="e" d="M397.795,817.787c1.916,17.161-13.459,26.96-25.865,26.887-17.69-.104-27.546-10.589-27.948-28.971-.382-17.471,12.429-25.654,28.696-26.224,15.248-.534,25.113,11.019,25.117,28.308Z"/>
      <path class="f" d="M68.695,433.258c15.727.083,26.75,10.54,26.698,25.328-.054,15.45-11.4,26.675-26.784,26.5-15.635-.178-25.272-10.411-25.108-26.659.163-16.094,9.331-25.253,25.194-25.17Z"/>
      <path class="f" d="M1248.31,319.793c.218,15.816-9.955,27.093-24.672,27.35-14.543.254-26.269-11.103-26.655-25.816-.419-15.961,8.673-25.504,24.477-25.69,17.301-.204,26.63,8.189,26.85,24.156Z"/>
      <path class="f" d="M380.725,318.034c.198-15.584,11.067-26.303,26.19-25.827,15.132.476,25.512,11.775,25.009,27.225-.47,14.455-11.107,24.236-26.104,24.003-15.945-.248-25.294-9.711-25.095-25.401Z"/>
      <path class="f" d="M243.452,744.179c-15.82-.191-25.151-10.23-24.764-26.642.358-15.168,10.041-24.666,25.107-24.626,16.229.043,25.944,10.091,25.873,26.761-.063,14.842-10.605,24.696-26.216,24.507Z"/>
      <path class="f" d="M323.096,368.477c.136-15.861,9.635-25.646,24.857-25.606,15.347.04,26.403,11.265,26.402,26.805-.001,13.942-11.705,24.524-26.797,24.229-16.322-.319-24.603-8.926-24.462-25.427Z"/>
      <path class="e" d="M816.59,190.103c-16.959-.023-26.472-9.011-26.28-24.83.198-16.362,9.444-25.409,25.968-25.411,14.577-.001,25.507,10.516,26.014,24.144.434,11.665-10.752,28.715-25.702,26.097Z"/>
      <path class="e" d="M107.332,759.948c13.962-2.282,24.898,10.444,25.552,24.096.754,15.734-10.68,26.146-27.609,26.045-13.523-.081-24.032-11.348-24.052-25.788-.023-16.572,8.327-24.36,26.109-24.353Z"/>
      <path class="e" d="M914.042,224.546c-16.18-.006-25.09-8.781-25.16-24.778-.07-15.852,9.642-25.391,25.818-25.358,15.635.032,24.407,9.212,24.383,25.518-.024,16.027-8.769,24.625-25.04,24.618Z"/>
      <path class="e" d="M340.075,692.685c-16.01-.142-25.383-9.501-25.286-25.249.091-14.815,10.549-24.861,25.909-24.89,14.885-.028,26.308,11.635,25.895,26.438-.379,13.582-11.847,23.831-26.518,23.701Z"/>
      <path class="e" d="M348.577,720.222c15.824.029,25.042,9.402,24.903,25.322-.124,14.166-11.415,24.722-26.593,24.863-13.059.121-23.573-10.774-23.576-24.431-.004-18.679,6.969-25.787,25.267-25.754Z"/>
      <path class="f" d="M487.957,280.238c.075,13.57-7.294,21.285-20.29,21.242-13.124-.044-21.079-7.807-21.219-20.708-.142-13.106,7.826-21.778,20.15-21.932,13.304-.165,21.284,7.828,21.359,21.398Z"/>
      <path class="f" d="M280.595,788.217c.01,13.674-7.259,21.439-20.217,21.597-13.055.159-20.866-8.035-20.94-21.969-.061-11.307,9.751-21.729,20.318-21.582,11.606.162,20.831,9.88,20.84,21.954Z"/>
      <path class="f" d="M560.589,254.175c-.161,13.533-7.018,20.751-19.703,20.74-13.683-.012-22.045-8.463-21.812-22.045.205-11.968,8.705-20.029,21.06-19.974,12.686.056,20.61,8.299,20.455,21.279Z"/>
      <path class="e" d="M325.062,595.699c.054-12.364,8.28-20.634,20.359-20.466,13.26.184,21.25,7.972,21.234,20.697-.016,13.073-7.83,20.779-20.992,20.702-13.224-.078-20.658-7.631-20.601-20.932Z"/>
      <path class="e" d="M368.044,542.362c-13.213.149-22.067-7.751-22.175-19.787-.116-12.913,7.991-21.534,20.372-21.665,12.279-.13,20.85,7.975,21.125,19.975.286,12.474-7.696,21.346-19.322,21.477Z"/>
      <path class="f" d="M39.77,576.544c.098,12.4-8.194,21.16-19.962,21.089-11.543-.069-19.689-8.915-19.807-21.508-.107-11.405,6.876-18.002,19.282-18.216,13.511-.233,20.387,6.022,20.487,18.636Z"/>
      <path class="e" d="M152.169,880.209c-.1,10.933-8.81,19.592-19.759,19.643-11.081.052-20.176-8.805-19.915-19.392.312-12.639,8.123-20.256,20.742-20.226,11.17.027,19.039,8.329,18.932,19.975Z"/>
      <path class="e" d="M1008.307,248.256c-.022,13.611-5.845,19.595-19.048,19.573-11.343-.019-21.101-7.701-20.496-17.347.702-11.187,5.549-21.578,20.617-20.913,13.046.575,18.947,5.928,18.927,18.687Z"/>
      <path class="e" d="M1066.909,290.186c13.291.209,19.455,6.579,19.15,19.79-.265,11.488-8.81,20.21-19.434,19.836-9.96-.35-20.94-10.833-19.947-20.166,1.383-12.998,7.726-20.432,20.231-19.46Z"/>
      <path class="f" d="M683.353,212.728c11.223-.042,20.428,8.541,20.452,19.071.022,9.923-9.284,19.345-19.308,19.55-11.574.236-20.098-7.806-20.132-18.992-.037-12.499,6.816-19.583,18.988-19.629Z"/>
      <path class="f" d="M625.743,234.386c.06,11.391-7.38,19.036-18.711,19.228-12.054.204-20.323-7.401-20.262-18.637.057-10.693,9.351-20.101,19.737-19.981,10.272.119,19.183,9.101,19.237,19.389Z"/>
      <path class="e" d="M443.57,418.084c-12.216,1.434-18.442-6.989-19.438-17.949-.977-10.757,8.583-20.346,18.981-20.113,11.06.249,20.114,9.437,20.182,20.482.069,11.083-7.223,17.581-19.726,17.579Z"/>
      <path class="f" d="M302.917,856.86c-.039,12.744-6.361,19.743-17.636,19.524-11.402-.222-18.697-7.614-18.879-19.13-.18-11.378,7.402-19.396,18.459-19.522,11.569-.132,18.094,6.781,18.056,19.128Z"/>
      <path class="e" d="M385.639,456.202c.123-10.988,8.032-19.039,18.804-19.141,9.732-.093,19.115,9.916,19.179,20.459.067,10.955-8.01,17.745-20.848,17.529-11.355-.192-17.271-6.699-17.135-18.846Z"/>
      <path class="f" d="M392.26,972.527c-.101,8.898-6.518,15.578-15.03,15.648-8.372.068-14.952-6.847-14.913-15.673.041-9.243,5.528-14.938,14.243-14.781,9.303.167,15.797,6.291,15.7,14.806Z"/>
      <path class="f" d="M749.065,259.092c-9.783.09-14.87-4.476-15.025-13.488-.158-9.175,5.007-14.809,13.819-15.073,9.196-.275,16.544,6.352,16.498,14.878-.045,8.258-6.013,13.598-15.292,13.683Z"/>
      <path class="e" d="M518.418,354.235c-.633,9.269-7.566,15.87-16.153,15.379-8.046-.46-14.951-8.136-14.574-16.203.371-7.943,8.114-13.886,17.04-13.078,7.609.688,14.137,7.319,13.687,13.902Z"/>
      <path class="f" d="M328.652,929.546c-9.036-.11-14.771-5.421-14.5-13.428.309-9.129,6.748-15.683,15.133-15.401,8.691.292,15.078,6.635,14.805,14.702-.272,8.063-7.011,14.229-15.437,14.126Z"/>
      <path class="e" d="M586.06,302.233c8.02-.051,14.017,5.828,14.068,13.789.057,8.825-5.801,15.497-13.678,15.58-8.172.085-15.506-6.862-15.757-14.928-.273-8.763,5.704-14.38,15.366-14.441Z"/>
      <path class="f" d="M819.491,279.886c-9.295-.144-14.834-5.356-14.942-14.059-.103-8.353,5.921-13.959,14.965-13.929,9.151.031,14.306,5.346,14.028,14.463-.27,8.827-5.291,13.661-14.052,13.525Z"/>
    </g>
  </g>
</svg>