<?xml version="1.0" encoding="UTF-8"?>
<svg id="b" data-name="Layer_2" xmlns="http://www.w3.org/2000/svg" width="316.874" height="286.484" viewBox="0 0 316.874 286.484">
  <g id="c" data-name="Layer_1">
    <g>
      <path d="M316.867,13.401c-.002-9.016-4.405-13.399-13.462-13.399C206.793,0,110.184,0,13.574.001,4.318.002.006,4.324.005,13.601-.002,78.775,0,143.949.003,209.123c0,5.892,1.303,7.164,7.335,7.164h129.448s-5.045,32.495-5.045,32.495c-2.979,0-5.931-.006-8.862-.011-7.476-.013-14.537-.024-21.744.028-9.373.069-17.076,6.688-18.315,15.741-.493,3.599-.468,7.295-.444,10.87.008,1.231.016,2.462.004,3.688-.027,2.745.197,4.689,1.4,5.904,1.22,1.232,3.154,1.474,6.083,1.474h146.917s.538.004.538.004c.186.002.37.003.555.003.267,0,.533-.003.799-.015,3.696-.163,5.448-1.925,5.515-5.545l.021-1.144c.08-4.19.162-8.522-.086-12.784-.631-10.854-8.399-18.172-19.329-18.209-6.346-.021-12.693-.016-19.041-.011l-10.904.004-5.026-32.493h119.906c5.739-.001,7.141-1.386,7.142-7.056.005-65.277.008-130.554-.003-195.831ZM98.89,258.756c1.541-.377,3.208-.429,4.637-.43,38.432-.023,76.863-.021,115.292-.018h4.118c8.337,0,11.589,3.208,11.598,11.439v6.872s-142.176,0-142.176,0c-.014-.988-.045-1.973-.076-2.952-.094-2.969-.184-5.773.204-8.527.446-3.17,2.78-5.497,6.405-6.384ZM141.524,248.617l4.964-32.177h33.624l4.982,32.177h-43.569ZM307.026,182.762v23.802H9.833v-23.802h297.193ZM307.21,172.87H9.664l.002-159.258c0-3.893.073-3.967,3.931-3.967,96.503-.004,193.004-.004,289.508,0,4.065,0,4.104.038,4.104,4.108v159.117Z"/>
      <path d="M176.432,130.719c-.779-.7-1.413-2.036-1.442-3.042-.134-4.565-.117-9.22-.101-13.721.006-1.677.012-3.353.011-5.029-.006-8.776-3.746-15.565-10.815-19.634-6.097-3.509-11.476-5.655-16.445-6.558-8.374-1.522-16.998-2.342-25.338-3.135-2.262-.215-4.523-.43-6.782-.658-1.592-.161-2.294-.604-3.002-1.897-2.808-5.126-5.426-9.672-8.003-13.899-4.657-7.637-10.271-16.364-17.973-23.294-5.134-4.619-10.8-6.811-17.418-6.719-11.578.173-23.358.141-34.75.109-4.836-.013-9.683-.025-14.509-.025-.208.014-.481-.005-.724-.011-.833-.02-1.695-.04-2.559.15-1.529.335-2.73,1.117-3.381,2.201-.53.883-.655,1.906-.359,2.96.472,1.682,2.216,2.997,3.682,3.954.808.527,1.826.439,2.724.36.289-.025.577-.052.846-.052h0c4.468.001,8.938.027,13.407.053,10.956.063,22.287.128,33.43-.188,6.586-.18,11.649,2.03,15.957,6.976.35.401.717.792,1.085,1.182.764.81,1.486,1.575,2.032,2.431,6.361,9.968,12.938,20.274,19.311,30.664,1.349,2.199,3.109,4.254,6.819,4.4,4.927.195,10.227.593,16.202,1.216,3.996.417,7.903.943,12.04,1.501,1.506.203,3.021.407,4.549.606-.002,1.158-.007,2.286-.011,3.391-.013,2.953-.024,5.743.024,8.538.158,9.157,6.427,15.365,15.599,15.445,1.309.012,2.617.009,3.901.005h.731s0,9.041,0,9.041c-1.151-.003-2.292-.011-3.426-.019-3.629-.025-7.054-.049-10.548.076-1.644.054-2.299-.371-3.213-2.086-5.45-10.236-14.243-15.683-25.427-15.751-.072,0-.143,0-.215,0-11.257,0-20.099,5.413-25.576,15.665-.926,1.733-1.639,2.162-3.517,2.173-19.657-.072-39.644-.065-58.97-.058l-14.33.004c-.262,0-.525-.007-.788-.014-.804-.022-1.634-.044-2.473.116-1.529.292-2.744,1.042-3.421,2.108-.555.875-.704,1.901-.431,2.969.443,1.73,2.264,3.135,3.595,4.041.801.546,1.832.455,2.738.376.289-.025.577-.052.845-.052h0c19.59.003,39.179.002,58.771.003h14.586l.46,5.849H19.981c-3.125,0-5.107.549-6.238,1.726-.771.803-1.136,1.893-1.082,3.24.161,4.026,3.611,4.581,7.316,4.582h8.609c22.075.003,44.152.005,66.228-.013,1.698-.017,2.415.125,3.264,1.398,5.678,8.509,14.463,13.42,24.103,13.473.054,0,.106,0,.159,0,9.689,0,18.581-4.884,24.412-13.417.461-.675,1.709-1.335,2.568-1.358,3.619-.1,7.31-.096,10.878-.09,2.788.003,5.67.008,8.509-.039,5.527-.089,9.897-3.218,11.688-8.369,1.708-4.912.227-10.09-3.962-13.854ZM171.445,140.384c.043.898-.191,1.649-.676,2.169-.476.511-1.188.792-2.06.812-4.415.102-8.756.083-13.349.064-1.475-.006-2.959-.013-4.457-.015l.329-5.811c1.482-.001,2.947-.004,4.397-.008,4.38-.011,8.518-.02,12.713.033,1.111.014,2.991.39,3.103,2.756ZM165.211,109.221c-.459.01-.92.026-1.381.042-1.672.059-3.403.119-5.019-.116-2.538-.368-4.081-2.107-4.233-4.771-.14-2.438-.107-4.953-.075-7.385.008-.655.017-1.312.023-1.97,6.63,2.134,10.793,7.648,10.686,14.2ZM122.327,119.739h.059c5.122.016,9.929,2.036,13.536,5.689,3.646,3.693,5.627,8.601,5.576,13.819-.103,10.491-8.688,18.964-19.171,18.964-.054,0-.108,0-.162,0-10.515-.087-19.023-8.761-18.968-19.334.055-10.565,8.632-19.138,19.131-19.138Z"/>
      <path d="M293.094,58.63l-1.391-.028c-2.798-.057-5.691-.116-8.543.066-2.041.132-2.882-.394-3.663-2.235-1.354-3.19-2.88-6.357-4.355-9.42-.815-1.694-1.632-3.388-2.423-5.092-.768-1.652-2.189-4.73-5.294-3.916-2.017.529-3.884,2.44-4.686,4.055-3.518,7.083-6.953,14.348-10.275,21.374-1.222,2.585-2.444,5.171-3.674,7.753-.175.368-.36.731-.565,1.124-1.202-2.536-2.394-5.055-3.579-7.561-4.935-10.431-9.596-20.284-14.468-30.254-.79-1.617-2.999-3.947-4.934-3.947h-.014c-1.975.012-4.092,2.38-4.901,3.977-3.824,7.544-7.405,15.253-10.745,22.502-.604,1.311-1.172,1.674-2.53,1.626-2.917-.108-5.877-.078-8.74-.049l-2.082.019c-3.584.027-5.491,1.602-5.666,4.68-.076,1.34.305,2.502,1.103,3.359.996,1.071,2.557,1.63,4.64,1.663,1.685.025,3.393.006,5.046-.012,2.579-.029,5.246-.058,7.845.086,3.969.219,6.456-1.345,8.07-5.074,1.892-4.374,3.944-8.618,6.116-13.111.617-1.275,1.239-2.562,1.863-3.864.282.576.534,1.09.779,1.608,1.384,2.919,2.765,5.84,4.145,8.761,4.284,9.065,8.713,18.438,13.193,27.6.832,1.703,2.783,3.337,4.538,3.801.369.097.713.142,1.036.142,2.437,0,3.622-2.537,4.295-3.978,2.332-4.992,4.699-9.967,7.065-14.943l.82-1.724c1.656-3.485,3.32-6.966,5.061-10.609l1.526-3.195,1.044,2.202c1.456,3.068,2.807,5.912,4.125,8.771,1.089,2.359,2.93,3.555,5.472,3.555h.022c2.048-.006,4.095-.003,6.145,0,2.881.003,5.761.007,8.642-.011,4.458-.03,5.548-2.563,5.678-4.685.08-1.32-.296-2.471-1.088-3.328-.985-1.066-2.595-1.65-4.653-1.688Z"/>
      <path d="M84.578,87.456c2.842,0,5.705-.009,8.541-.042,2.485-.029,4.333-.888,5.205-2.418.861-1.513.665-3.505-.553-5.609l-.77-1.333c-2.43-4.207-4.942-8.558-7.748-12.629-3.601-5.225-7.603-10.2-10.688-13.95-2.482-3.019-5.751-4.447-9.721-4.25-3.885.194-7.863.153-11.708.114-1.925-.02-3.849-.039-5.775-.032-4.54.019-6.074,1.566-6.083,6.134-.018,9.226-.016,18.452,0,27.678.007,4.641,1.656,6.292,6.301,6.311,4.886.02,9.773.015,14.661.011l5.951-.004c2.106,0,4.18.005,6.27.01,2.016.005,4.061.01,6.116.01ZM85.587,77.557h-30.613v-20.68h2.337c4.345-.003,8.7-.006,13.009.03.008.002.2.056.631.481,5.493,5.421,9.497,11.879,13.736,18.717.299.482.599.966.9,1.451Z"/>
      <path d="M293.729,127.615c-.475-.03-.954-.027-1.431-.021l-.48.003h-10.569c-25.947-.001-51.89-.002-77.833.012-.231-.008-.421-.006-.64-.013-1.084-.031-2.315-.068-3.227.579-.509.361-3.044,2.264-2.926,4.221.121,2.014,2.338,3.827,3.015,4.334.643.483,1.468.582,2.284.582.293,0,.584-.013.866-.025.255-.011.498-.015.742-.022,11.721.013,23.442.012,35.162.011h52.625s.67.004.67.004c.603.006,1.227.013,1.857-.027,3.166-.202,4.935-1.87,4.979-4.697.047-2.974-1.762-4.729-5.094-4.941Z"/>
      <path d="M294.576,111.995c-.685-.079-1.361-.07-2.009-.063l-.566.005c-29.567-.003-59.134-.003-88.7,0l-.488-.002c-.675-.005-1.372-.01-2.078.065-1.486.156-2.717.797-3.467,1.805-.639.857-.876,1.94-.668,3.047.312,1.661,1.852,3.011,3.402,4.251.462.37,1.031.466,1.608.466.325,0,.652-.03.964-.06.262-.024.523-.05.762-.05h0c12.321.003,24.641.003,36.959.003h51.741c.22-.001.441.005.663.011.633.017,1.287.036,1.958-.074,2.672-.436,4.19-2.165,4.166-4.744-.025-2.654-1.573-4.353-4.247-4.659Z"/>
      <path d="M295.366,143.811c-.719-.586-1.709-.498-2.582-.418-.261.024-.52.049-.757.049h0c-29.569-.004-59.136-.005-88.702-.001-.238,0-.498-.025-.759-.049-.869-.079-1.854-.169-2.576.41-1.749,1.402-3.319,2.793-3.33,4.4-.009,1.294,1.055,2.695,3.349,4.406.789.588,1.85.5,2.782.423.284-.023.565-.048.827-.048h.002c11.535.005,23.07.004,34.605.004h17.145c12.112,0,24.223.001,36.336-.004h.003c.261,0,.543.025.827.048.328.027.671.056,1.013.056.633,0,1.259-.098,1.77-.48,2.256-1.691,3.305-3.087,3.302-4.39-.003-1.616-1.608-3.062-3.253-4.405Z"/>
      <path d="M203.209,105.659h13.161c25.078,0,50.158,0,75.236-.004.263,0,.545.025.829.048.328.027.672.056,1.015.056.621,0,1.238-.094,1.752-.459,2.314-1.645,3.403-3.009,3.425-4.293.027-1.624-1.54-3.113-3.149-4.5-.712-.614-1.728-.533-2.624-.461-.252.02-.5.041-.729.041h0c-11.759-.005-23.514-.004-35.278-.005h-21.053c-10.893,0-21.785-.001-32.677.002-5.392.001-6.611,2.543-6.685,4.674-.045,1.31.325,2.383,1.102,3.19,1.093,1.137,2.95,1.696,5.677,1.71Z"/>
      <path d="M26.238,77.752c-2.762-.011-5.372-.022-8.003.028-3.461.066-5.598,1.923-5.577,4.847.021,2.913,2.18,4.748,5.631,4.79,2.748.034,5.273.051,7.658.051,2.502,0,4.848-.019,7.13-.056,3.791-.062,5.563-1.907,5.578-5.807.037-9.835.037-19.456,0-28.598-.016-3.898-1.747-5.654-5.613-5.693-5.048-.051-10.115-.03-14.469-.007-5.348.029-5.916,3.333-5.912,4.752.004,1.417.589,4.714,5.922,4.746,2.603.016,5.207.012,7.85.008l2.504-.002v20.948c-.914-.001-1.812-.005-2.699-.009Z"/>
      <path d="M69.172,94.057c-.502.006-1.003.012-1.505.012l-.554.015c-.356-.015-.716-.04-1.076-.065-1.399-.098-2.846-.199-4.187.271-1.726.604-3.479,2.405-3.908,4.017-.312,1.172-.103,2.354.59,3.327.747,1.049,1.955,1.707,3.313,1.807,1.803.132,3.664.198,5.569.198,1.837,0,3.715-.061,5.623-.184,2.556-.164,4.239-2.186,4.094-4.917-.141-2.657-1.822-4.321-4.497-4.451-1.163-.057-2.332-.043-3.463-.029Z"/>
      <path d="M112.441,149.224c2.681,2.621,6.167,4.055,9.841,4.055.084,0,.169,0,.254-.002,7.73-.139,14.052-6.514,14.09-14.21.019-3.802-1.45-7.381-4.137-10.078-2.704-2.713-6.281-4.243-10.149-4.2-3.85.005-7.44,1.487-10.11,4.173-2.668,2.685-4.128,6.282-4.11,10.129.018,3.828,1.553,7.426,4.321,10.133ZM117.684,138.984c.002-1.217.493-2.369,1.382-3.245.892-.877,2.059-1.358,3.293-1.358h.062c1.253.017,2.427.531,3.306,1.449.864.903,1.319,2.071,1.282,3.29-.038,1.231-.547,2.366-1.433,3.195-.913.854-2.129,1.298-3.425,1.251-2.468-.09-4.472-2.145-4.467-4.581Z"/>
    </g>
  </g>
</svg>