<?xml version="1.0" encoding="UTF-8"?>
<svg id="a" data-name="Layer_1" xmlns="http://www.w3.org/2000/svg" width="17in" height="17in" xmlns:xlink="http://www.w3.org/1999/xlink" viewBox="0 0 1224 1224">
  <defs>
    <style>
      .at {
        stroke: url(#c);
      }

      .at, .au, .av, .aw, .ax, .ay, .az, .ba, .bb, .bc, .bd, .be, .bf, .bg, .bh, .bi, .bj, .bk, .bl, .bm, .bn, .bo, .bp {
        opacity: .2;
      }

      .at, .au, .av, .aw, .ax, .ay, .az, .ba, .bb, .bc, .bd, .be, .bf, .bg, .bh, .bi, .bj, .bk, .bl, .bm, .bn, .bo, .bq, .br, .bs, .bt, .bu, .bv, .bw, .bx, .by, .bz, .ca, .cb, .cc, .cd, .ce, .cf, .cg, .ch, .ci, .cj, .ck, .cl {
        fill: none;
        stroke-miterlimit: 10;
        stroke-width: .5px;
      }

      .au {
        stroke: url(#h);
      }

      .av {
        stroke: url(#f);
      }

      .aw {
        stroke: url(#e);
      }

      .ax {
        stroke: url(#i);
      }

      .ay {
        stroke: url(#d);
      }

      .az {
        stroke: url(#g);
      }

      .ba {
        stroke: url(#q);
      }

      .bb {
        stroke: url(#n);
      }

      .bc {
        stroke: url(#j);
      }

      .bd {
        stroke: url(#p);
      }

      .be {
        stroke: url(#r);
      }

      .bf {
        stroke: url(#l);
      }

      .bg {
        stroke: url(#o);
      }

      .bh {
        stroke: url(#k);
      }

      .bi {
        stroke: url(#b);
      }

      .bj {
        stroke: url(#s);
      }

      .bk {
        stroke: url(#m);
      }

      .bl {
        stroke: url(#v);
      }

      .bm {
        stroke: url(#w);
      }

      .bn {
        stroke: url(#u);
      }

      .bo {
        stroke: url(#t);
      }

      .bq {
        stroke: url(#ap);
      }

      .br {
        stroke: url(#ar);
      }

      .bs {
        stroke: url(#an);
      }

      .bt {
        stroke: url(#ad);
      }

      .bu {
        stroke: url(#aj);
      }

      .bv {
        stroke: url(#ai);
      }

      .bw {
        stroke: url(#ab);
      }

      .bx {
        stroke: url(#ao);
      }

      .by {
        stroke: url(#ak);
      }

      .bz {
        stroke: url(#ac);
      }

      .ca {
        stroke: url(#al);
      }

      .cb {
        stroke: url(#am);
      }

      .cc {
        stroke: url(#aq);
      }

      .cd {
        stroke: url(#aa);
      }

      .ce {
        stroke: url(#ae);
      }

      .cf {
        stroke: url(#af);
      }

      .cg {
        stroke: url(#ag);
      }

      .ch {
        stroke: url(#as);
      }

      .ci {
        stroke: url(#ah);
      }

      .cj {
        stroke: url(#z);
      }

      .ck {
        stroke: url(#x);
      }

      .cl {
        stroke: url(#y);
      }
    </style>
    <linearGradient id="b" x1="-340.568" y1="892.12" x2="340.568" y2="341.675" gradientUnits="userSpaceOnUse">
      <stop offset=".059" stop-color="#000"/>
      <stop offset=".858" stop-color="#000"/>
      <stop offset=".995" stop-color="#000"/>
    </linearGradient>
    <linearGradient id="c" x1="883.432" x2="1564.568" xlink:href="#b"/>
    <linearGradient id="d" x1="825.147" x2="1506.282" xlink:href="#b"/>
    <linearGradient id="e" x1="766.861" y1="892.12" x2="1447.996" y2="341.675" xlink:href="#b"/>
    <linearGradient id="f" x1="708.575" x2="1389.711" xlink:href="#b"/>
    <linearGradient id="g" x1="650.289" y1="892.12" x2="1331.425" y2="341.675" xlink:href="#b"/>
    <linearGradient id="h" x1="592.004" y1="892.12" x2="1273.139" y2="341.675" xlink:href="#b"/>
    <linearGradient id="i" x1="533.718" x2="1214.853" xlink:href="#b"/>
    <linearGradient id="j" x1="475.432" x2="1156.568" y2="341.675" xlink:href="#b"/>
    <linearGradient id="k" x1="417.147" y1="892.12" x2="1098.282" y2="341.675" xlink:href="#b"/>
    <linearGradient id="l" x1="358.861" y1="892.12" x2="1039.996" y2="341.675" xlink:href="#b"/>
    <linearGradient id="m" x1="300.575" y1="892.12" x2="981.711" y2="341.675" xlink:href="#b"/>
    <linearGradient id="n" x1="242.289" x2="923.425" xlink:href="#b"/>
    <linearGradient id="o" x1="184.004" y1="892.12" x2="865.139" y2="341.675" xlink:href="#b"/>
    <linearGradient id="p" x1="125.718" x2="806.853" xlink:href="#b"/>
    <linearGradient id="q" x1="67.432" x2="748.568" y2="341.675" xlink:href="#b"/>
    <linearGradient id="r" x1="9.147" x2="690.282" y2="341.675" xlink:href="#b"/>
    <linearGradient id="s" x1="-49.139" x2="631.996" y2="341.675" xlink:href="#b"/>
    <linearGradient id="t" x1="-107.425" y1="892.12" x2="573.711" y2="341.675" xlink:href="#b"/>
    <linearGradient id="u" x1="-165.711" y1="892.12" x2="515.425" y2="341.675" xlink:href="#b"/>
    <linearGradient id="v" x1="-223.996" y1="892.12" x2="457.139" y2="341.675" xlink:href="#b"/>
    <linearGradient id="w" x1="-282.282" y1="892.12" x2="398.853" y2="341.675" xlink:href="#b"/>
    <linearGradient id="x" x1="256.011" y1="1501.758" x2="937.146" y2="951.313" gradientTransform="translate(1872.455 -596.579) rotate(90)" xlink:href="#b"/>
    <linearGradient id="y" x1="1480.011" y1="1501.758" x2="2161.146" y2="951.313" gradientTransform="translate(1872.455 -596.579) rotate(90)" xlink:href="#b"/>
    <linearGradient id="z" x1="1421.725" y1="1501.758" x2="2102.861" y2="951.313" gradientTransform="translate(1872.455 -596.579) rotate(90)" xlink:href="#b"/>
    <linearGradient id="aa" x1="1363.439" y1="1501.758" x2="2044.575" y2="951.313" gradientTransform="translate(1872.455 -596.579) rotate(90)" xlink:href="#b"/>
    <linearGradient id="ab" x1="1305.154" y1="1501.758" x2="1986.289" y2="951.313" gradientTransform="translate(1872.455 -596.579) rotate(90)" xlink:href="#b"/>
    <linearGradient id="ac" x1="1246.868" y1="1501.758" x2="1928.004" y2="951.313" gradientTransform="translate(1872.455 -596.579) rotate(90)" xlink:href="#b"/>
    <linearGradient id="ad" x1="1188.582" y1="1501.758" x2="1869.718" y2="951.313" gradientTransform="translate(1872.455 -596.579) rotate(90)" xlink:href="#b"/>
    <linearGradient id="ae" x1="1130.297" y1="1501.758" x2="1811.432" y2="951.313" gradientTransform="translate(1872.455 -596.579) rotate(90)" xlink:href="#b"/>
    <linearGradient id="af" x1="1072.011" y1="1501.758" x2="1753.146" y2="951.313" gradientTransform="translate(1872.455 -596.579) rotate(90)" xlink:href="#b"/>
    <linearGradient id="ag" x1="1013.725" y1="1501.758" x2="1694.861" y2="951.313" gradientTransform="translate(1872.455 -596.579) rotate(90)" xlink:href="#b"/>
    <linearGradient id="ah" x1="955.439" y1="1501.758" x2="1636.575" y2="951.313" gradientTransform="translate(1872.455 -596.579) rotate(90)" xlink:href="#b"/>
    <linearGradient id="ai" x1="897.154" y1="1501.758" x2="1578.289" y2="951.313" gradientTransform="translate(1872.455 -596.579) rotate(90)" xlink:href="#b"/>
    <linearGradient id="aj" x1="838.868" y1="1501.758" x2="1520.004" y2="951.313" gradientTransform="translate(1872.455 -596.579) rotate(90)" xlink:href="#b"/>
    <linearGradient id="ak" x1="780.582" y1="1501.758" x2="1461.718" y2="951.313" gradientTransform="translate(1872.455 -596.579) rotate(90)" xlink:href="#b"/>
    <linearGradient id="al" x1="722.297" y1="1501.758" x2="1403.432" y2="951.313" gradientTransform="translate(1872.455 -596.579) rotate(90)" xlink:href="#b"/>
    <linearGradient id="am" x1="664.011" y1="1501.758" x2="1345.146" y2="951.313" gradientTransform="translate(1872.455 -596.579) rotate(90)" xlink:href="#b"/>
    <linearGradient id="an" x1="605.725" y1="1501.758" x2="1286.861" y2="951.313" gradientTransform="translate(1872.455 -596.579) rotate(90)" xlink:href="#b"/>
    <linearGradient id="ao" x1="547.439" y1="1501.758" x2="1228.575" y2="951.313" gradientTransform="translate(1872.455 -596.579) rotate(90)" xlink:href="#b"/>
    <linearGradient id="ap" x1="489.154" y1="1501.758" x2="1170.289" y2="951.313" gradientTransform="translate(1872.455 -596.579) rotate(90)" xlink:href="#b"/>
    <linearGradient id="aq" x1="430.868" y1="1501.758" x2="1112.004" y2="951.313" gradientTransform="translate(1872.455 -596.579) rotate(90)" xlink:href="#b"/>
    <linearGradient id="ar" x1="372.582" y1="1501.758" x2="1053.718" y2="951.313" gradientTransform="translate(1872.455 -596.579) rotate(90)" xlink:href="#b"/>
    <linearGradient id="as" x1="314.297" y1="1501.758" x2="995.432" y2="951.313" gradientTransform="translate(1872.455 -596.579) rotate(90)" xlink:href="#b"/>
  </defs>
  <line class="bi" y1="-79.444" y2="1313.238"/>
  <line class="at" x1="1224" y1="-79.444" x2="1224" y2="1313.238"/>
  <line class="ay" x1="1165.714" y1="-79.444" x2="1165.714" y2="1313.238"/>
  <line class="aw" x1="1107.429" y1="-79.444" x2="1107.429" y2="1313.238"/>
  <line class="av" x1="1049.143" y1="-79.444" x2="1049.143" y2="1313.238"/>
  <line class="az" x1="990.857" y1="-79.444" x2="990.857" y2="1313.238"/>
  <line class="au" x1="932.571" y1="-79.444" x2="932.571" y2="1313.238"/>
  <line class="ax" x1="874.286" y1="-79.444" x2="874.286" y2="1313.238"/>
  <line class="bc" x1="816" y1="-79.444" x2="816" y2="1313.238"/>
  <line class="bh" x1="757.714" y1="-79.444" x2="757.714" y2="1313.238"/>
  <line class="bf" x1="699.429" y1="-79.444" x2="699.429" y2="1313.238"/>
  <line class="bk" x1="641.143" y1="-79.444" x2="641.143" y2="1313.238"/>
  <line class="bb" x1="582.857" y1="-79.444" x2="582.857" y2="1313.238"/>
  <line class="bg" x1="524.571" y1="-79.444" x2="524.571" y2="1313.238"/>
  <line class="bd" x1="466.286" y1="-79.444" x2="466.286" y2="1313.238"/>
  <line class="ba" x1="408" y1="-79.444" x2="408" y2="1313.238"/>
  <line class="be" x1="349.714" y1="-79.444" x2="349.714" y2="1313.238"/>
  <line class="bj" x1="291.429" y1="-79.444" x2="291.429" y2="1313.238"/>
  <line class="bo" x1="233.143" y1="-79.444" x2="233.143" y2="1313.238"/>
  <line class="bn" x1="174.857" y1="-79.444" x2="174.857" y2="1313.238"/>
  <line class="bl" x1="116.571" y1="-79.444" x2="116.571" y2="1313.238"/>
  <line class="bm" x1="58.286" y1="-79.444" x2="58.286" y2="1313.238"/>
  <g class="bp">
    <line class="ck" x1="1342.26" x2="-50.422"/>
    <line class="cl" x1="1342.26" y1="1224" x2="-50.422" y2="1224"/>
    <line class="cj" x1="1342.26" y1="1165.714" x2="-50.422" y2="1165.714"/>
    <line class="cd" x1="1342.26" y1="1107.429" x2="-50.422" y2="1107.429"/>
    <line class="bw" x1="1342.26" y1="1049.143" x2="-50.422" y2="1049.143"/>
    <line class="bz" x1="1342.26" y1="990.857" x2="-50.422" y2="990.857"/>
    <line class="bt" x1="1342.26" y1="932.571" x2="-50.422" y2="932.571"/>
    <line class="ce" x1="1342.26" y1="874.286" x2="-50.422" y2="874.286"/>
    <line class="cf" x1="1342.26" y1="816" x2="-50.422" y2="816"/>
    <line class="cg" x1="1342.26" y1="757.714" x2="-50.422" y2="757.714"/>
    <line class="ci" x1="1342.26" y1="699.429" x2="-50.422" y2="699.429"/>
    <line class="bv" x1="1342.26" y1="641.143" x2="-50.422" y2="641.143"/>
    <line class="bu" x1="1342.26" y1="582.857" x2="-50.422" y2="582.857"/>
    <line class="by" x1="1342.26" y1="524.571" x2="-50.422" y2="524.571"/>
    <line class="ca" x1="1342.26" y1="466.286" x2="-50.422" y2="466.286"/>
    <line class="cb" x1="1342.26" y1="408" x2="-50.422" y2="408"/>
    <line class="bs" x1="1342.26" y1="349.714" x2="-50.422" y2="349.714"/>
    <line class="bx" x1="1342.26" y1="291.429" x2="-50.422" y2="291.429"/>
    <line class="bq" x1="1342.26" y1="233.143" x2="-50.422" y2="233.143"/>
    <line class="cc" x1="1342.26" y1="174.857" x2="-50.422" y2="174.857"/>
    <line class="br" x1="1342.26" y1="116.571" x2="-50.422" y2="116.571"/>
    <line class="ch" x1="1342.26" y1="58.286" x2="-50.422" y2="58.286"/>
  </g>
</svg>