<?xml version="1.0" encoding="UTF-8"?>
<svg id="b" data-name="Layer_2" xmlns="http://www.w3.org/2000/svg" width="63.623" height="59.301" viewBox="0 0 63.623 59.301">
  <defs>
    <style>
      .d {
        fill: #ad1e29;
      }
    </style>
  </defs>
  <g id="c" data-name="Layer_1">
    <g>
      <path class="d" d="M25.922,43.225v15.755c-4.261,0-8.364.255-12.414-.096-2.436-.211-4.504-3.022-4.565-5.542-.126-5.211-.113-10.427-.031-15.638.013-.793.526-1.75,1.105-2.337,6.57-6.656,13.217-13.235,19.796-19.882,1.396-1.41,2.533-1.504,3.97-.053,6.58,6.646,13.237,13.216,19.789,19.889.665.678,1.132,1.851,1.155,2.807.114,4.797.097,9.6.032,14.399-.05,3.685-2.384,6.408-6.009,6.652-3.527.238-7.083.052-10.897.052v-16.006h-11.931Z"/>
      <path class="d" d="M45.733,9.134c0-1.156-.097-2.321.021-3.465.21-2.04,1.542-3.178,3.481-3.206,1.938-.027,3.41,1.059,3.521,3.113.175,3.221.001,6.463.209,9.68.071,1.106.594,2.394,1.338,3.208,2.457,2.688,5.133,5.174,7.679,7.782,1.993,2.042,2.159,4.079.564,5.68-1.594,1.601-3.678,1.477-5.699-.53-7.466-7.414-14.885-14.875-22.328-22.311-2.458-2.456-2.936-2.45-5.435.047-7.15,7.144-14.289,14.299-21.445,21.437-.699.697-1.42,1.423-2.258,1.92-1.543.915-3.091.633-4.304-.629-1.212-1.26-1.45-2.792-.459-4.322.444-.686,1.039-1.286,1.621-1.87,7.314-7.331,14.631-14.66,21.963-21.973,4.929-4.917,10.32-4.938,15.218-.012,1.907,1.918,3.677,3.972,5.51,5.964.268-.172.536-.343.804-.515Z"/>
    </g>
  </g>
</svg>