<?xml version="1.0" encoding="UTF-8"?>
<svg id="Layer_2" xmlns="http://www.w3.org/2000/svg" viewBox="0 0 255.6 191.74">
  <defs>
    <style>
      .cls-1 {
        fill: #fff;
      }
    </style>
  </defs>
  <g id="Layer_1-2" data-name="Layer_1">
    <g>
      <path class="cls-1" d="M127.92.03c37.02,0,74.03-.01,111.05,0,9.67,0,16.82,7.1,16.63,16.4-.17,8.19-6.81,15.06-14.99,15.52-.66.04-1.33.03-2,.03-73.87,0-147.74,0-221.6,0-8.53,0-14.9-4.85-16.61-12.58C-1.75,9.71,5.45.36,15.37.07c4.32-.13,8.65-.03,12.98-.03,33.19,0,66.38,0,99.57,0Z"/>
      <path class="cls-1" d="M127.81,111.87c-37.1,0-74.2.01-111.3-.01-9.61,0-16.75-7.21-16.51-16.52.21-8.07,6.79-14.89,14.86-15.39.66-.04,1.33-.04,2-.04,73.95,0,147.9,0,221.85,0,8.27,0,14.66,4.77,16.42,12.2,2.38,10.04-4.95,19.59-15.27,19.73-8.98.12-17.97.03-26.95.03-28.37,0-56.73,0-85.1,0Z"/>
      <path class="cls-1" d="M127.88,159.77c37.02,0,74.03,0,111.05,0,9.68,0,16.84,7.08,16.66,16.37-.16,8.19-6.78,15.08-14.96,15.56-.5.03-1,.03-1.5.03-74.2,0-148.4,0-222.6,0-8.22,0-14.53-5.04-16.19-12.79-2.02-9.46,5.06-18.69,14.74-19.13,2.57-.12,5.16-.04,7.74-.04,35.02,0,70.04,0,105.06,0Z"/>
    </g>
  </g>
</svg>