<?xml version="1.0" encoding="UTF-8"?>
<svg id="Layer_2" data-name="Layer 2" xmlns="http://www.w3.org/2000/svg" viewBox="0 0 108.18 21.84">
  <g id="Layer_1-2" data-name="Layer 1">
    <g>
      <polygon points="108.07 13.43 105.24 13.38 98.77 5.43 98.77 13.43 96.4 13.43 96.4 2.43 99.18 2.43 105.79 10.52 105.79 2.43 108.07 2.43 108.07 13.43"/>
      <path d="M11.86,0l1.12.56,9.5,9.44c.11.2.04.32-.18.36-.5.09-2.46.06-3.01,0-.16-.02-.21,0-.36-.09-.39-.22-1.14-1.23-1.5-1.6-1.48-1.51-3.07-3.15-4.65-4.55-1.24-1.09-1.62-1.21-2.92-.09-2.23,1.93-4.19,4.2-6.29,6.27-.2.09-2.87.09-3.24.05-.29-.03-.43-.14-.23-.42C2.99,7.21,5.66,4.02,8.62,1.36c.63-.56,1.23-1.11,2.05-1.36h1.19Z"/>
      <path d="M22.52,11.46c.02.14-.01.21-.09.32-.12.18-.71.78-.91,1-1.89,2.05-4.14,4.28-6.15,6.23-.6.58-1.35,1.35-1.96,1.86-2.62,2.2-4.29.02-6.16-1.77-2.07-1.98-4.41-4.31-6.34-6.41-.18-.2-.71-.74-.82-.91-.07-.11-.11-.18-.09-.32h3.6c.74.74,1.41,1.57,2.14,2.32,1.14,1.17,2.44,2.46,3.65,3.55.46.41,1.24,1.21,1.87,1.21s1.49-.87,1.96-1.3c2-1.82,3.85-3.81,5.7-5.78h3.6Z"/>
      <path d="M34.91,2.43c3.99.4,4.7,6.02.68,6.96l3.19,4.05h-3.01c0-.08-.04-.16-.09-.22-.72-.83-1.55-2.22-2.28-2.91-.18-.17-.73-.5-.96-.5h-1.69c-.4-3.22,2.79-1.38,4.35-2.25,1.02-.57,1.05-2.22.06-2.82-.11-.07-.62-.29-.71-.29h-4.88v9h-2.37V2.43h7.7Z"/>
      <path d="M91.2,13.43h-2.55l-4.01-8.46c-.21-.05-.15.03-.2.12-.76,1.18-1.21,2.85-1.98,4.07h2.23c.05,0,.54.15.63.19.7.32.87,1.2,1.24,1.81h-4.33c-.94,0-1.5,1.56-1.78,2.27h-2.55l5.3-10.86c.07-.14.17-.14.3-.15.45-.05,1.66-.05,2.11,0,.1.01.2,0,.27.09l5.33,10.91Z"/>
      <polygon points="54.56 2.43 58.57 10.88 62.49 2.43 65.04 2.43 59.71 13.44 57.16 13.34 52.01 2.43 54.56 2.43"/>
      <path d="M11.77,4.96l.23-.14c1.46,1.44,3.15,2.88,4.52,4.41.96,1.08,1.48,1.57.41,2.87-.82,1-1.91,1.91-2.83,2.82-.55.54-1.29,1.44-1.86,1.87-.29.22-.42.2-.46-.18-.06-.5-.06-2.53.05-2.96.03-.11.15-.32.23-.41.51-.58,1.43-1.17,1.92-1.82s.12-.89-.32-1.41c-.35-.41-1.87-1.55-1.87-1.95v-3.09Z"/>
      <path d="M10.67,4.82v3.5c-.43.52-2.35,1.92-2.36,2.54,0,.18.11.36.22.51.5.7,1.56,1.37,2.1,2.09.21.42.19,2.49.14,3.05-.03.39-.1.55-.46.27-.47-.36-1.3-1.23-1.78-1.68-.62-.59-3.24-3.17-3.44-3.75-.29-.87.27-1.39.79-1.98,1.09-1.23,2.78-2.92,4.01-4,.21-.18.51-.46.78-.54Z"/>
      <rect x="44.44" y="2.43" width="2.37" height="11"/>
      <rect x="70.33" y="2.43" width="2.37" height="11"/>
      <path d="M54.85,16.61v5.18h-.64s0-.45,0-.45c-1.8,1.3-3.04-.18-2.71-2.12.22-1.28,1.82-1.69,2.71-.79v-1.82h.64ZM52.91,18.54c-1.14.26-1.16,2.92.43,2.7,1.36-.19,1.2-3.07-.43-2.7Z"/>
      <path d="M58.62,17.55c-.68.63-.75,1.99-.34,2.78.62,1.22,2.34,1.24,2.68-.17l.64.18c-.39,1.95-3.13,1.95-3.96.26-1.11-2.27.86-5.2,3.2-3.74.55.34,1.27,1.35.12,1.25-.35-.99-1.55-1.29-2.34-.57Z"/>
      <path d="M90.31,20.16l.64.18c-.31,1.65-2.61,1.95-3.64.77-.94-1.07-.85-3.27.32-4.14s2.92-.5,3.32.95l-.58.22c-.44-.69-.8-1.14-1.71-.95-1.6.33-1.7,3.14-.38,3.85.82.44,1.83.04,2.03-.89Z"/>
      <path d="M31.15,18.15c-.19-1.09-1.51-1.3-2.29-.59-1.29,1.18-.41,4.3,1.55,3.55.57-.22.53-.49.86-.93l.6.16c-.42,1.79-2.89,1.98-3.85.52-1.14-1.75-.15-4.64,2.23-4.31.68.09,1.5.73,1.58,1.43l-.69.17Z"/>
      <path d="M35.7,19.98h-2.64c-.16.96.89,1.66,1.69,1.09.41-.29.18-.63.96-.36-.22,1.1-1.71,1.42-2.55.86-1.21-.81-.97-3.36.59-3.58,1.42-.2,2.02.67,1.95,1.99ZM33.06,19.52h1.87l.12-.21c-.27-1.22-1.91-.97-1.99.21Z"/>
      <path d="M105.35,19.98h-2.64c-.14,1.26,1.53,1.84,2.02.65l.62.08c-.4,1.59-2.84,1.46-3.22-.11-.75-3.12,3.4-3.73,3.22-.62ZM104.71,19.52c-.03-1.41-1.88-1.29-2.01,0h2.01Z"/>
      <path d="M94.96,19.98h-2.6c-.21.13.01.61.12.79.44.74,1.56.62,1.9-.16l.48.11c-.02,1.14-1.72,1.39-2.5.81-1.21-.9-.88-3.39.72-3.55,1.36-.13,1.92.74,1.87,2ZM92.32,19.52h1.87c.29-.25-.16-.82-.43-.93-.7-.29-1.4.2-1.44.93Z"/>
      <path d="M50.84,19.98h-2.73c-.05,1.3,1.68,1.88,2.1.55l.54.19c-.17,1.2-1.86,1.43-2.67.71-1.08-.96-.66-3.31.89-3.45,1.38-.12,1.86.75,1.87,2ZM50.11,19.52c.08-1.4-1.89-1.31-1.91,0h1.91Z"/>
      <path d="M63.39,18c.95-.19,1.97.24,2.17,1.25.31,1.53-.42,2.78-2.09,2.54-1.76-.25-1.77-3.45-.08-3.79ZM63.57,18.54c-1.04.24-1.05,2.52.08,2.7,1.82.29,1.74-3.12-.08-2.7Z"/>
      <path d="M78.25,18c.95-.19,1.97.24,2.17,1.25.3,1.48-.37,2.74-2.01,2.55-1.87-.22-1.83-3.46-.16-3.8ZM78.43,18.54c-1.03.23-1.03,2.53.08,2.7,1.82.28,1.75-3.12-.08-2.7Z"/>
      <path d="M81.29,17.98h.64s0,.45,0,.45c.45-.58,1.58-.66,2.05-.09.11.13.32.72.32.86v2.59h-.73v-2.77c0-.22-.54-.5-.77-.5-.27,0-.88.44-.88.68v2.59h-.64v-3.82Z"/>
      <path d="M95.69,17.98h.64s0,.45,0,.45c.55-.53,1.5-.71,2.05-.09.06.07.32.46.32.5v2.96h-.64v-2.59c0-.3-.46-.67-.78-.67-.34,0-.96.43-.96.76v2.5h-.64v-3.82Z"/>
      <path d="M72.08,20.62c.12.8,1.97.92,1.9.06-.07-.8-2.43-.24-2.26-1.73.15-1.25,2.45-1.32,2.81-.2-.47.66-.55,0-.92-.15-.43-.17-1.17-.14-1.25.43.02.74,2.38.27,2.27,1.71s-2.47,1.38-3.09.36c-.12-.2.46-.54.53-.48Z"/>
      <path d="M43.82,18.61h-.64s0-.64,0-.64h.64c-.18-1.04.46-1.54,1.46-1.45v.64c-.7-.1-.88.14-.82.82h.82s0,.64,0,.64h-.82s0,3.18,0,3.18h-.64v-3.18Z"/>
      <path d="M99.88,18.61h-.55s0-.64,0-.64h.55s0-1.09,0-1.09h.59s.05,1.09.05,1.09h.91s0,.64,0,.64h-.91s0,2.23,0,2.23c0,.3.66.55.91.32v.64c-.49.09-1.55-.02-1.55-.68v-2.5Z"/>
      <path d="M39.44,18.61h-.55s0-.64,0-.64h.55s0-1.09,0-1.09h.59s.05,1.09.05,1.09h.91s0,.64,0,.64h-.91s0,2.32,0,2.32c0,.18.71.46.91.23v.64c-.4.11-1.55-.06-1.55-.59v-2.59Z"/>
      <path d="M36.43,17.98h.64s0,.55,0,.55c.39-.36.69-.63,1.28-.55v.64c-.55-.09-1.28.38-1.28.96v2.23h-.64v-3.82Z"/>
      <rect x="68.34" y="16.61" width=".64" height="5.18"/>
      <rect x="66.52" y="16.61" width=".64" height="5.18"/>
      <path d="M106.26,17.98h.64s.05.55.05.55c.24-.44.75-.59,1.23-.55v.64c-.41-.16-1.28.37-1.28.77v2.41h-.64v-3.82Z"/>
      <rect x="70.07" y="17.98" width=".73" height="3.82"/>
      <rect x="75.45" y="17.98" width=".64" height="3.82"/>
      <rect x="45.91" y="17.98" width=".64" height="3.82"/>
      <rect x="41.9" y="17.98" width=".64" height="3.82"/>
      <rect x="75.45" y="16.61" width=".73" height=".73"/>
      <rect x="70.07" y="16.61" width=".73" height=".73"/>
      <rect x="45.91" y="16.61" width=".73" height=".73"/>
      <rect x="41.81" y="16.61" width=".73" height=".73"/>
    </g>
  </g>
</svg>