<?xml version="1.0" encoding="UTF-8"?>
<svg id="b" data-name="Layer_2" xmlns="http://www.w3.org/2000/svg" width="343.767" height="289.976" viewBox="0 0 343.767 289.976">
  <g id="c" data-name="Layer_1">
    <g>
      <path d="M307.013,150.871H121.628v9.877c.955.08,1.913.226,2.871.23,4.821.024,9.656.246,14.459-.045,6.753-.409,12.662,1.728,16.955,6.604,5.893,6.693,11.23,13.905,16.441,21.157,2.927,4.073,5.22,8.619,7.6,13.057,1.105,2.061,2.39,3.039,4.841,3.327,11.457,1.349,22.88,2.984,34.318,4.497,12.039,1.592,21.007,11.416,21.309,23.546.145,5.826-.084,11.663.128,17.485.052,1.44.832,3.161,1.843,4.203,3.626,3.735,4.997,8.627,3.118,13.263-1.95,4.812-5.608,7.533-10.823,7.703-5.376.176-10.778.313-16.137-.025-3.578-.226-5.738.967-7.149,4.848h3.989c24.553,0,49.106-.002,73.659.008,1.229,0,2.788-.341,3.616.266,1.461,1.07,3.102,2.585,3.527,4.212.596,2.278-.962,4.109-3.359,4.614-1.513.319-3.12.26-4.684.26-76.124.011-152.249.009-228.373.009-15.246,0-30.493,0-45.739,0-.897,0-1.795.027-2.69-.017-3.378-.164-5.474-1.96-5.486-4.67-.012-2.723,2.089-4.61,5.459-4.655,5.605-.075,11.211-.02,16.817-.034.652-.002,1.304-.09,2.087-.148-1.042-3.388-2.866-5.002-6.531-4.677-3.782.336-7.619.145-11.428.049-5.553-.14-9.652-2.972-11.476-7.766-1.804-4.742-.456-9.605,3.422-13.481.881-.88,1.515-2.429,1.535-3.682.135-8.294,0-16.592.093-24.887.084-7.458,3.445-12.96,10.498-15.683,8.386-3.238,14.281-9.046,18.432-16.831,2.318-4.347,4.552-8.739,6.896-13.072,6.933-12.812,17.817-19.137,32.276-19.317,11.322-.141,22.646-.079,33.969-.107,1.214-.003,2.427,0,3.965,0,.068-1.446.171-2.631.171-3.816.011-17.153.001-34.307.011-51.46.003-5.327,1.406-6.733,6.804-6.734,63.569-.009,127.137-.009,190.706,0,5.525,0,6.861,1.389,6.861,7.024.003,58.97.004,117.941-.01,176.911,0,1.222.014,2.501-.322,3.653-.681,2.338-2.414,3.473-4.841,3.265-2.443-.209-3.865-1.659-4.173-4.078-.141-1.105-.067-2.239-.067-3.359-.002-42.49-.002-84.98-.002-127.47,0-1.227,0-2.453,0-4.054ZM19.03,219.562c8.312,1.875,12.482,5.699,12.139,12.08-.135,2.515-1.199,5.264-2.633,7.365-3.076,4.506-8.16,4.418-13.053,4.314v8.48c2.915,0,5.614.233,8.241-.102,1.254-.16,2.855-1.12,3.473-2.193,5.5-9.553,13.697-14.839,24.658-14.83,10.957.01,19.161,5.277,24.633,14.861.611,1.069,2.295,2.164,3.486,2.17,27.346.122,54.692.113,82.038.019,1.047-.004,2.545-.837,3.068-1.731,12.073-20.615,37.739-20.65,49.727-.034.438.753,1.344,1.722,2.06,1.746,4.661.157,9.331.081,13.917.081v-8.516c-1.709,0-3.159.024-4.608-.004-8.516-.167-14.549-6.176-14.703-14.665-.047-2.577-.151-5.165.03-7.73.164-2.322-.729-3.002-2.988-3.27-9.784-1.158-19.566-2.397-29.289-3.971-1.892-.306-4.069-1.868-5.164-3.492-2.809-4.164-4.788-8.892-7.636-13.024-5.195-7.536-10.603-14.943-16.276-22.124-2.732-3.458-6.687-4.903-11.349-4.679-6.15.294-12.325.063-18.489.074-15.578.03-31.156-.026-46.733.137-10.502.11-18.471,4.726-23.468,14.127-1.366,2.569-2.806,5.103-4.066,7.723-5.845,12.155-13.559,22.436-27.015,27.188ZM121.606,140.913h185.15v-4.167H121.606v4.167ZM121.585,112.694h185.285v-4.113H121.585v4.113ZM306.853,122.744H121.719v4.168h185.134v-4.168ZM73.404,280.345h95.007c-1.18-3.547-3.314-4.613-6.888-4.592-27.118.163-54.238.158-81.356.006-3.571-.02-5.622,1.164-6.762,4.586ZM51.413,280.591c10.051.283,18.59-7.911,18.764-18.005.171-9.889-7.934-18.3-17.901-18.576-10.039-.278-18.52,7.884-18.752,18.044-.225,9.879,7.858,18.255,17.889,18.537ZM171.749,261.868c-.187,10.259,7.741,18.535,17.937,18.725,9.973.186,18.371-7.893,18.527-17.824.161-10.221-7.847-18.584-17.966-18.761-9.984-.175-18.316,7.869-18.499,17.86ZM79.415,266.207h83.026c-.085-1.783-.157-3.288-.23-4.803h-82.518c-.094,1.624-.177,3.051-.279,4.803ZM217.697,266.424c5.56,0,11.02.118,16.465-.113.94-.04,2.24-1.432,2.558-2.453.182-.585-1.254-2.404-2.008-2.433-5.635-.212-11.281-.115-17.015-.115v5.114ZM230.91,233.84c-.245-7.126-4.203-12.488-10.03-13.759,0,.925-.002,1.809,0,2.692.006,2.004-.069,4.013.041,6.011.17,3.09,1.967,4.85,5.095,5.04,1.539.094,3.088.016,4.893.016ZM23.935,261.244c-4.114,0-8.022-.158-11.9.117-.903.064-2.401,1.632-2.362,2.448.042.905,1.484,2.428,2.399,2.492,3.986.276,8.001.119,12.316.119-.164-1.875-.296-3.388-.452-5.176ZM15.384,234.335c2.299-.595,4.239-1.03,6.106-1.678.202-.07.152-1.94-.076-2.01-1.878-.573-3.826-.919-6.03-1.393v5.08Z"/>
      <path d="M334.367,81.711H94.086v4.124c0,21.522.003,43.044-.007,64.566,0,1.23.346,2.772-.25,3.621-1.044,1.487-2.515,3.18-4.132,3.637-2.258.638-4.085-.9-4.699-3.268-.303-1.171-.305-2.441-.305-3.666-.014-47.864-.014-95.728-.008-143.592,0-5.911,1.22-7.129,7.104-7.13,81.607-.004,163.213-.004,244.82,0,5.939,0,7.153,1.188,7.153,7.069.006,91.917.005,183.834,0,275.751,0,1.007.018,2.029-.14,3.017-.411,2.572-1.99,4.021-4.585,4.009-2.586-.012-4.212-1.429-4.536-4.037-.179-1.438-.129-2.908-.129-4.363-.005-65.014-.005-130.029-.005-195.043,0-1.441,0-2.882,0-4.694ZM334.159,9.545c-1.219-.068-1.997-.15-2.775-.15-78.003-.006-156.007.009-234.01-.065-2.753-.003-3.352.9-3.339,3.461.094,18.491.119,36.984-.018,55.474-.023,3.057.771,3.943,3.896,3.939,77.555-.087,155.11-.067,232.665-.076,1.179,0,2.358-.122,3.58-.189V9.545Z"/>
      <path d="M76.381,213.004c-8.955,0-17.914.143-26.862-.112-1.959-.056-4.779-1.044-5.563-2.491-.797-1.471.012-4.227.849-6.093,2.466-5.499,5.357-10.805,7.965-16.242,4.253-8.865,11.356-13.326,21.061-13.513,10.183-.196,20.371-.169,30.556-.134,3.858.013,5.517,1.73,5.54,5.569.055,9.066.05,18.134.004,27.2-.021,4.159-1.735,5.792-6.014,5.806-9.179.031-18.358.009-27.537.01ZM100.386,184.124c-9.751,0-19.259-.226-28.743.156-2.431.098-5.661,1.493-7.001,3.375-3.406,4.787-5.951,10.187-9.046,15.708h44.789v-19.239Z"/>
      <path d="M141.838,213.002c-6.613.002-13.226.028-19.839-.007-4.288-.022-5.951-1.636-5.968-5.837-.036-8.966-.033-17.933-.001-26.899.015-4.241,1.59-5.812,5.929-5.858,5.716-.061,11.437.124,17.147-.07,3.432-.117,6.096,1.125,8.389,3.465,8.169,8.336,13.957,18.334,19.544,28.43,1.873,3.385-.553,6.685-4.69,6.745-6.836.099-13.674.027-20.511.029ZM155.169,203.442c-4.624-6.346-8.639-11.971-12.813-17.475-.73-.963-2.099-1.959-3.221-2.017-4.435-.231-8.888-.095-13.441-.095v19.587h29.474Z"/>
      <path d="M86.843,228.474c-1.563,0-3.135.103-4.688-.023-2.723-.221-4.33-1.781-4.44-4.513-.105-2.612,1.433-4.442,3.891-4.658,3.652-.321,7.377-.32,11.026.027,2.475.235,3.954,2.172,3.803,4.737-.148,2.512-1.654,4.144-4.235,4.384-1.771.164-3.57.031-5.356.031,0,.005,0,.01,0,.015Z"/>
      <path d="M137.212,228.474c-1.562,0-3.133.108-4.684-.024-2.711-.23-4.314-1.756-4.416-4.515-.097-2.63,1.426-4.44,3.877-4.655,3.648-.321,7.369-.308,11.016.029,2.501.231,3.943,2.211,3.797,4.739-.143,2.486-1.646,4.15-4.239,4.381-1.771.158-3.567.03-5.352.03,0,.005,0,.01,0,.016Z"/>
      <path d="M65.597,262.426c-.036,7.463-6.232,13.659-13.693,13.696-7.571.037-13.92-6.33-13.861-13.901.06-7.612,6.377-13.731,14.067-13.626,7.503.103,13.524,6.277,13.487,13.831ZM56.156,262.759c.039-2.73-1.803-4.652-4.171-4.729-2.472-.081-4.666,1.974-4.478,4.4.201,2.6,1.788,4.207,4.354,4.197,2.568-.01,4.038-1.633,4.295-3.868Z"/>
      <path d="M203.671,262.333c-.002,7.547-6.038,13.689-13.554,13.792-7.56.103-13.943-6.221-13.936-13.807.008-7.643,6.257-13.79,13.954-13.725,7.546.064,13.537,6.146,13.535,13.741ZM189.848,266.719c2.431-.284,4.218-1.412,4.347-4.12.125-2.631-1.264-4.235-3.885-4.544-2.456-.29-4.703,1.719-4.652,4.174.054,2.623,1.581,4.044,4.191,4.49Z"/>
      <path d="M198.645,22.57c15.021-.005,30.041-.037,45.062.032,2.144.01,3.674-.528,5.267-2.118,12.346-12.332,33.114-9.668,41.92,5.264,2.913,4.939,1.012,8.329-4.716,8.379-3.026.027-6.056-.071-9.079.035-3.727.131-5.921,2.29-5.829,5.533.088,3.086,2.278,5.036,5.854,5.101,3.026.055,6.053-.021,9.079.021,5.659.078,7.571,3.567,4.678,8.487-8.78,14.932-29.489,17.583-41.929,5.245-1.614-1.601-3.166-2.11-5.298-2.107-29.593.045-59.186.045-88.779.021-9.285-.007-15.749-4.43-17.995-12.172-3.14-10.819,4.702-21.582,16.031-21.684,15.244-.137,30.489-.034,45.734-.038ZM276.016,24.409c-7.221-4.182-16.07-2.712-21.391,3.851-2.319,2.86-4.82,3.786-8.355,3.774-30.149-.101-60.298-.059-90.447-.054-1.232,0-2.478-.06-3.694.097-3.742.484-6.471,3.642-6.493,7.391-.022,3.773,2.624,6.906,6.411,7.418,1.546.209,3.129.193,4.696.194,29.589.01,59.178.062,88.766-.057,3.984-.016,6.841.91,9.515,4.192,5.193,6.372,15.556,7.656,20.939,3.185-8.485-1.431-13.655-6.482-14.087-13.764-.489-8.25,3.739-13.189,14.14-16.228Z"/>
    </g>
  </g>
</svg>