<?xml version="1.0" encoding="UTF-8"?>
<svg id="Layer_2" data-name="Layer 2" xmlns="http://www.w3.org/2000/svg" viewBox="0 0 36.31 36.28">
  <defs>
    <style>
      .cls-1 {
        fill: #fdc114;
      }
    </style>
  </defs>
  <g id="Layer_1-2" data-name="Layer 1">
    <path class="cls-1" d="M36.31,13.8v.64c-.54.64-1.12,1.27-1.7,1.88-2.23,2.31-4.54,4.53-6.73,6.89l1.9,11.62c.05.82-.17,1.14-.92,1.45h-.43l-10.3-5.66-10.33,5.66h-.43c-.7-.37-.9-.64-.85-1.45l1.9-11.62L.26,14.79c-.55-.67-.17-1.64.65-1.82,3.73-.6,7.5-1.08,11.21-1.76L17.15.56c.47-.75,1.54-.75,2.01,0l5.02,10.65.26.09,10.95,1.67c.47.08.73.43.91.83Z"/>
  </g>
</svg>