<?xml version="1.0" encoding="UTF-8"?>
<svg id="b" data-name="Layer 2" xmlns="http://www.w3.org/2000/svg" width="243.103" height="242.622" viewBox="0 0 243.103 242.622">
  <defs>
    <style>
      .d {
        fill: #fff;
      }

      .e {
        fill: #fbb03b;
      }
    </style>
  </defs>
  <g id="c" data-name="Layer 1">
    <path class="e" d="M124.41.921l15.722,29.522c1.177,1.854,3.171,2.997,5.284,1.95,7.541-3.505,15.766-10.689,23.191-13.806,3.023-1.269,5.184-.736,6.308,2.572,2.471,7.276,1.748,18.951,3.756,26.744.895,3.472,2.915,3.565,6.069,3.309,9.657-.782,20.784-4.786,30.588-5.955,2.743-.147,4.996,2.334,4.525,5.029l-13.058,29.98c-.751,2.673-.182,4.527,2.249,5.762,7.098,3.608,18.94,5.558,25.362,9.638,5.103,3.241.072,7.632-2.6,10.614-4.767,5.32-10.279,10.111-14.984,15.515-1.657,2.629-.738,4.266,1.217,6.238,6.738,6.801,17.28,13.065,23.532,19.969,2.414,2.665,1.96,5.697-1.247,7.296-9.559,3.633-21.887,4.642-31.176,8.324-2.109.836-3.464,2.421-2.998,4.769,1.701,8.179,7.003,17.768,8.283,25.754.588,3.674-.904,5.604-4.636,5.67-8.01.142-17.814-2.346-26.022-2.562-2.454-.065-4.519,1.763-4.736,4.259l-1.017,31.983c-1.297,3.797-3.639,4.635-7.131,2.688-8.444-4.71-17.005-13.875-25.55-18.947-1.259-.753-2.879-.646-4.168-.085-2.572,1.12-12.475,19.224-15.636,22.86-3.224,3.708-5.158,3.328-8.195-.28-5.178-6.153-9.086-15.316-14.292-21.708-1.381-1.494-3.889-1.792-5.584-.581-8.407,5.119-16.875,14.069-25.257,18.741-3.471,1.934-5.821,1.136-7.131-2.688l-1.017-31.983c-.217-2.496-2.282-4.323-4.736-4.259-8.208.216-18.012,2.704-26.022,2.562-4.093-.072-5.246-2.285-4.526-6.068,1.541-8.109,6.306-17.13,8.181-25.357.163-2.442-.817-3.887-3.005-4.77-9.113-3.678-22.353-4.449-31.185-8.315-3.071-1.344-3.734-4.995-1.24-7.303,7.125-6.668,16.171-12.676,23.028-19.473,2.294-2.274,3.665-3.876,1.495-7.006-4.84-6.49-14.595-13.239-18.727-19.771-1.643-2.598-.839-4.814,1.7-6.255,6.979-3.96,17.718-5.749,25.032-9.468,2.43-1.236,3-3.089,2.249-5.762l-13.058-29.98c-.47-2.731,1.817-5.181,4.525-5.029,9.825,1.131,20.921,5.17,30.588,5.955,3.189.259,5.177.143,6.069-3.309,2.131-8.25,1.761-18.773,3.741-27.259,1.754-2.564,3.009-3.388,5.997-2.233,7.292,2.818,15.57,10.458,22.858,13.634,2.747,1.197,4.133.947,5.941-1.604L118.522,1.138c1.856-1.514,3.911-1.446,5.888-.216Z"/>
    <g>
      <path class="d" d="M98.024,114.081h-28.787v-5.711l13.586-14.48c1.865-2.038,3.245-3.817,4.139-5.336s1.341-2.961,1.341-4.327c0-1.865-.471-3.332-1.413-4.399s-2.288-1.601-4.038-1.601c-1.885,0-3.37.649-4.456,1.947s-1.63,3.005-1.63,5.12h-8.365c0-2.558.611-4.894,1.832-7.009s2.947-3.774,5.178-4.976,4.759-1.803,7.586-1.803c4.327,0,7.687,1.038,10.081,3.115s3.591,5.009,3.591,8.798c0,2.077-.538,4.192-1.615,6.346s-2.923,4.663-5.538,7.528l-9.548,10.067h18.057v6.721Z"/>
      <path class="d" d="M131.397,96.716c0,5.807-1.202,10.249-3.606,13.326s-5.923,4.615-10.557,4.615c-4.577,0-8.076-1.51-10.499-4.529s-3.663-7.346-3.721-12.98v-7.73c0-5.865,1.216-10.317,3.649-13.355s5.937-4.557,10.514-4.557,8.076,1.505,10.499,4.514,3.663,7.331,3.721,12.966v7.73ZM123.061,88.217c0-3.483-.476-6.02-1.428-7.608s-2.437-2.382-4.456-2.382c-1.961,0-3.408.756-4.341,2.267s-1.428,3.874-1.485,7.089v10.221c0,3.425.466,5.972,1.399,7.637s2.428,2.497,4.485,2.497c2.038,0,3.509-.798,4.413-2.397.904-1.597,1.375-4.042,1.413-7.334v-9.99Z"/>
      <path class="d" d="M136.907,80.159c0-2.577.836-4.668,2.509-6.274s3.865-2.409,6.577-2.409c2.75,0,4.961.793,6.634,2.38s2.509,3.735,2.509,6.447v2.077c0,2.596-.836,4.682-2.509,6.259s-3.865,2.365-6.577,2.365c-2.731,0-4.937-.793-6.62-2.38s-2.524-3.726-2.524-6.418v-2.048ZM142.445,82.416c0,1.16.332,2.094.995,2.799s1.534,1.059,2.61,1.059,1.933-.358,2.567-1.073c.635-.716.952-1.673.952-2.872v-2.147c0-1.16-.317-2.098-.952-2.815-.635-.715-1.51-1.073-2.625-1.073-1.058,0-1.913.353-2.567,1.059s-.981,1.687-.981,2.945v2.119ZM147.694,110.936l-4.067-2.192,20.509-32.825,4.067,2.192-20.509,32.825ZM156.982,103.783c0-2.596.846-4.687,2.538-6.274s3.884-2.38,6.577-2.38c2.731,0,4.937.784,6.62,2.351s2.524,3.726,2.524,6.476v2.077c0,2.577-.827,4.658-2.481,6.245s-3.856,2.38-6.605,2.38c-2.769,0-4.99-.798-6.663-2.394s-2.509-3.711-2.509-6.346v-2.135ZM162.521,106.069c0,1.064.346,1.972,1.038,2.727.692.754,1.558,1.131,2.596,1.131,2.346,0,3.519-1.305,3.519-3.917v-2.205c0-1.16-.327-2.094-.981-2.799s-1.519-1.059-2.596-1.059-1.942.353-2.596,1.059-.981,1.668-.981,2.887v2.177Z"/>
      <path class="d" d="M103.629,150.521c0,4.134-.731,7.759-2.192,10.874s-3.553,5.519-6.274,7.211-5.841,2.538-9.36,2.538c-3.481,0-6.586-.836-9.317-2.509s-4.846-4.062-6.346-7.168-2.259-6.678-2.279-10.716v-2.077c0-4.134.745-7.774,2.235-10.918s3.596-5.557,6.317-7.24,5.831-2.524,9.331-2.524,6.61.841,9.331,2.524,4.827,4.096,6.317,7.24,2.235,6.774,2.235,10.889v1.875ZM94.861,148.617c0-4.404-.788-7.75-2.365-10.038s-3.827-3.433-6.75-3.433c-2.904,0-5.144,1.13-6.721,3.389s-2.375,5.572-2.394,9.937v2.048c0,4.288.788,7.615,2.365,9.98s3.846,3.548,6.807,3.548c2.904,0,5.134-1.139,6.692-3.418s2.346-5.601,2.365-9.966v-2.048Z"/>
      <path class="d" d="M135.185,153.406h-16.614v17.163h-8.653v-41.998h27.345v7.009h-18.691v10.846h16.614v6.98Z"/>
      <path class="d" d="M167.549,153.406h-16.614v17.163h-8.653v-41.998h27.345v7.009h-18.691v10.846h16.614v6.98Z"/>
    </g>
  </g>
</svg>