<?xml version="1.0" encoding="UTF-8"?>
<svg id="b" data-name="Layer 2" xmlns="http://www.w3.org/2000/svg" width="243.103" height="242.622" viewBox="0 0 243.103 242.622">
  <defs>
    <style>
      .d {
        fill: #fff;
      }

      .e {
        fill: #fbb03b;
      }
    </style>
  </defs>
  <g id="c" data-name="Layer 1">
    <path class="e" d="M124.41.921l15.722,29.522c1.177,1.854,3.171,2.997,5.284,1.95,7.541-3.505,15.766-10.689,23.191-13.806,3.023-1.269,5.184-.736,6.308,2.572,2.471,7.276,1.748,18.951,3.756,26.744.895,3.472,2.915,3.565,6.069,3.309,9.657-.782,20.784-4.786,30.588-5.955,2.743-.147,4.996,2.334,4.525,5.029l-13.058,29.98c-.751,2.673-.182,4.527,2.249,5.762,7.098,3.608,18.94,5.558,25.362,9.638,5.103,3.241.072,7.632-2.6,10.614-4.767,5.32-10.279,10.111-14.984,15.515-1.657,2.629-.738,4.266,1.217,6.238,6.738,6.801,17.28,13.065,23.532,19.969,2.414,2.665,1.96,5.697-1.247,7.296-9.559,3.633-21.887,4.642-31.176,8.324-2.109.836-3.464,2.421-2.998,4.769,1.701,8.179,7.003,17.768,8.283,25.754.588,3.674-.904,5.604-4.636,5.67-8.01.142-17.814-2.346-26.022-2.562-2.454-.065-4.519,1.763-4.736,4.259l-1.017,31.983c-1.297,3.797-3.639,4.635-7.131,2.688-8.444-4.71-17.005-13.875-25.55-18.947-1.259-.753-2.879-.646-4.168-.085-2.572,1.12-12.475,19.224-15.636,22.86-3.224,3.708-5.158,3.328-8.195-.28-5.178-6.153-9.086-15.316-14.292-21.708-1.381-1.494-3.889-1.792-5.584-.581-8.407,5.119-16.875,14.069-25.257,18.741-3.471,1.934-5.821,1.136-7.131-2.688l-1.017-31.983c-.217-2.496-2.282-4.323-4.736-4.259-8.208.216-18.012,2.704-26.022,2.562-4.093-.072-5.246-2.285-4.526-6.068,1.541-8.109,6.306-17.13,8.181-25.357.163-2.442-.817-3.887-3.005-4.77-9.113-3.678-22.353-4.449-31.185-8.315-3.071-1.344-3.734-4.995-1.24-7.303,7.125-6.668,16.171-12.676,23.028-19.473,2.294-2.274,3.665-3.876,1.495-7.006-4.84-6.49-14.595-13.239-18.727-19.771-1.643-2.598-.839-4.814,1.7-6.255,6.979-3.96,17.718-5.749,25.032-9.468,2.43-1.236,3-3.089,2.249-5.762l-13.058-29.98c-.47-2.731,1.817-5.181,4.525-5.029,9.825,1.131,20.921,5.17,30.588,5.955,3.189.259,5.177.143,6.069-3.309,2.131-8.25,1.761-18.773,3.741-27.259,1.754-2.564,3.009-3.388,5.997-2.233,7.292,2.818,15.57,10.458,22.858,13.634,2.747,1.197,4.133.947,5.941-1.604L118.522,1.138c1.856-1.514,3.911-1.446,5.888-.216Z"/>
    <g>
      <path class="d" d="M105.629,160.521c0,4.134-.731,7.759-2.192,10.874s-3.553,5.519-6.274,7.211-5.841,2.538-9.36,2.538c-3.481,0-6.586-.836-9.317-2.509s-4.846-4.062-6.346-7.168-2.259-6.678-2.279-10.716v-2.077c0-4.134.745-7.774,2.235-10.918s3.596-5.557,6.317-7.24,5.831-2.524,9.331-2.524,6.61.841,9.331,2.524,4.827,4.096,6.317,7.24,2.235,6.774,2.235,10.889v1.875ZM96.861,158.617c0-4.404-.788-7.75-2.365-10.038s-3.827-3.433-6.75-3.433c-2.904,0-5.144,1.13-6.721,3.389s-2.375,5.572-2.394,9.937v2.048c0,4.288.788,7.615,2.365,9.98s3.846,3.548,6.807,3.548c2.904,0,5.134-1.139,6.692-3.418s2.346-5.601,2.365-9.966v-2.048Z"/>
      <path class="d" d="M137.185,163.406h-16.614v17.163h-8.653v-41.998h27.345v7.009h-18.691v10.846h16.614v6.98Z"/>
      <path class="d" d="M169.549,163.406h-16.614v17.163h-8.653v-41.998h27.345v7.009h-18.691v10.846h16.614v6.98Z"/>
    </g>
    <g>
      <path class="d" d="M59.837,101.501l3.08-27.135h29.922v8.837h-21.231l-1.32,11.477c2.518-1.345,5.195-2.017,8.031-2.017,5.085,0,9.069,1.577,11.954,4.73s4.327,7.566,4.327,13.238c0,3.447-.727,6.533-2.182,9.259s-3.539,4.84-6.252,6.344-5.916,2.255-9.607,2.255c-3.227,0-6.222-.654-8.984-1.962s-4.944-3.147-6.545-5.519-2.451-5.073-2.549-8.104h10.487c.22,2.225.996,3.954,2.328,5.189s3.074,1.852,5.225,1.852c2.396,0,4.241-.862,5.537-2.585s1.943-4.162,1.943-7.315c0-3.031-.746-5.354-2.237-6.967s-3.606-2.42-6.344-2.42c-2.518,0-4.559.66-6.124,1.98l-1.027.953-8.434-2.09Z"/>
      <path class="d" d="M137.283,105.681c0,7.383-1.528,13.03-4.584,16.941s-7.529,5.867-13.421,5.867c-5.818,0-10.267-1.919-13.348-5.757s-4.657-9.338-4.73-16.501v-9.827c0-7.456,1.546-13.115,4.639-16.978s7.548-5.794,13.366-5.794,10.267,1.913,13.348,5.739,4.657,9.32,4.73,16.483v9.827ZM126.685,94.876c0-4.428-.605-7.653-1.815-9.671s-3.099-3.028-5.665-3.028c-2.494,0-4.333.961-5.519,2.882s-1.815,4.924-1.888,9.011v12.993c0,4.354.593,7.592,1.778,9.708s3.086,3.175,5.702,3.175c2.591,0,4.461-1.015,5.61-3.047,1.149-2.031,1.748-5.138,1.797-9.323v-12.7Z"/>
      <path class="d" d="M144.286,84.633c0-3.276,1.063-5.934,3.19-7.976s4.914-3.062,8.361-3.062c3.496,0,6.307,1.008,8.434,3.025s3.19,4.749,3.19,8.196v2.64c0,3.3-1.063,5.953-3.19,7.957s-4.914,3.007-8.361,3.007c-3.471,0-6.277-1.008-8.416-3.025s-3.209-4.736-3.209-8.159v-2.604ZM151.327,87.502c0,1.474.422,2.662,1.265,3.558s1.95,1.346,3.319,1.346,2.457-.455,3.264-1.364c.807-.911,1.21-2.127,1.21-3.652v-2.729c0-1.474-.403-2.668-1.21-3.578-.807-.909-1.919-1.364-3.337-1.364-1.345,0-2.432.449-3.264,1.346s-1.247,2.145-1.247,3.743v2.694ZM158.001,123.759l-5.17-2.787,26.072-41.729,5.17,2.787-26.072,41.729ZM169.808,114.665c0-3.3,1.076-5.959,3.227-7.976s4.938-3.025,8.361-3.025c3.471,0,6.277.996,8.416,2.989s3.209,4.736,3.209,8.232v2.64c0,3.276-1.051,5.922-3.154,7.939s-4.901,3.025-8.397,3.025c-3.52,0-6.344-1.015-8.471-3.044s-3.19-4.718-3.19-8.067v-2.714ZM176.849,117.571c0,1.352.44,2.507,1.32,3.467.88.958,1.98,1.438,3.3,1.438,2.982,0,4.474-1.659,4.474-4.979v-2.804c0-1.474-.416-2.662-1.247-3.558s-1.931-1.346-3.3-1.346-2.469.449-3.3,1.346-1.247,2.121-1.247,3.67v2.767Z"/>
    </g>
  </g>
</svg>