<?xml version="1.0" encoding="UTF-8"?>
<svg id="b" data-name="Layer 2" xmlns="http://www.w3.org/2000/svg" width="222.605" height="222.567" viewBox="0 0 222.605 222.567">
  <defs>
    <style>
      .d {
        fill: #bf3630;
      }
    </style>
  </defs>
  <g id="c" data-name="Layer 1">
    <g>
      <path class="d" d="M27.959,56.7v9.055c3.777,2.626,7.954,4.638,11.761,7.27,10.349,7.156,17.305,15.164,23.973,25.753,7.909,12.56,15.928,26.868,22.947,39.979,1.358,2.537,3.058,5.294,3.948,8.024,2.148,6.592,1.507,13.63-1.545,19.806.206.151,4.342-.238,5.062-.307,23.524-2.251,47.424-5.913,70.911-7.669,7.087-.53,13.053-.47,18.85,4.168,6.807,5.446,8.343,13.551,7.713,21.909,7.625.205,7.178,11.249,6.7,16.702-.565,6.438-6.768,20.101-13.953,21.04l-121.54.038c-13.542-1.002-16.843-11.994-21.683-22.519-4.813-10.466-9.224-21.174-13.596-31.834-7.114-17.347-15.147-36.022-21.266-53.631-2.569-7.394-3.591-14.792-3.16-22.65.231-4.208,1.625-7.416.332-11.664-.364-1.195-1.272-2.447-1.473-3.745-.76-4.887.78-8.553,4.377-11.745.695-.617,2.084-1.027,2.626-1.978.758-1.33.043-4.398.293-6.003C1.279,56.533-.158,51.489.013,44.563c.214-8.668,2.144-15.828,8.143-22.246,1.307-1.399,3.837-3.015,4.766-4.443,1.628-2.504,1.756-5.489,4.302-8.283,3.028-3.322,13.153-7.371,17.637-8.761,9.752-3.022,17.031,2.448,17.667,12.423.48,7.532.872,24.969-2.019,31.465-3.951,8.878-13.25,12.483-22.551,11.982ZM20.592,49.026h13.046c4.607,0,9.793-5.441,10.808-9.758,1.321-5.621,1.07-18.119.718-24.175-.255-4.387-1.228-8.155-6.589-7.478-2.122.268-13.595,5.187-15.196,6.595-.929.817-2.786,3.741-2.786,4.888v29.928ZM12.918,49.026v-20.259c-3.08,2.792-4.913,7.996-5.229,12.114-.121,1.574-.243,5.988.011,7.378.063.344.156.574.46.768h4.758ZM20.285,56.7l-3.378-.002c-.293,3.264-.972,5.992,3.378,5.834v-5.832ZM62.031,154.005l-15.827-39.886c-1.594-5.006,4.3-7.426,6.781-3.098l18.701,45.759,9.222,8.269c4.97-6.786,4.136-13.039.513-20.153-6.641-13.04-15.18-27.885-22.829-40.404-7.053-11.544-16.143-21.058-27.712-28.154-3.212-1.97-12.502-6.988-15.968-7.079-2.798-.073-6.037,2.314-5.619,5.315.353,2.533,5.025,6.56,6.851,8.519,1.23,1.32,2.676,4.199,4.606,4.322.857.055,1.607-.324,2.437-.34,7.85-.15,12.761.865,18.729,6.16,2.326,2.064,6.122,5.451,3.367,8.569-3.346,3.788-6.441-1.282-8.727-3.209-3.252-2.741-7.378-4.382-11.666-3.989,7.989,15.221,13.622,31.526,20.113,47.417.658,1.61,5.096,13.008,5.807,13.121,1.186-.105,3.626-1.14,4.62-1.14h6.6ZM35.636,168.431l7.924-9.734-.067-.708c-9.233-20.503-15.499-42.738-26.95-62.095l-5.464-6.963c-1.405,8.312-.197,16.527,2.837,24.324l21.72,55.175ZM56.744,161.457c-11.244,1.29-18.162,13.438-14.285,23.937,4.103,11.111,18.341,15.401,27.699,7.894,14.356-11.516,4.735-33.915-13.414-31.832ZM183.892,184.7c-.086-2.781.447-5.324-.033-8.102-1.103-6.383-6.438-10.37-12.711-10.925l-84.254,8.9c4.901,5.733,12.851,9.621,20.4,10.139,13.131.901,27.26-.728,40.497.021,5.773,1.114,5.277,7.123-.876,7.651-11.569.993-24.527-.775-36.244.002-7.774-.321-14.08-1.557-20.801-5.597l-5.429-3.623c-2.718,14.174-14.965,22.852-29.277,21.14-1.412-.169-2.803-.569-4.183-.879,2.303,6.628,6.682,11.102,13.955,11.672l116.321-.037c4.965-.652,8.148-8.047,9.123-12.364.738-3.269.79-6.504.208-9.807l-.403-.518h-27.012c-1.839,0-3.724-1.655-3.856-3.534-.139-1.978,1.566-4.139,3.549-4.139h21.026Z"/>
      <path class="d" d="M198.012,99.827c.679-3.388,6.729-3.677,7.347.327l.025,47.247c7.434,23.5,9.595,47.484,8.57,72.12-.884,4.214-6.709,4.009-7.321-.314-.709-5.011.123-12.428-.014-17.789-.601-23.554-4.948-57.132-23.03-73.968-5.774-5.376-16.661-9.522-19.398-16.516-.474-1.21-.773-4.089-1.014-4.511-.688-1.201-7.612-.474-9.13-.219-9.354,1.572-14.686,7.277-22.842,10.923-17.824,7.969-43.135,5.768-54.261-11.953-12.523-19.946-5.425-62.046,6.753-81.291.999-1.578,3.275-5.322,4.913-5.845,2.585-.826,5.225,1.23,4.913,3.982-.182,1.607-3.875,6.336-4.947,8.276-9.654,17.476-16.395,56.102-3.652,73.037,9.063,12.044,28.849,12.907,41.865,7.536,5.63-2.323,10.205-6.311,15.765-8.792,6.705-2.991,14.34-4.548,21.684-3.639l1.418-7.651-.377-.584c-5.881-.123-11.544-.244-17.357.666-3.687.577-12.226,3.326-15.299,2.521-1.285-.337-2.015-1.484-2.15-2.765-.37-3.508,2.212-4.078,4.921-4.916,10.031-3.105,21.187-3.789,31.593-2.634l.937-5.801c-3.467-.713-14.347-.851-11.104-6.974,2.068-3.904,9.241-.366,12.645-.398l.863-5.14-.453-.641c-9.579-2.638-18.954-6.417-27.029-12.264-2.196-1.59-5.176-3.161-4.674-6.342.235-1.486,2.067-2.879,3.548-2.909,1.866-.038,7.493,4.523,9.54,5.747,6.264,3.745,13.086,6.549,20.177,8.319.385-.138.392-.418.469-.755.513-2.237.762-4.634,1.118-6.901-5.278-1.746-10.426-3.871-14.889-7.23-6.971-5.247-10.741-12.817-17.212-18.395-8.384-7.228-21.541-11.799-32.545-9.515-3.198.664-7.928,3.919-10.08.264-2.564-4.355,2.908-6.113,6.093-7.013,14.195-4.012,31.034,1.338,41.907,10.888,7.512,6.598,10.965,14.953,20.092,20.12,1.411.799,6.18,3.155,7.562,3.215,1.347.058,2.835-3.41,3.681-4.568,3.635-4.974,8.87-7.556,15.011-8.01,3.866-.286,7.661.61,11.411-.867,1.596-.628,2.88-1.905,4.492-2.568,3.028-1.247,7.546-1.226,10.799-.867,2.084.23,3.096,1.087,3.239,3.21.372,5.49-4.562,3.841-8.147,4.162-5.393.483-8.645,3.626-9.071,9.039l-.004,45.731c-.651,2.809-4.066,3.872-6.236,1.97-.283-.248-1.115-1.436-1.115-1.647v-50.801h-4.451c-1.879,0-5.933,1.49-7.499,2.63-4.039,2.939-4.502,6.6-5.45,11.125-3.868,18.455-6.32,37.257-9.944,55.767.107,5.553,6.397,7.477,10.376,10.218,6.625,4.564,11.941,10.105,16.968,16.337v-32.384Z"/>
      <path class="d" d="M68.061,170.382c11.949,11.949-7.17,29.593-18.159,17.084-10.522-11.978,6.895-28.347,18.159-17.084ZM58.579,174.33c-7.151,1.052-4.319,12.075,2.529,9.294,5.387-2.188,2.827-10.082-2.529-9.294Z"/>
    </g>
  </g>
</svg>