<?xml version="1.0" encoding="UTF-8"?>
<svg id="b" data-name="Layer 2" xmlns="http://www.w3.org/2000/svg" width="200.728" height="248.676" viewBox="0 0 200.728 248.676">
  <defs>
    <style>
      .d {
        fill: #bf3630;
      }
    </style>
  </defs>
  <g id="c" data-name="Layer 1">
    <path class="d" d="M56.16,32.261c2.854.55,5.486.198,8.336-.059.633-.185,2.275-3.385,3.072-4.215,3.26-3.396,7.921-3.698,12.374-3.783.663-5.056,3.387-9.613,8.466-11.176,4.019-1.237,17.705-1.125,22.001-.327,6.234,1.157,9.004,5.558,10.039,11.502,4.227.125,8.878.281,12.074,3.449,1.127,1.117,2.321,4.002,3.391,4.527,1.738.854,5.759-.597,7.855.32l.461-.398V10.56c0-4.5,5.653-9.538,9.983-9.975,9.506-.96,21.425-.471,31.029.009,2.625.131,4.772-.361,7.359.561,5.097,1.816,7.395,6.475,7.717,11.607,1.189,18.934-.598,39.521-.412,58.542-1.199,4.971-5.454,8.621-10.537,9.104-11.052-.799-23.654,1.088-34.522.002-3.529-.353-6.971-2.444-8.776-5.479-.455-.765-1.839-3.794-1.839-4.496v-13.622l-.475-.475h-7.286c-.854,0-3.038,3.967-3.993,4.877-3.221,3.066-7.716,3.467-11.962,3.401-.655,3.364-1.701,6.494-4.329,8.819-.817.723-3.95,2.264-3.95,3.02v15.998h4.91c1.514,0,3.077,2.128,3.01,3.642v64.628c-.49,4.378-4.009,3.561-7.401,3.686l-.475.475-.045,22.766.299.652c3.727.287,6.83,1.89,9.198,4.741.626.754,1.764,3.319,2.7,3.319h19.324l.475-.475v-17.424c0-4.045,5.569-9.672,9.744-9.897,11.513.6,24.367-1.08,35.727-.093,6.586.572,10.216,6.004,10.616,12.193,1.174,18.133-.92,37.518-.003,55.783-.133,5.759-4.408,11.264-10.312,11.864-11.225,1.139-24.337-.816-35.76-.03-4.266-.118-10.013-5.815-10.013-9.945v-17.899h-20.116c-2.687,3.623-5.037,7.108-9.902,7.838-8.645-.311-17.975.693-26.543.096-3.485-.243-6.469-1.579-8.69-4.299-.968-1.185-1.4-2.692-2.7-3.635h-20.116v17.582c0,4.07-4.668,9.364-8.806,9.885-11.455.135-24.298,1.221-35.718.426-13.275-.925-11.379-14.55-11.564-24.234-.214-11.187.084-22.444.345-33.582.213-9.062-1.865-21.037,10.905-22.042,11.073-.871,23.308.642,34.503.05,4.461.043,10.335,5.497,10.335,9.94v17.899h19.483c1.404,0,2.511-2.661,3.333-3.636,2.176-2.578,5.527-4.146,8.882-4.423l.299-.652-.045-22.766-.475-.475c-3.288-.051-6.92.55-7.401-3.687l-.011-64.004c-.136-1.904,1.298-4.265,3.338-4.265h4.593v-15.048c0-2.188-4.658-4.149-5.967-6.071-1.444-2.12-1.659-4.528-2.261-6.938-5.337.522-9.632-.373-13.128-4.601-.63-.762-1.824-3.457-2.879-3.457h-7.286l-.475.475v13.305c0,.534-.914,3.209-1.206,3.863-1.889,4.223-6.235,6.139-10.659,6.448-11.213.783-23.837-.281-35.084-.425C-1.38,77.174.634,67.813.418,59.333c-.319-12.49-.295-24.872,0-37.355C.591,14.675-1.426,5.717,6.527,1.793,9.882.138,11.992.768,15.466.594c9.329-.467,21.826-1.074,30.998.022,3.973.475,9.697,5.49,9.697,9.627v22.017ZM48.241,16.421v-4.593c0-1.781-2.334-3.186-3.944-3.342-10.188-.989-21.97.772-32.328.016-1.291-.21-3.643,1.907-3.643,3.009v4.91h7.761c.187,0,2.247.727,2.591.894,1.335.645,4.539,3.414,3.608,4.979-.846,1.421-3.863,3.371-4.932,4.893-2.286-3.158-5.435-3.223-9.029-2.529v11.721h7.761c.187,0,2.247.727,2.591.894,1.335.645,4.539,3.414,3.608,4.979-.846,1.421-3.863,3.371-4.932,4.893-2.399-3.146-5.403-3.108-9.029-2.529v11.721h7.445c.731,0,3.236.966,3.94,1.446.683.466,2.97,2.983,2.824,3.735l-5.18,5.578c-2.421-2.334-5.629-3.57-8.892-2.227-.469,4.536-.341,7.261,4.76,7.638,9.821.727,20.522-.582,30.439,0,4.889-.439,4.705-3.902,4.583-7.934-2.256-.094-4.054-.574-6.283.214-1.432.506-1.868,1.591-3.025,2.301l-5.118-5.041c.478-2.67,4.398-5.708,6.979-5.708h7.128v-11.721c-2.666-.567-7.057-.741-8.242,2.216l-5.638-4.491c-.238-2.034,2.138-4.265,3.842-5.071.343-.162,2.415-.89,2.595-.89h7.445v-12.038h-4.593c-1.387,0-3.378,1.715-4.118,2.846l-5.185-5.288c-.269-1.046,1.843-3.305,2.652-3.893.639-.464,3.164-1.585,3.8-1.585h7.761ZM192.065,16.421v-4.91c0-1.102-2.352-3.219-3.643-3.009l-32.926.02c-3.769.831-3.41,4.823-3.347,7.899h7.761c2.289,0,6.294,2.984,6.662,5.392l-5.1,5.368-.462-.136c-1.615-3.053-5.562-3.097-8.546-2.387v11.721h7.761c1.599,0,5.575,3.71,6.805,4.91l-5.846,5.862c-1.878-3.125-5.458-3.189-8.72-2.535v11.721h7.445c1.771,0,6.857,3.163,6.439,5.149-.096.455-4.532,5.535-4.898,5.599-1.27-.541-1.627-1.778-3.022-2.297-2.194-.816-4.056-.29-6.282-.216-.155,4.27-.109,7.505,4.901,7.933,9.811.838,20.799-.646,30.737-.015,1.425.206,4.28-1.614,4.28-3.006v-4.91c-2.302-.167-4.799-.732-6.946.498-.553.317-1.479,1.794-2.039,1.696-1.264-1.588-3.911-2.966-4.982-4.564-.909-1.357,2.479-4.302,3.71-4.878.544-.255,2.688-.989,3.129-.989h7.128v-11.721c-3.112-.545-6.829-.801-8.711,2.212l-6.029-5.371c-.309-.343-.273-.381.052-.661.977-.845,5.94-4.416,6.927-4.416h7.761v-11.721c-3.85-1.067-6.09.507-9.3,2.166-.319-.061-4.361-4.085-4.659-4.529-.684-1.016.949-2.902,1.755-3.664.842-.796,3.369-2.21,4.443-2.21h7.761ZM91.559,20.615c-2.479.418-3.173,2.22-3.399,4.52-1.191,12.093.894,26.049-.014,38.34.295,2.738.974,4.566,3.97,4.9,3.728.416,12.052.347,15.853.012,3.057-.269,4.024-1.655,4.275-4.595-.825-12.501,1.06-26.328,0-38.671-.185-2.158-.942-4.188-3.358-4.562-2.708-.419-14.644-.396-17.327.056ZM80.237,32.577h-5.227c-1.28,0-2.503,2.155-2.665,3.354-.476,3.516-.382,12.81-.04,16.458.144,1.536,1.227,3.948,3.022,3.948h4.91v-23.759ZM125.38,32.577c-1.443-.29-3.677.211-5.227,0v23.759h4.91c1.574,0,2.889-2.189,3.025-3.628.331-3.51.472-13.809-.036-17.102-.189-1.224-1.474-2.789-2.672-3.03ZM64.08,40.497h-7.603v7.603h7.603v-7.603ZM143.912,40.497h-7.603v7.603h7.603v-7.603ZM103.996,76.612h-7.603v15.523h7.603v-15.523ZM112.233,100.688h-23.759v55.439h23.759v-55.439ZM103.996,164.68h-7.603v23.443h7.603v-23.443ZM48.241,184.321c.036-3.274.528-7.321-3.671-7.892-10.219.788-22.285-1.15-32.286-.029-1.625.182-3.959,1.532-3.959,3.327v4.593h7.445c.264,0,2.386.791,2.811.99,1.365.642,4.658,3.276,3.705,4.882-.842,1.418-3.866,3.373-4.932,4.893-2.382-3.166-5.438-3-9.029-2.528v11.563l.5.441c5.123-.828,11.482-.563,13.76,4.95l-5.241,5.532-.46.005c-1.29-3.22-5.15-2.869-8.035-2.484l-.524.426v11.088c0,.872,1.935.175,2.38.16,3.256-.113,7.494-.051,9.986,2.364.733.71,2.208,2.595,1.594,3.509-1.029,1.531-3.696,3.295-4.928,4.843-2.645-2.346-5.523-3.131-8.997-2.13-.213,3.771-.368,7.177,4.229,7.582,9.994.882,21.257-.696,31.388,0,4.329-.091,4.888-4.416,3.967-7.794-3.602-.757-6.207.297-9.052,2.321l-5.135-5.147c.898-2.233,2.604-4.021,4.892-4.844.472-.17,2.443-.704,2.78-.704h6.494v-11.721c-3.245-.264-6.809-.712-8.712,2.529l-6.176-5.856c1.684-.973,5.603-4.909,7.443-4.909h7.445v-11.721c-2.829-.359-6.724-.751-8.277,2.174l-.427.059-5.462-4.921c.834-2.046,2.216-3.611,4.227-4.558.424-.2,2.547-.99,2.811-.99h7.445ZM192.065,184.321v-4.91c0-1.559-2.549-2.86-3.959-3.01-10.065-1.077-22.021.784-32.286.029-4.012.543-3.775,4.728-3.671,7.892h7.445c.732,0,3.235.966,3.94,1.446.62.423,3.348,3.272,3.044,3.945l-5.103,5.37c-.542.121-.908-.978-1.422-1.398-2.213-1.804-4.975-1.418-7.586-1.126v12.038c5.389-.924,11.618-.617,14.211,4.965l-5.501,5.805c-1.864-3.621-5.249-3.078-8.71-2.85v12.038c5.169-.818,11.983-.622,14.112,5.074l-5.402,5.696c-.417-1.015-2.457-2.85-3.483-2.85h-5.544c-.104,3.164-.341,7.349,3.671,7.892,10.265-.755,22.221,1.106,32.286.029,1.41-.151,3.959-1.452,3.959-3.01v-4.91h-5.544c-.764,0-3.012,1.527-3.015,2.532l-.46-.005-5.185-5.265c.627-2.208,2.821-4.039,4.928-4.796.4-.144,2.235-.703,2.465-.703h6.811v-11.721c-3.354-.249-6.465-.881-8.712,2.212l-5.394-5.057c.547-2.091,2.301-3.803,4.289-4.597.441-.176,2.395-.795,2.69-.795h7.128v-11.721c-3.194-.37-6.74-.933-8.711,2.212l-5.257-4.902c-.466-.707,1.206-2.813,1.774-3.327.771-.699,3.824-2.219,4.75-2.219h7.445ZM88.081,196.442c-2.122.323-3.473,1.353-3.726,3.561-.413,3.614-.413,13.175,0,16.789.304,2.658,2.127,3.445,4.582,3.655,5.789.495,16.728.496,22.515,0,4.056-.348,4.651-2.141,4.912-5.859.241-3.431.225-8.623,0-12.064-.249-3.818-.64-5.811-4.912-6.175-7.434-.635-15.838.428-23.371.094ZM76.118,204.596h-19.641v7.603h19.641v-7.603ZM143.912,204.596h-19.641v7.603h19.641v-7.603Z"/>
  </g>
</svg>