<?xml version="1.0" encoding="UTF-8"?>
<svg id="b" data-name="Layer 2" xmlns="http://www.w3.org/2000/svg" width="238.278" height="241.99" viewBox="0 0 238.278 241.99">
  <defs>
    <style>
      .d {
        fill: #bf3630;
      }
    </style>
  </defs>
  <g id="c" data-name="Layer 1">
    <path class="d" d="M238.278,123.149c-2.219,7.275-25.216,2.14-26.848,3.846-2.538,45.864-40.574,83.356-86.283,86.371-1.666,6.915,4.459,28.91-6.315,28.621-9.854-.264-5.073-22.246-6.258-28.621-45.101-3.147-83.975-40.656-85.31-86.384-5.587-1.043-24.017,2.602-26.355-2.892-5.983-14.06,19.265-8.566,26.355-9.569,1.178-44.675,40.685-84.193,85.367-85.372,1.144-7.116-4.681-34.337,9.568-28.275,6.124,2.606.695,22.24,3.793,27.853,45.383,2.722,82.604,40.533,85.439,85.781,8.85,1.121,19.981-3.073,26.848,3.846v4.796ZM112.626,40.655c-39.125,3.556-70.131,34.789-73.857,73.861h31.653c2.016-21.639,20.5-40.386,42.204-42.207v-31.655ZM198.952,114.516c-2.41-39.193-35.047-70.799-73.857-73.861v31.655c22.138,1.703,40.16,20.652,43.163,42.207h30.694ZM155.789,114.516c-3.242-15.626-15.073-27.376-30.694-30.696v30.696h30.694ZM112.626,84.78c-14.931,1.746-27.969,14.717-29.735,29.736h29.735v-29.736ZM70.422,126.986h-31.653c3.583,38.882,34.515,71.074,73.857,73.861v-30.216c-1.963-2.071-5.336-1.54-8.1-2.451-18.002-5.934-32.625-21.801-34.104-41.194ZM112.626,126.986h-29.735c1.588,15.635,14.755,27.551,29.735,30.696v-30.696ZM155.789,126.986h-30.694v30.696c15.628-2.911,27.934-14.942,30.694-30.696ZM198.952,126.986h-30.694c-3.093,21.465-19.546,39.889-41.55,42.38l-1.613,1.265v30.216c38.735-2.281,71.786-35.012,73.857-73.861Z"/>
  </g>
</svg>