<?xml version="1.0" encoding="UTF-8"?>
<svg id="b" data-name="Layer 2" xmlns="http://www.w3.org/2000/svg" width="201.526" height="255.844" viewBox="0 0 201.526 255.844">
  <defs>
    <style>
      .d {
        fill: #bf3630;
      }
    </style>
  </defs>
  <g id="c" data-name="Layer 1">
    <g>
      <path class="d" d="M168.805,167.999l.316,1.172,32.083,55.905c1.302,3.674-1.521,7.293-5.464,6.663l-28.647-7.431-7.317,27.81c-1.403,4.577-7.204,4.965-9.47.85l-34.035-58.99c-1.319-1.414-3.754-1.327-5.564-1.868-4.458-1.331-7.071-2.737-12.05-2.326-2.859.236-5.15,1.527-7.787,2.282-1.084.31-2.324.232-3.434.642-1.958.723-3.236,2.908-4.286,4.584-11.145,17.778-20.588,37.241-31.648,55.143-2.228,4.256-7.558,4.791-9.584.089l-7.638-28.207-27.984,7.357c-4.782.987-7.785-3.5-5.537-7.697,9.766-17.622,20.557-34.744,30.461-52.254,2.373-4.195-1.052-5.377-3.358-8.483-4.457-6.001-4.019-9.742-6.034-16.264-2.29-7.415-7.879-9.423-12.088-15.003-5.52-7.319-6.206-15.641-4.338-24.439,1.418-6.681,3.136-9.876,1.253-17.073-2.412-9.22-4.119-15.452.421-24.652,4.198-8.508,12.479-11.302,15.057-20.666,2.218-8.059,2.726-13.335,9.395-19.376,6.14-5.563,10.872-5.682,18.229-7.902,7.984-2.409,10.044-8.157,16.203-12.566,7.71-5.52,15.914-6.354,25.005-3.963,5.754,1.513,8.17,3.052,14.523,1.54,7.993-1.902,12.273-4.26,21.037-1.862,8.837,2.418,10.973,6.999,17.073,12.415,6.182,5.488,12.223,4.354,19.027,7.584,7.275,3.454,13.047,10.37,15.188,18.137.52,1.886.683,3.871,1.199,5.754,2.96,10.788,13.648,13.668,16.967,25.709,2.557,9.277-.064,12.988-1.876,21.381-2.056,9.528,3.937,16.526,2.685,26.663-1.308,10.591-6.325,13.941-13.01,20.795-4.31,4.42-4.05,7.214-5.486,12.735-1.537,5.908-4.61,12.054-9.486,15.811ZM82.667,10.018c-12.741.476-13.471,8.352-22.267,13.938-8.963,5.691-19.153,3.132-25.251,13.107-3.247,5.312-2.88,12.11-6.331,18.125-4.055,7.069-12.036,10.494-14.067,18.539-2.091,8.285,3.083,14.908,3.01,23.392-.058,6.697-3.957,12.75-3.604,18.928.625,10.923,10.542,14.219,15.223,23.136,3.583,6.824,2.534,14.149,8.019,20.032,5.92,6.35,13.802,5.049,21.022,8.944,7.649,4.126,11.145,12.506,19.493,14.55,8.274,2.026,15.174-3.355,23.865-3.011,7.696.305,13.375,4.846,21.252,3.057,8.565-1.945,11.74-10.093,19.055-14.269,6.97-3.978,14.87-2.943,20.815-8.432,6.348-5.862,5.291-14.431,9.421-21.747,4.624-8.191,13.826-11.307,14.66-21.542.45-5.522-1.792-8.743-2.802-13.734-.96-4.743-.789-9.853.427-14.537.775-2.985,2.149-5.759,2.375-8.893.93-12.873-9.409-15.273-14.661-24.653-2.854-5.097-2.851-8.997-4.583-14.118-4.858-14.363-17.373-10.33-27.573-17.258-4.277-2.905-6.568-6.943-10.493-9.885-11.11-8.327-19.498.644-31.272-.131-5.172-.34-11.213-3.707-15.738-3.538ZM48.197,237.496l26.361-45.199c-4.111-1.553-7.829-3.429-11.148-6.346-3.161-2.778-5.937-7.158-9.626-9.075-3.661-1.902-8.373-2.362-12.383-3.178l-25.808,44.853c.948.052,1.837-.28,2.738-.496,5.569-1.333,13.156-4.372,18.542-4.949,3.458-.371,4.9,1.12,5.979,4.197l5.344,20.193ZM186.028,218.794l-26.049-45.043c-4.315.651-9.346,1.314-13.183,3.521-3.31,1.903-4.968,4.949-7.623,7.481-3.338,3.182-7.652,5.898-12.104,7.198l25.884,45.546c.364-.033.367-.363.463-.612,2.377-6.123,3.066-13.958,5.521-20.134,1.768-4.448,3.725-3.995,7.919-3.114,6.357,1.335,12.824,3.659,19.172,5.158Z"/>
      <path class="d" d="M119.236,46.07c-3.7-3.685-.155-9.668,5.238-8.236,5,1.327,13.525,6.885,17.564,10.246,26.21,21.812,31.316,59.844,11.588,87.827-25.515,36.191-79.289,36.449-105.284.618-22.81-31.441-13.092-76.662,21.028-95.206,3.645-1.981,10.509-6.058,13.545-1.477,2.585,3.899-.829,6.547-3.874,8.274-8.605,4.878-13.363,7.174-20.181,14.821-23.283,26.113-13.816,70.679,17.94,84.926,44.71,20.059,90.213-19.687,76.157-66.585-4.045-13.496-12.94-23.614-25.014-30.608-2.119-1.228-7.344-3.244-8.705-4.6Z"/>
      <path class="d" d="M119.818,65.148c1.853-.148,3.782,1.559,5.088,2.704,3.527,3.09,7.662,7.449,10.907,10.91,3.277,3.495,6.973,6.094,2.999,10.919l-40.275,40.279c-2.586,2.087-4.551,1.97-7.08-.117l-29.003-29.016c-2.149-2.687-2.056-4.691.117-7.322,4.353-5.269,10.694-9.98,15.222-15.226,2.711-2.236,4.723-2.16,7.432.011,3.551,2.846,6.223,7.018,9.801,9.808l21.005-20.966c.964-.798,2.514-1.884,3.787-1.985ZM119.543,77.823l-21.503,21.427c-2.986,1.902-4.816,1.048-7.302-1.057-1.349-1.142-8.269-8.991-8.896-9.1l-8.227,8.015,21.412,21.442,32.523-32.712-8.006-8.015Z"/>
      <path class="d" d="M99.67,33.505c4.324-.735,7.482,3.241,5.533,7.212-1.584,3.227-6.368,3.528-8.451.628-2.022-2.816-.651-7.233,2.918-7.84Z"/>
    </g>
  </g>
</svg>