<?xml version="1.0" encoding="UTF-8"?>
<svg id="b" data-name="Layer_2" xmlns="http://www.w3.org/2000/svg" width="258.384" height="190.546" viewBox="0 0 258.384 190.546">
  <defs>
    <style>
      .d {
        fill: #fff;
      }
    </style>
  </defs>
  <g id="c" data-name="Layer_1">
    <path class="d" d="M250.407,158.538c-29.775-21.403-59.566-42.789-89.354-64.178,28.804-20.686,57.61-41.37,86.412-62.058,8.231-5.913,10.55-14.434,6.087-22.163-5.6-9.697-19.932-12.625-29.744-5.994-4.272,2.887-8.376,5.968-12.551,8.966-27.224,19.55-54.447,39.1-81.669,58.651-27.487-19.74-54.974-39.48-82.462-59.219-4.175-2.998-8.278-6.078-12.551-8.966C24.764-3.055,10.432-.128,4.832,9.57.369,17.298,2.688,25.82,10.919,31.733c29.066,20.877,58.136,41.751,87.204,62.627-30.052,21.579-60.108,43.154-90.146,64.747-9.334,6.709-10.626,17.669-3.085,25.409,6.636,6.812,18.476,8.03,26.74,2.745.67-.429,1.309-.896,1.951-1.357,32.003-22.982,64.003-45.966,96.006-68.948,31.738,22.793,63.475,45.587,95.213,68.379.642.461,1.281.929,1.951,1.357,8.264,5.285,20.103,4.066,26.74-2.746,7.542-7.74,6.249-18.699-3.085-25.409Z"/>
  </g>
</svg>