<?xml version="1.0" encoding="UTF-8"?>
<svg id="b" data-name="Layer 2" xmlns="http://www.w3.org/2000/svg" width="252.01" height="214.185" viewBox="0 0 252.01 214.185">
  <defs>
    <style>
      .d {
        fill: #bf3630;
      }
    </style>
  </defs>
  <g id="c" data-name="Layer 1">
    <g>
      <path class="d" d="M251.791,98.779c.032,5.33.477,12.104,0,17.261-.726,7.855-6.765,13.954-14.723,14.154-.992.025-1.803-.257-2.635-.26-4.275-.015-8.554.032-12.827.01v22.894c0,.08-.295,1.376-.354,1.563-.957,2.998-4.353,3.872-7.072,2.752-6.14-4.139-12.227-8.369-18.282-12.63-5.266-3.705-12.226-9.717-17.579-12.614-3.402-1.841-7.044-2.213-10.853-1.725v43.032c0,6.64-5.817,12.874-12.404,13.478-14.189.013-28.409.101-42.566.316-4.479.068-9.536-.362-13.913-.018-4.236.332-10.302,4.345-14.167,6.44-11.661,6.322-23.586,13.946-35.374,19.74-4.997,2.456-8.394.34-8.315-5.205.086-6.042.543-12.155.74-18.198.028-.851.201-2.167-.371-2.768H12.586C6.299,187,.024,179.88.013,173.691l-.013-92.302c1.559-14.76,13.954-13.364,25.272-13.547,19.996-.323,40.026.266,60.022.011V12.595C85.294,6.135,92.503-.069,98.832.012l138.953-.012c7.661.551,12.895,5.42,13.762,13.078-.122,28.556.07,57.218.243,85.7ZM211.544,142.89v-18.1c0-.482.622-2.169.957-2.638.853-1.195,2.293-1.684,3.706-1.805,6.348-.547,13.47.518,19.862-.022,4.281-.362,5.394-1.543,5.672-5.831l-.002-99.27c-.273-3.176-1.004-5.04-4.443-5.382l-137.756-.011c-2.276.197-3.842.975-4.315,3.354-.613,34.405-.511,68.983-.052,103.399.446,1.984,1.308,2.955,3.285,3.425,24.742.639,49.617.337,74.408.359,3.505.003,5.033-.491,8.331,1.469,9.486,5.641,18.755,13.911,28.212,19.954.288.184,1.981,1.273,2.135,1.1ZM85.294,77.922l-2.026-.251-68.535.003c-3.049.262-4.643,1.557-4.911,4.675l-.002,90.158c.232,3.134,1.543,4.404,4.673,4.673,10.026.862,21.327-.807,31.4-.017,5.861.46,5.474,4.27,5.391,9.008-.01.567-.252,1.092-.259,1.658-.056,4.276.06,8.562.012,12.835,11.235-5.956,22.173-12.484,33.376-18.501,4.215-2.264,7.536-4.69,12.488-5.003,18.168-1.151,37.545.874,55.839.02,2.454-.183,4.049-1.034,4.604-3.544.02-13.376.984-27.077.309-40.469-.054-1.078-.402-2.123-.251-3.225h-59.532c-5.745,0-12.577-6.552-12.577-12.346v-39.676Z"/>
      <path class="d" d="M169.807,55.694c12.165-1.449,16.04,15.774,4.67,19.777-14.114,4.97-19.262-18.039-4.67-19.777Z"/>
      <path class="d" d="M210.288,55.688c13.941-1.766,15.492,18.959,2.784,20.287-13.81,1.443-15.588-18.665-2.784-20.287Z"/>
      <path class="d" d="M129.081,55.694c14.003-1.668,15.431,18.959,2.778,20.281-13.862,1.448-15.531-18.762-2.778-20.281Z"/>
    </g>
  </g>
</svg>