<?xml version="1.0" encoding="UTF-8"?>
<svg id="b" data-name="Layer 2" xmlns="http://www.w3.org/2000/svg" width="308.329" height="186.234" viewBox="0 0 308.329 186.234">
  <defs>
    <style>
      .d {
        fill: #bf3630;
      }
    </style>
  </defs>
  <g id="c" data-name="Layer 1">
    <g>
      <path class="d" d="M228.954,74.792l.602,1.7,74.982.217c4.339.678,5.169,6.466,1.36,8.295-22.895.709-45.936-.098-68.876.229-12.394.177-24.783-.542-35.859,5.985-2.241,1.32-3.764,3.192-3.844,5.919-.067,2.318.384,2.393-.463,4.991-2.447,7.506-9.757,12.877-16.96,15.374-1.635.567-6.353,1.304-7.198,2.312-.737.878-.551,3.672-.484,4.899.25,4.61,1.549,16.096,3.529,19.929,3.077,5.954,7.065,5.256,12.315,7.022,5.268,1.772,3.696,8.665-2.367,8.395-18.706-.833-21.346-19.013-22.052-34.062-1.566-33.382,24.991-37.008,48.944-49.034,7.259-3.644,12.324-9.616,18.438-14.846,18.518-15.843,40.028-30.462,62.385-40.322,3.385-1.493,12.934-6.836,14.582-1.158.885,3.051-.564,4.385-2.95,5.816-7.954,4.771-17.947,8.498-26.323,12.984-14.207,7.609-27.304,16.922-39.623,27.263-2.557,2.147-5.783,5.759-8.395,7.453-.539.35-1.107.563-1.743.64ZM187.269,97.618l-10.955,10.291c-.031,2.727,5.255-.841,6.146-1.475,2.603-1.851,4.722-4.338,6.103-7.224l-1.295-1.592Z"/>
      <path class="d" d="M114.177,58.591c.774-1.053-6.715-13.527-7.96-15.285-9.739-13.755-21.315-19.56-37.656-22.573-21.15-3.9-43.112-3.46-64.489-1.765-4.739-.637-5.248-6.901-.829-8.381,1.252-.419,3.537-.631,4.926-.78,18.599-1.993,43.934-1.063,62.345,2.316,31.872,5.849,47.612,24.983,55.891,55.375,1.972,7.238.193,12.09-.155,19.181-.098,1.994-.442,4.114,1.109,5.542,2.58,2.375,5.393,3.556,7.896,6.686,7.662,9.582,6.775,27.517,4.03,38.847-.904,3.733-2.538,11.295-7.968,8.836-4.403-1.994-.792-9.238-.092-12.775,1.598-8.066,2.395-22.795-2.944-29.519-2.581-3.251-4.911-3.582-8.031-5.6-6.166-3.989.455-11.132-5.963-13.691-5.061-2.018-12.809-2.998-13.959-9.816-1.616-9.582,6.912-12.937,13.849-16.597ZM118.003,66.865c-2.008.91-12.879,4.936-7.463,7.622.824.409,8.366,2.786,8.733,2.517l-1.27-10.139Z"/>
      <path class="d" d="M177.921,37.065l30.532-17.172c3.068-1.77,7.351.552,6.524,4.307-4.998,11.058-11.887,21.223-17.406,32.049-.088.704.099.365.464.477,2.803.857,11.777,2.237,12.465,5.291.676,3.005-.601,5.671-3.892,5.818-2.183.098-13.958-3.244-16.416-4.213-2.393-.944-4.243-2.227-3.688-5.132,3.48-7.841,8.47-15.005,12.334-22.689-.211-.178-3.471,1.557-4.017,1.844-3.712,1.955-16.214,10.002-19.268,10.216-2.531.177-3.428-.734-4.384-2.938l-6.887-23.388c-.425-.093-.358.329-.464.634-2.418,6.959-3.525,15.261-6.182,22.035-1.428,3.642-2.949,4.533-6.881,3.064l-19.02-10.794c-.634-.1-1.307.959-.924,1.549l11.213,20.193c.455,2.315-.613,4.166-2.785,4.994-3.1,1.181-4.534-.72-6.072-3.108-7.083-11.003-12.973-23.937-19.524-35.316-.879-5.079,2.626-6.036,6.803-4.584l30.206,16.547,9.67-34.238c1.721-3.472,6.524-3.293,8.016.232l9.584,34.323Z"/>
      <path class="d" d="M91.631,124.969c24.352-2.155,41.389,23.607,29.71,45.242-11.302,20.936-41.74,21.291-53.676.724-11.292-19.457,1.782-44.003,23.967-45.966ZM92.582,133.844c-12.68,1.099-21.965,13.378-19.448,25.915,3.594,17.903,26.174,23.93,38.06,9.814,12.501-14.846.4-37.378-18.612-35.73Z"/>
      <path class="d" d="M222.226,125.278c37.009-3.926,48.024,45.368,16.351,58.512-23.895,9.916-48.185-11.944-41.233-36.795,3.02-10.795,13.563-20.517,24.881-21.717ZM224.45,133.843c-13.066,1.332-21.991,14.181-18.862,26.918,4.207,17.127,25.973,22.475,37.639,8.976,12.809-14.821.537-37.864-18.776-35.894Z"/>
      <path class="d" d="M38.048,26.667c2.139-.292,4.5,1.467,4.799,3.612.353,2.536.011,5.096.016,7.566.022,11.161,1.006,24.338.008,35.195-1.699,18.478-26.702,10.997-38.843,12.542-5.211-.503-5.593-8.03.321-8.587,7.53-.709,16.218.696,23.782.007,4.167-.38,5.837-1.958,6.198-6.165,1.095-12.747-.842-27.043-.012-39.954.143-2.023,1.694-3.938,3.732-4.216Z"/>
      <path class="d" d="M3.487,151.578l49.383-.084c5.318.651,4.802,8.226-.324,8.568H4.361c-5.224-.375-6.044-7.313-.874-8.484Z"/>
      <path class="d" d="M266.274,151.575l38.255-.046c5.433.739,4.801,8.263-.605,8.532l-37.062-.029c-4.913-.824-5.607-7.147-.588-8.457Z"/>
      <path class="d" d="M92.258,140.495c12.084-1.459,20.929,10.01,16.191,21.264-4.792,11.382-20.708,12.288-27.033,1.763-5.547-9.23.045-21.723,10.841-23.027ZM94.439,149.083c-2.894.055-5.464,2.007-6.248,4.779-1.911,6.755,7.165,11.55,11.427,5.721,3.175-4.343.187-10.603-5.179-10.5Z"/>
      <path class="d" d="M224.762,140.494c18.218-2.054,23.537,22.675,7.991,29.23-21.495,9.063-30.583-26.682-7.991-29.23ZM226.574,149.141c-7.272.113-8.85,9.972-2.28,12.568,9.503,3.755,12.558-12.728,2.28-12.568Z"/>
    </g>
  </g>
</svg>