<?xml version="1.0" encoding="UTF-8"?>
<svg id="b" data-name="Layer 2" xmlns="http://www.w3.org/2000/svg" width="228.588" height="275.344" viewBox="0 0 228.588 275.344">
  <defs>
    <style>
      .d {
        fill: #bf3630;
      }
    </style>
  </defs>
  <g id="c" data-name="Layer 1">
    <g>
      <path class="d" d="M106.828,71.606l37.99-22.615c2.913.023,6.016,1.644,5.002,5.018l-18.934,32.266,57.501-21.579c4.024-1.338,7.622,2.601,5.001,6.175l-56.334,46.072,20.051,13.103c2.417,2.439,1.779,5.753-1.363,7.059-6.807,2.829-16.041,3.638-23.038,6.304-.346.132-.713.174-.93.528l12.91,21.568.735-.285,17.679-17.83c.65-1.315-.421-4.366-.533-6.078-1.37-20.899,15.192-37.696,36.216-35.923,1.843.155,7.759,1.284,8.965,2.479,1.922,1.906.467,3.9-.866,5.544-3.261,4.021-8.933,7.899-11.884,11.885-1.364,1.843-1.332,5.021-.659,7.13.582,1.824,4.946,6.58,6.664,7.421,2.22,1.087,4.879.895,7.142.063,4.642-3.608,8.724-9.664,13.278-13.132,4.632-3.528,6.554,1.788,6.884,5.719.818,9.756.132,17.328-5.625,25.471-6.647,9.401-18.236,14.553-29.726,13.695-3.048-.227-4.932-1.809-7.632.592-.558.496-.812,1.125-1.314,1.62-19.904,19.632-39.328,39.668-59.298,59.251-.766,1.33.487,5.578.599,7.355,1.347,21.426-18.316,38.03-39.333,34.344-3.544-.621-9.3-2.07-5.852-6.762,3.106-4.228,9.258-8.443,12.735-12.501,1.808-2.11,1.624-5.91.432-8.299-.674-1.352-5.324-5.866-6.718-6.487-2.354-1.048-4.901-1.011-7.245.081-4.688,3.576-8.738,9.631-13.284,13.126-5.103,3.924-6.54-3.814-7.013-7.379-1.352-10.191,2.183-20.218,9.06-27.691-1.521-.011-2.565-1.351-3.078-2.647l-4.552-43.719L5.505,205.481c-5.159,1.425-7.322-4.093-3.725-7.539l36.08-43.144c.008-.414-3.403-.907-3.993-.989-6.322-.881-13.352-.8-19.548-1.873-3.836-.664-5.338-3.684-3.015-6.974l19.515-17.16-21.712-14.962c-2.761-2.473-1.749-5.948,1.606-7.203,6.734-2.518,15.847-3.155,22.401-5.769.346-.138.721-.179.94-.536L7.577,55.974c-.862-4.432,1.557-6.418,5.92-5.336l38.744,26.544,1.253-25.599c.929-4.307,4.626-5.011,7.703-1.988,5.449,5.354,10.146,12.714,15.569,18.177.242.244.258.421.712.313L100.217,2.644c1.467-3.828,7.287-3.426,7.788.731.546,4.529-.235,9.559-.312,14.08-.29,17.05-.603,34.031-.855,51.083-.016,1.062-.606,1.935-.01,3.069ZM99.487,31.113c-.83-.15-.482.197-.66.643-5.932,14.908-10.344,30.794-16.13,45.8-2.958,5.64-6.092,2.641-9.182-.664-4.144-4.433-7.681-9.521-12.027-13.79-.427.279-.406.563-.454,1.007-.529,4.798-.263,10.118-.576,14.977-.129,2.003-.173,5.496-.655,7.268-.919,3.381-4.067,3.225-6.655,1.808-8.242-4.516-17.348-12.329-25.46-17.676-.412-.271-2.449-1.78-2.734-1.518l18.835,30.901c1.586,2.992.753,5.329-2.409,6.503l-19.948,4.85c-.167.679.136.483.372.67,5.631,4.442,12.599,8.012,18.259,12.537,2.031,2.232,1.723,4.14-.137,6.312-3.757,4.388-10.63,8.694-14.977,12.9-.316.306-.685.514-.582,1.03l22.657,2.434c3.058.946,4.023,4.06,2.119,6.646l-25.657,31.121c.217.183,1.779-.737,2.142-.936,11.611-6.371,23.256-15.272,34.929-21.119,4.735-2.372,6.676-1.352,7.496,3.753l2.972,31.214c.52.621,1.96-2.723,2.104-3.028,4.021-8.476,7.207-18.439,11.576-26.572,2.515-4.682,5.414-3.213,8.477-.041,7.688,7.961,14.459,17.648,21.996,25.833l.847.558,2.105-2.04-11.516-29.861c-1.152-3.22.065-5.937,3.629-6.113l22.987,6.05c.208-.2-.488-1.253-.647-1.551-2.003-3.743-10.899-16.465-11.106-19.416-.113-1.608.188-2.548,1.477-3.541,2.453-1.891,14.059-4.44,17.839-5.637.346-.11,3.873-1.125,3.589-1.542l-16.279-10.281c-2.685-2.262-2.829-4.247-.458-6.9l38.745-31.531c-5.333,1.792-10.638,3.703-15.919,5.646-8.515,3.133-18.789,7.99-27.275,10.286-3.909,1.057-6.95-.584-5.876-4.996l15.91-27.37c-.206-.206-1.25.486-1.551.647-9.731,5.218-18.651,12.101-28.601,16.895-4.365.194-4.866-2.948-4.78-6.554.325-13.572.773-27.196,1.199-40.762.051-1.613-.06-3.241-.014-4.852ZM198.084,112.102h-6.016c-2.833,0-9.288,3.044-11.683,4.749-8.079,5.752-11.864,14.539-11.054,24.444.286,3.498,2.646,6.925-.305,9.975l-64.253,64.274c-2.991,2.84-7.149.416-10.718.147-16.207-1.22-30.357,12.816-28.31,29.046.647.481,9.561-10.447,11.725-11.012,1.457-.38,9.009-.352,10.726-.145.93.112,1.486.477,2.201,1.027,1.666,1.282,8.757,8.484,9.541,10.12,1.016,2.12.968,8.245.734,10.733-.133,1.416-.474,1.988-1.329,3.073-2.711,3.438-7.099,6.427-9.833,9.971,15.883,1.731,29.937-11.694,29.048-27.724-.2-3.605-2.537-7.601-.418-10.695l65.265-65.316c1.226-.944,1.837-1.08,3.392-1.035,2.673.077,5.898,1.443,8.804,1.487,12.099.187,26.546-11.292,26.546-23.921v-5.135c-3.107,1.46-9.184,10.227-11.952,10.79-1.482.301-9.523.309-11.068.052-1.293-.216-2.783-1.853-3.691-2.764-1.781-1.787-6.991-7.011-7.687-9.04-.749-2.186-.856-9.232-.074-11.354.968-2.628,7.897-8.156,9.971-10.863.227-.296.566-.37.438-.882ZM138.222,172.554l-20.831-5.872,7.48,19.361,13.351-13.489ZM73.962,214.219c5.87-3.976,13.324-5.734,20.404-5.294,2.09.13,4.267.89,6.308.769l9.358-9.159-19.794-23.286-16.276,36.971Z"/>
      <path class="d" d="M163.382,166.461c3.543-.92,5.978,2.739,3.457,5.509l-42.012,41.912c-2.751,1.727-6.036-.907-4.862-3.984,13.457-14.527,28.01-28.151,41.872-42.344.404-.333,1.071-.971,1.545-1.094Z"/>
      <path class="d" d="M113.212,217.211c3.436-.473,5.288,4.188,2.225,6.06-4.692,2.868-7.498-5.334-2.225-6.06Z"/>
      <path class="d" d="M172.774,157.072c5.637-1.441,5.902,6.254,1.384,6.394-4.115.127-4.347-5.637-1.384-6.394Z"/>
    </g>
  </g>
</svg>