<?xml version="1.0" encoding="UTF-8"?>
<svg id="b" data-name="Layer_2" xmlns="http://www.w3.org/2000/svg" width="239.601" height="237.197" viewBox="0 0 239.601 237.197">
  <defs>
    <style>
      .d {
        fill: #ad1e29;
      }
    </style>
  </defs>
  <g id="c" data-name="Layer_1">
    <path class="d" d="M213.377,49.507c1.911,0,3.822-.033,5.732.008,2.971.064,4.5,1.51,4.533,4.43.056,4.99.05,9.982.003,14.972-.028,3.068-1.537,4.5-4.667,4.555-1.891.033-3.784.006-6.151.006,2.053,2.236,3.412,4.344,6.668,4.121,1.206-.083,3.107,1.125,3.696,2.26,5.431,10.471,10.692,21.032,15.891,31.621,1.477,3.009-.334,5.798-3.699,5.889-3.808.103-7.62.024-11.577.024v43.377c.402.133.852.335,1.324.431,6.856,1.385,11.941,6.399,12.985,12.823,1.136,6.989-1.749,13.191-8.055,16.853-18.039,10.474-36.113,20.886-54.175,31.318-4.102,2.369-8.221,4.708-12.317,7.088-4.487,2.608-9.31,3.914-14.502,3.912-19.717-.009-39.434-.038-59.151.018-5.847.017-11.079-1.886-16.126-4.571-.496-.264-1.027-.46-1.891-.842,0,1.909.055,3.537-.012,5.159-.109,2.643-1.591,4.189-4.25,4.201-10.482.048-20.965.049-31.447-.002-2.652-.013-4.103-1.57-4.221-4.228-.051-1.146-.009-2.296-.009-3.731-1.077,0-1.965,0-2.852,0-8.07,0-16.14.015-24.21-.008-3.44-.01-4.881-1.427-4.884-4.838-.017-18.05-.016-36.1,0-54.15.003-3.535,1.428-4.894,5.07-4.901,7.987-.015,15.973-.005,23.96-.005.896,0,1.792,0,2.915,0,0-1.383-.038-2.526.008-3.666.107-2.69,1.529-4.277,4.154-4.29,10.565-.054,21.131-.055,31.697.003,2.492.014,3.97,1.599,4.065,4.119.081,2.142.017,4.29.017,6.665,2.765-.677,5.257-1.287,7.855-1.922v-48.807c-3.398,0-6.85.007-10.302-.002-5.146-.012-6.718-2.582-4.4-7.228,4.449-8.919,8.936-17.819,13.366-26.748,3.415-6.885,2.867-5.767,9.318-6.063.204-6.588.798-12.821-4.935-18.27-18.302-17.398-12.76-48.031,10.23-58.319,4.219-1.888,6.819-.22,6.827,4.414.014,7.985.043,15.971-.03,23.956-.014,1.562.303,2.633,1.761,3.438,2.167,1.197,4.195,3.591,6.322,3.636,1.995.043,3.997-2.381,6.08-3.571,1.388-.793,1.892-1.747,1.871-3.383-.097-7.901-.048-15.804-.042-23.706.004-5.153,2.53-6.78,7.173-4.633,21.932,10.143,28.051,39.286,11.282,56.588-5.755,5.938-7.247,12.087-6.183,19.945h6.236c4.243,0,8.509-.27,12.722.085,3.399.287,5.444-1.179,7.411-4.062-2.133,0-3.997.02-5.86-.004-3.31-.043-4.791-1.44-4.817-4.655-.04-4.907-.042-9.815.001-14.723.028-3.099,1.505-4.526,4.631-4.583,1.899-.035,3.798-.006,6.45-.006-1.835-1.788-3.265-3.109-4.61-4.51-2.17-2.26-2.2-4.3-.016-6.535,3.429-3.511,6.903-6.979,10.412-10.411,2.247-2.197,4.289-2.195,6.534-.04,1.376,1.321,2.65,2.75,4.542,4.728,0-2.566-.016-4.408.003-6.248.036-3.459,1.418-4.904,4.795-4.926,4.825-.031,9.651-.035,14.476.002,3.239.025,4.65,1.487,4.697,4.775.027,1.872.005,3.744.005,6.303,1.85-1.894,3.182-3.343,4.606-4.697,2.144-2.039,4.233-2.073,6.356-.007,3.577,3.481,7.106,7.011,10.588,10.586,2.076,2.132,2.036,4.193.035,6.363-.676.733-1.37,1.461-2.13,2.102-.75.632-1.594,1.15-2.397,1.719.205.266.411.531.616.797ZM71.904,176.402v2.836c0,11.973.098,23.948-.075,35.919-.039,2.722.727,4.096,3.237,5.218,4.844,2.165,9.396,4.873,14.997,4.849,19.709-.086,39.421.08,59.128-.146,3.273-.038,6.905-.893,9.735-2.495,22.482-12.728,44.821-25.707,67.173-38.661,4.127-2.392,5.394-7.106,3.182-10.95-2.187-3.802-7.023-5.135-11.069-2.825-12.913,7.374-25.785,14.82-38.634,22.305-.633.369-1.297,1.382-1.273,2.071.307,8.986-8.689,18.553-21.09,15.131-15.285-4.218-30.625-8.235-45.937-12.354-2.857-.769-4.114-2.624-3.513-5.054.583-2.358,2.701-3.406,5.528-2.673,3.777.98,7.544,1.998,11.312,3.008,11.707,3.14,23.404,6.317,35.123,9.413,6.124,1.618,11.45-2.901,10.449-8.863-.684-4.076-3.598-5.84-7.34-6.832-17.252-4.575-34.475-9.257-51.723-13.847-4.798-1.277-9.603-3.192-14.665-2.056-8.168,1.833-16.269,3.963-24.547,6.005ZM175.445,185.446c.916-.495,1.649-.867,2.36-1.278,11.945-6.899,23.866-13.842,35.859-20.658,1.526-.867,2.038-1.756,2.029-3.461-.068-13.391-.038-26.782-.038-40.174,0-.79,0-1.58,0-2.475-13.935,0-27.49.053-41.044-.017-10.902-.056-8.495,1.428-13.533-8.389-1.638-3.192-3.243-6.401-4.863-9.602-.117.053-.234.106-.351.159v76.531c6.906,2.468,14.978,2.255,19.581,9.364ZM87.958,164.088c1.092-.251,1.906-.4,2.698-.627,6.157-1.762,12.248-1.655,18.416.163,6.765,1.994,13.617,3.69,20.434,5.506,5.999,1.598,12.001,3.181,18.135,4.805v-74.397c-2.572,4.29-4.999,8.613-6.93,13.146-1.523,3.576-3.724,4.863-7.642,4.802-14.131-.22-28.267-.086-42.401-.086-.88,0-1.759,0-2.711,0v46.688ZM91.856,10.492c-1.637,1.426-2.877,2.37-3.958,3.471-10.899,11.096-10.722,28.889.596,39.609,5.112,4.842,7.691,10.487,7.385,17.502-.09,2.051-.014,4.11-.014,6.212h7.972c0-3.817-.027-7.466.008-11.114.028-2.921,1.602-4.698,4.037-4.668,2.345.029,3.871,1.761,3.951,4.513.027.914.006,1.83.006,2.744,0,2.871,0,5.743,0,8.549h7.971c0-1.541.091-2.945-.015-4.334-.61-7.985,2.12-14.358,7.944-20.045,7.607-7.428,9.718-16.836,6.926-27.119-1.673-6.162-5.225-11.131-10.846-15.19,0,7.571-.056,14.616.032,21.66.029,2.315-.746,3.954-2.707,5.204-3.504,2.233-6.968,4.534-10.375,6.913-2.067,1.443-3.914,1.369-5.952-.058-3.335-2.336-6.721-4.606-10.166-6.777-2.052-1.292-2.868-2.966-2.832-5.386.103-6.981.036-13.964.036-21.687ZM40.132,165.426v63.55h23.635v-63.55h-23.635ZM145.284,85.458c-1.351,0-2.256,0-3.161,0-15.216,0-30.431-.007-45.647.006-3.318.003-7.373-1.075-9.752.441-2.482,1.582-3.382,5.68-4.917,8.706-2.432,4.792-4.817,9.608-7.217,14.405.339.201.468.344.598.345,18.957.019,37.913.037,56.87-.006.586-.001,1.456-.492,1.715-.998,3.809-7.455,7.536-14.952,11.512-22.898ZM158.546,85.458c.117.533.122.789.226.996,3.593,7.208,7.145,14.437,10.87,21.576.382.733,1.8,1.308,2.739,1.312,18.125.076,36.251.058,54.376.05.683,0,1.366-.104,2.297-.18-3.891-7.775-7.607-15.28-11.446-22.722-.295-.572-1.448-.974-2.209-.987-5.154-.085-10.309-.045-15.464-.045-13.715,0-27.43,0-41.389,0ZM8.117,221.018h23.64v-47.583H8.117v47.583ZM180.153,77.323c-9.308-3.989-13.629-10.531-12.244-18.304,1.365-7.66,7.62-13.245,15.116-13.497,7.574-.255,14.315,4.716,16.144,11.913,1.098,4.322.488,8.406-1.761,12.244-2.281,3.891-5.808,6.181-10.496,7.601h18.151c-.688-.728-1.087-1.248-1.58-1.656-2.241-1.853-2.56-3.907-1.387-6.632,1.134-2.634,2.802-3.678,5.568-3.543,2.619.127,5.249.027,7.861.027v-7.97c-2.847,0-5.573-.074-8.293.021-2.62.092-4.088-1.104-5.098-3.485-1.024-2.413-1.155-4.418.941-6.294,2.087-1.868,4.088-3.832,5.966-5.603-2.042-2.196-3.785-4.07-5.629-6.053-2.078,2.102-4.119,4.058-6.032,6.13-1.935,2.096-3.972,1.811-6.329.804-2.27-.97-3.447-2.401-3.37-4.922.085-2.792.019-5.588.019-8.351h-7.972c0,2.936-.058,5.677.017,8.415.069,2.532-1.176,3.911-3.431,4.881-2.383,1.025-4.41,1.222-6.311-.878-1.886-2.084-3.881-4.07-5.86-6.132-2.044,2.042-3.856,3.853-5.893,5.889,2.072,1.984,4.065,3.978,6.152,5.867,2.104,1.904,1.881,3.938.861,6.313-.97,2.259-2.365,3.485-4.893,3.416-2.798-.076-5.6-.017-8.416-.017v7.97c1.584,0,2.99,0,4.395,0,1.414,0,2.88-.234,4.226.067,1.36.304,3.21.794,3.784,1.805,2.14,3.769,2.873,5.363-.644,8.515-.404.362-.738.801-1.337,1.459h17.774ZM183.664,69.458c4.313.042,7.97-3.54,8.017-7.851.048-4.36-3.439-7.974-7.791-8.074-4.437-.102-8.145,3.529-8.14,7.97.005,4.344,3.556,7.914,7.914,7.956Z"/>
  </g>
</svg>