<?xml version="1.0" encoding="UTF-8"?>
<svg id="b" data-name="Layer 2" xmlns="http://www.w3.org/2000/svg" width="309.175" height="281.516" viewBox="0 0 309.175 281.516">
  <defs>
    <style>
      .d {
        fill: #bf3630;
      }
    </style>
  </defs>
  <g id="c" data-name="Layer 1">
    <g>
      <path class="d" d="M288.458,0c10.984,2.42,19.162,7.999,20.379,19.916.428,4.187,1.386,15.139-4.352,15.135-6.316-.004-3.977-8.362-4.631-12.95-1.428-10.022-7.424-12.573-16.751-13.348-66.976-.432-134.113.078-200.936.996-18.738.258-41.188-1.774-59.307-.077-13.575,1.271-14.567,15.318-12.981,26.648.767,5.48,8.882,10.882,13.583,13.604,10.05,5.82,18.355,5.124,29.397,6.528,5.097.648,11.841,2.71,16.7,2.813,8.971.19,50.53-26.488,63.552-30.616,9.023-2.86,19.741-.875,29.126-1.458-.511-8.011,1.024-8.337,8.209-8.789,16.043-1.009,33.755.323,49.896.679,3.641.675,3.819,4.555,4.07,7.581.404,4.865,1.368,16.842-3.864,18.542l-53.891.338-3.531-1.525-.889-7.128c-12.421-.508-21.053-1.292-32.699,3.722-14.254,6.137-28.192,16.104-43.038,21.54.101,1.328,1.417,1.541,2.376,1.979,3.974,1.814,24.322,9.934,27.147,9.648,4.995-.505,14.422-8.393,19.728-9.479,7.288-1.491,17.278.765,24.894-.351l1.429-1.482,1.131-7.124h58.744c3.358,4.603,2.897,13.357,2.464,18.966-.182,2.352-.223,6.293-2.865,6.815l-55.888.407c-5.616-1.055-2.357-8.489-3.979-8.727-7.036.806-16.3-1.139-23.016.235-4.734.969-10.337,6.442-15.269,7.562.307,2.346,1.7,3.72,1.971,6.268.581,5.456.651,18.957-.006,24.326-1.984,16.224-19.523,12.52-31.108,13.556-3.546,5.279-4.387,11.459-8.747,16.497-14.149,16.349-42,12.839-51.978-6.236-1.642-3.138-2.354-10.109-5.771-10.735-1.917-.351-16.137-.214-17.055.425l-1.771,12.601c-5.893,2.119-7.44-.311-7.922-5.697-3.175-35.418,2.379-75.669.153-111.595C2.684,9.265,9.377,2.97,19.5,0h268.958ZM214.665,28.157h-43.694v7.767h43.694v-7.767ZM10.762,66.994c6.457-.081,12.927,2.857,17.46-3.399l-17.46-10.194v13.593ZM24.841,76.703c-4.135.686-9.74-.496-14.079,0l-.005,9.714c17.018-2.829,16.984,11.438.005,8.733v20.389h17.963c4.811-9.9,7.553-18.368,18.074-23.677,20.981-10.587,41.694,2.404,47.136,23.721,13.955-.099,25.369,3.381,22.662-15.579h-18.934c-.207,0-1.902-.938-2.173-1.233-3.176-4.137.974-21.899-2.922-24.013-4.149-2.251-21.844-6.195-27.4-7.313-4.209-.847-23.9-4.35-26.268-2.891-1.102.679-1.485,3.176-2.465,4.324-2.641,3.095-7.535,7.15-11.595,7.824ZM214.665,64.081h-42.237l-1.304,1.607-.153,6.161h43.694v-7.767ZM116.597,90.287c-1.456-6.17-7.151-8.679-12.613-10.67l-.015,10.685,12.627-.015ZM60.101,97.321c-29.367,2.07-26.151,46.593,2.559,45.435,29.531-1.191,27.268-47.538-2.559-45.435Z"/>
      <path class="d" d="M185.536,207.778l8.229,38.861c1.483,1.98,19.641.324,24.604,1.612,15.664,4.064,15.776,30.843-5.12,32.388-37.937,2.805-79.267-2.215-117.568-.002-15.472-.62-20.853-21.081-8.692-30.131,7.621-5.671,20.42-1.757,29.562-2.969l7.813-39.759H18.044c-4.598,0-13.457-8.631-15.241-12.917-2.657-6.383-2.497-31.284-1.797-39.074.218-2.428.354-5.836,3.476-6.316,9.285-.301,2.723,10.192,6.765,14.615h287.406l1.456-1.456V49.032c0-3.074,8.739-3.074,8.739,0v140.784c0,6.298-10.713,17.962-16.992,17.962h-106.321ZM11.247,172.825c-1.971,0-1.625,8.441-1.489,10.231.718,9.433,4.367,14.705,14.109,15.987l261.234.038c9.879-.178,14.293-5.652,15.043-15.056.259-3.246.725-8.902-1.491-11.201H11.247ZM183.594,247.586l-7.044-37.134-1.684-2.199-39.837-.007-8.721,39.34h20.876c1.444,0,4.743,7.348-1.159,8.502-15.347,1.768-33.376-1.549-48.384.213-11.946,1.402-10.136,15.598.945,15.61l116.105-.512c9.703-4.279,7.485-14.1-3.386-15.112-7.583-.706-47.013,1.593-49.803-1.167-2.185-2.162-.666-7.534,2.188-7.534h19.905Z"/>
      <path class="d" d="M287.487,91.267l.522,60.234c-1.962,1.514-4.42,1.75-6.796,1.943-11.023.896-33.858,1.126-44.605-.156-4.812-.574-5.837-1.906-5.318-6.995.276-.833,2.741-2.596,3.278-2.596h45.15v-42.235l-1.456-1.456h-105.835l-1.456,1.456v42.235h45.15c3.31,0,7.104,8.289-2.036,9.615-9.817,1.424-34.184.914-44.603.131-2.074-.156-4.114-.465-6.037-1.242l-.241-60.934h124.284Z"/>
      <path class="d" d="M237.713,36.155c7.39-1.314,38.62-1.246,46.282-.136,5.299.767,8.253,5.496,3.906,8.573-4.808,3.404-42.877-.397-51.365,1.017-2.339-.437-4.564-2.84-4.444-5.265.226-2.606,3.396-3.794,5.621-4.189Z"/>
      <path class="d" d="M236.719,18.655c5.842-1.289,40.681-1.069,47.276-.113,8.063,1.168,7.641,8.765.111,9.632-9.199,1.06-36.563,1.148-45.564-.105-7.871-1.096-8.716-7.893-1.823-9.413Z"/>
      <path class="d" d="M264.67,108.744c4.76.786,3.602,8.738.971,8.738h-52.432c-3.074,0-3.074-8.738,0-8.738h51.461Z"/>
      <path class="d" d="M287.973,55.343c3.289,4.686,1.887,8.234-3.828,8.795-9.455.928-37.692,1.256-46.597-.122-6.529-1.01-5.428-8.673-2.008-8.673h52.432Z"/>
      <path class="d" d="M276.321,72.82c2.438.757,2.118,7.952-1.166,8.543-6.278-.504-38.981,1.814-41.804-1.007-2.096-2.094-.864-7.535,1.219-7.535h41.752Z"/>
      <path class="d" d="M253.018,126.221c5.065.847,2.879,8.738.971,8.738h-40.781c-2.554,0-3.696-7.463,0-8.738,11.995,1.42,28.387-1.91,39.81,0Z"/>
      <path class="d" d="M195.974,107.044c3.89,3.849-3.89,9.743-2.669,11.395,12.845.969,3.408,15.152-2.38,18.523-3.3,1.922-7.467.329-7.235-3.461.189-3.089,3.798-5.027,3.787-8.236-3.95-.898-7.576-2.193-6.646-7.067.655-3.433,10.506-15.741,15.144-11.153Z"/>
      <path class="d" d="M59.061,104.114c21.276-3.406,25.845,29.455,4.513,31.754-20.847,2.248-24.652-28.53-4.513-31.754ZM59.027,113.806c-5.262,1.578-5.228,10.641,0,12.207,12.238,3.665,12.23-15.875,0-12.207Z"/>
      <path class="d" d="M112.573,182.674c.24,2.156.951,6.705-1.452,7.492-6.232-.064-17.387,2.796-14.016-6.972,1.716-2.617,12.481-1.996,15.468-.52Z"/>
      <path class="d" d="M149.321,181.759c4.682-1.384,17.262-1.122,13.407,6.607-1.34,2.688-11.755,2.598-14.092,1.453-2.927-1.434-2.738-7.049.684-8.06Z"/>
      <path class="d" d="M174.566,181.759c4.682-1.384,17.262-1.122,13.407,6.607-1.34,2.688-11.755,2.598-14.092,1.453-2.927-1.434-2.738-7.049.684-8.06Z"/>
      <path class="d" d="M124.039,181.723c4.442-1.506,17.27-1.029,13.444,6.644-1.341,2.689-11.746,2.597-14.087,1.452-3.048-1.491-2.132-7.154.643-8.096Z"/>
      <path class="d" d="M197.327,189.195c-.539-2.534-.537-6.552,2.483-7.436,4.622-1.353,16.792-1.16,13.186,6.343-1.85,3.85-11.901,2.367-15.669,1.093Z"/>
    </g>
  </g>
</svg>