<?xml version="1.0" encoding="UTF-8"?>
<svg id="b" data-name="Layer 2" xmlns="http://www.w3.org/2000/svg" width="190.341" height="251.3" viewBox="0 0 190.341 251.3">
  <defs>
    <style>
      .d {
        fill: #bf3630;
      }
    </style>
  </defs>
  <g id="c" data-name="Layer 1">
    <g>
      <path class="d" d="M23.452.082l95.099-.082c7.495.505,12.514,3.94,17.851,8.758,7.611,6.871,14.838,14.287,22.285,21.346,7.322,6.941,15.052,13.606,22.182,20.731,5.508,5.504,8.976,11.275,9.472,19.298v156.111c-.793,13.602-9.86,23.827-23.611,25.055H23.61c-12.913-.989-22.621-10.701-23.61-23.617L.013,22.911C1.271,10.43,10.957,1.065,23.452.082ZM116.503,11.039H24.1c-6.318,0-12.748,6.578-13.036,12.856-.445,67.794-.447,135.718.001,203.509,1.296,8.796,7.138,12.628,15.661,13.106,46.569-.199,93.187.351,139.726-.278,6.442-.403,12.852-6.764,12.852-13.279V70.742h-49.018c-6.814,0-13.783-7.829-13.783-14.506V11.039ZM174.031,59.953L127.53,15.835v40.162c0,.724.947,2.276,1.559,2.756.644.505,2.596,1.2,3.355,1.2h41.588Z"/>
      <path class="d" d="M38.792,139.628l108.762-.08c7.455-.123,8.903,9.386,1.669,11.04H38.001c-6.665-1.359-6.132-10.589.79-10.96Z"/>
      <path class="d" d="M37.825,99.817l110.915-.06c7.26.902,6.668,10.704-.468,11.035H39.192c-7.042-.126-8.14-9.31-1.367-10.976Z"/>
      <path class="d" d="M38.065,179.661l37.544-.036c6.616.791,7.045,10.312-1.176,10.999-11.261.941-23.807-.671-35.201-.027-7.182-.146-8.258-9.524-1.167-10.936Z"/>
    </g>
  </g>
</svg>