<?xml version="1.0" encoding="UTF-8"?>
<svg id="b" data-name="Layer 2" xmlns="http://www.w3.org/2000/svg" width="245.438" height="334.914" viewBox="0 0 245.438 334.914">
  <defs>
    <style>
      .d {
        fill: #bf3630;
      }
    </style>
  </defs>
  <g id="c" data-name="Layer 1">
    <g>
      <path class="d" d="M172.933,0c13.408,1.303,13.299,12.215,19.158,20.56,1.002,1.427,1.73,1.752,3.449,1.913,10.777,1.011,32.967-2.481,41.622,2.278,4.285,2.356,6.738,6.347,7.669,11.101.81,87.636.806,175.553.002,263.194-.973,4.77-3.304,8.756-7.67,11.1-8.906,4.782-30.671,1.25-41.623,2.277-1.713.161-2.447.483-3.449,1.913-6.564,9.36-5.436,19.628-20.65,20.577h-97.885c-14.262-.93-14.329-10.779-20.249-20.307-1.017-1.636-1.938-2.016-3.849-2.184-10.796-.946-23.011.877-33.872.026-8.65-.678-14.977-6.904-15.586-15.585V38.034c.607-8.657,6.938-14.908,15.586-15.585,10.945-.857,23.371,1.04,34.206.025,1.746-.164,2.656-.575,3.576-2.122C58.609,11.536,59.553,1.252,72.399,0h100.533ZM59.88,303.17c.412.41,1.001,1.344,1.305,1.881,2.261,3.992,5.973,14.552,9.044,17.1,1.609,1.335,3.957,1.626,6.007,1.7,1.826.065,3.386-.353,5.028-.367,27.572-.231,55.233-.256,82.804,0,3.64.034,8.289,1.268,11.342-1.696,3.493-3.392,6.135-13.61,9.312-17.839,1.157-1.54,2.86-2.416,4.785-2.588,12.148-1.085,26.058,1.115,38.211.008,3.695-.336,5.864-1.547,6.218-5.512V39.041c-.371-4.149-2.716-5.23-6.536-5.53-12.142-.953-25.835,1.103-37.893.026-2.492-.223-3.817-1.249-5.114-3.265-2.819-4.382-5.564-13.389-8.633-16.842-.837-.942-2.449-1.83-3.696-2.002l-99.675.128c-.503.282-1.074.481-1.563.783-3.304,2.047-7.302,13.397-9.546,17.269-1.231,2.125-2.938,3.69-5.457,3.927-11.996,1.129-25.772-1.012-37.875-.008-5.133.426-6.537,2.11-6.89,7.187l.057,254.75c.396,3.682,2.182,5.47,5.864,5.867,12.281,1.323,26.933-1.273,39.167.041,1.324.142,2.8.868,3.733,1.797Z"/>
      <path class="d" d="M115.56,89.606c43.897-3.086,80.926,27.46,84.848,71.476,6.497,72.91-84.04,113.398-134.385,60.348-44.636-47.035-15.019-127.286,49.537-131.824ZM117.57,100.669c-49.687,3.402-78.187,59.698-51.677,102.119,25.389,40.629,83.679,42.323,111.334,3.151,32.678-46.287-3.675-109.103-59.657-105.27Z"/>
      <path class="d" d="M33.526,105.934c4.574.206,9.372-.272,13.921-.014,3.389.192,7.512.4,8.174,4.559.598,3.757-1.505,6.367-5.209,6.816-3.947.479-21.291.542-24.68-.379-2.626-.714-3.343-3.332-3.612-5.774V45.746c.283-2.917.696-5.312,3.85-6.205,64.379-.535,129.007-.525,193.396-.005,2.133.649,3.209,2.398,3.499,4.546l.014,67.397c-.062,3.866-2.239,5.504-5.885,5.846-5.432.51-15.632.449-21.118.018-.83-.065-2.066-.249-2.834-.518-5.105-1.79-4.593-9.137.574-10.483.223-.058,2.475-.409,2.607-.409h15.248v-55.313H33.526v55.313Z"/>
      <path class="d" d="M33.526,228.964v55.313h178.279v-55.313h-16.923c-.113,0-1.826-.491-2.085-.596-3.963-1.608-4.382-7.431-.93-9.796,1.143-.783,3.529-.935,5.01-1.022,5.518-.326,13.283-.333,18.796.002,3.118.189,5.894.346,6.962,3.763l.23,69.5c-.357,2.353-1.325,4.048-3.749,4.63l-191.468.243c-4.382-.393-5.234-2.921-5.529-6.873,1.088-20.944-1.402-43.277-.003-64.059.301-4.476,1.45-6.738,6.221-7.186,4.072-.382,19.991-.546,23.357.424,5.172,1.491,5.498,8.568.453,10.32-.382.133-2.472.647-2.704.647h-15.918Z"/>
      <path class="d" d="M40.061,195.441c5.279.876,6.178,8.389,1.403,10.455-2.1.908-11.533.883-14.1.571-4.137-.503-4.985-3.076-5.246-6.82,1.13-21.028-1.451-43.541,0-64.395.186-2.666.629-5.327,3.376-6.345,2.19-.811,11.92-.803,14.418-.362,4.84.855,6.51,7.193,2.442,9.853-.292.191-2.143,1.06-2.292,1.06h-6.032v55.984c1.851.214,4.271-.292,6.032,0Z"/>
      <path class="d" d="M211.47,195.441v-55.984h-6.87c-.149,0-2.261-1.313-2.519-1.596-2.586-2.841-1.553-7.871,2.202-9.113,1.955-.647,13.05-.619,15.044,0,2.068.642,3.49,2.632,3.55,4.829l-.163,68.923c-.522,2.121-2.32,3.59-4.456,3.923-2.38.372-11.834.357-13.917-.332-3.686-1.219-4.879-5.644-2.43-8.646.528-.647,2.257-2.004,3.023-2.004h6.535Z"/>
      <path class="d" d="M134.395,156.219h10.556c.607,0,3.063.968,3.636,1.391,2.012,1.482,2.43,4.379,1.281,6.546-11.243,17.796-21.029,37.686-32.76,55.059-.452.669-.975,1.657-1.481,2.206-3.392,3.68-9.26,1.587-9.717-3.349l4.691-39.392h-10.556c-.508,0-2.416-.728-2.959-1.062-2.497-1.536-2.815-4.725-1.622-7.209l33.293-55.867c3.205-5.068,10.577-3.061,10.675,2.976l-5.037,38.701ZM110.769,167.616h7.372c1.914,0,3.893,1.982,4.16,3.884.812,5.77-1.757,12.996-1.645,18.91l1.062-.778,13.007-21.519c.087-.683-.028-.436-.493-.498-1.138-.152-2.499.104-3.689-.003-5.412-.485-8.139-1.014-7.873-7.202.22-5.126,1.895-10.708,1.835-15.929l-14.075,22.471.339.664Z"/>
    </g>
  </g>
</svg>