<?xml version="1.0" encoding="UTF-8"?>
<svg id="b" data-name="Layer 2" xmlns="http://www.w3.org/2000/svg" width="246.832" height="255.554" viewBox="0 0 246.832 255.554">
  <defs>
    <style>
      .d {
        fill: #bf3630;
      }
    </style>
  </defs>
  <g id="c" data-name="Layer 1">
    <g>
      <path class="d" d="M.028,169.652c.419-5.962,2.392-17.212,3.953-23.021,1.063-3.956,3.957-7.267,7.798-8.745,4.864-1.872,9.676-.139,14.63-.235.895-2.197,1.131-4.643,2.032-6.838,3.021-7.363,10.081-4.095,16.186-3.938,1.645-5.37,2.001-11.805,9.197-11.868l9.232.91c1.2-3.895,1.175-8.631,4.453-11.49l19.651-11.996c.329-.521.566-1.172.615-1.787.123-1.536-.298-3.751-.253-5.523.788-30.682,23.066-54.032,53.115-57.893,3.007-.386,5.881.455,8.023-2.046,3.903-4.557,5.848-8.317,10.79-12.467,38.439-32.27,95.243,1.324,86.474,51-2.442,13.835-10.948,24.924-21.705,33.458.844,5.578,2.734,11.074,3.079,16.733,2.225,36.441-28.222,66.191-64.605,63.176-1.731-.143-4.632-1.023-6.186-.665-1.073.247-2.44,2.425-3.14,3.331-18.287,23.661-35.294,48.367-53.735,71.899-3.823,3.358-10.032,2.528-14.854,2.888-3.649.272-7.374.815-11.021.966-5.872.244-8.785-.135-10.61-6.192-1.443-4.789-5.191-19.975-4.832-24.358.789-9.624,9.632-11.626,17.367-13.802.019-3.322-1.41-7.217-.181-10.49,1.743-4.644,8.961-4.983,12.97-6.572-.252-3.196-1.385-7.168-.332-10.281,1.559-4.61,9.122-5.153,13.038-6.743-.091-3.231-1.264-6.718-.936-9.925.176-1.72,1.045-2.896,1.96-4.274,3.76-5.668,8.577-10.958,12.363-16.646.587-2.23-2.413-6.096-3.052-8.354-.332-.212-2.013.885-2.475,1.146-25.667,14.463-50.241,31.01-75.978,45.337-1.673.569-3.491.5-5.234.305-7.258-2.933-15.916-4.598-22.998-7.69-2.559-1.118-4.498-2.963-4.799-5.87-.044-.421-.03-1.008,0-1.439ZM191.051,8.833c-12.735.831-26.553,7.699-33.275,18.745.077.342,5.812,1.65,6.712,1.925,17.473,5.352,29.856,16.316,37.202,33.047.985,2.244,2.065,6.534,3.206,8.302.661,1.024,3.068,2.624,4.07,3.602,4.437,4.324,8.051,9.336,11.258,14.62,18.905-13.32,23.504-40.118,11.157-59.576-8.5-13.396-24.371-21.707-40.331-20.665ZM192.058,62.711c-14.004-28.369-52.601-36.15-77.069-16.058-13.015,10.687-19.304,25.52-18.835,42.324.122,4.384,1.735,6.768-2.648,9.8-5.614,3.883-17.722,8.64-20.721,14.283-2.155,4.055-.924,9.709-6.339,11.164-3.746,1.006-8.372-.463-12.235-.368-.75,4.345-1.573,10.912-7.073,11.508-3.481.377-7.422-.42-10.901-.717-1.952,7.141-1.723,12.152-10.687,11.755-2.948-.131-7.794-1.491-10.412-.602-1.994.677-2.305,1.546-2.808,3.425-1.183,4.413-1.878,10.034-2.637,14.626-.125.758-.976,5.299-.771,5.537l20.679,6.651,1.664-.445,76.764-45.989c.548-.504.757-.788.847-1.551.558-4.728-.509-10.611-.257-15.602,1.308-25.886,22.334-48.396,47.43-53.268,12.565-2.439,24.053-.421,36.009,3.525ZM197.597,98.177l15.083-3.932c.387-.277.127-.275.041-.519-.627-1.762-2.462-4.44-3.586-6.01-11.687-16.32-32.702-24.299-52.362-19.894-31.809,7.127-48.523,40.862-35.478,70.821,1.944,4.465,4.683,6.291,1.436,11.184-1.945,2.931-4.434,6.174-6.569,9.015-3.128,4.163-6.901,6.824-7.063,12.597-.107,3.823,2.368,7.816-.708,11.28-2.423,2.728-8.556,3.595-11.975,4.687.168,4.909,2.65,10.721-2.641,13.785-2.849,1.65-6.907,2.271-10.052,3.252.267,5.127,2.656,11.081-3.063,14.082-3.11,1.631-11.354,2.594-13.072,5.149-.821,1.221-.765,2.402-.605,3.818.641,5.678,3.27,12.02,4.021,17.798.44,1.818,1.685,1.637,3.236,1.579,2.393-.09,5.009-.573,7.424-.726,3.324-.211,10.644.242,12.954-1.91l55.257-74.214c4.05-4.624,6.554-2.328,11.653-1.598,32.446,4.646,59.134-23.041,57.156-55.006-.228-3.687-1.47-7.255-1.929-10.899l-19.828,4.265c-1.536,1.388-2.157,3.447-3.542,5.089-7.478,8.864-22.071,7.209-27.646-2.807-5.049-9.072-.941-20.597,8.761-24.233,10.519-3.942,20.887,2.757,23.101,13.348ZM188.224,97.957c-1.83-5.047-8.224-7.818-12.464-3.711l12.464,3.711ZM186.305,106.353l-13.901-3.838c.849,5.542,7.627,8.244,12.306,5.477.248-.147,1.841-1.372,1.595-1.639Z"/>
      <path class="d" d="M141.421,155.573c3.232-.355,3.593.919,5.215,3.303l-.565,1.826c-18.04,25.207-36.999,49.813-55.429,74.761-3.287,3.741-9.171.328-7.233-4.356l54.956-74.035c.734-1.056,1.825-1.364,3.055-1.499Z"/>
      <path class="d" d="M99.916,124.491l-67.279,40.49-4.199,1.947c-.431-.025-3.08-2.322-3.296-2.853-.613-1.504.232-4.515,1.512-5.559l68.215-40.873c4.693-1.904,8.241,3.011,5.048,6.848Z"/>
    </g>
  </g>
</svg>