<?xml version="1.0" encoding="UTF-8"?>
<svg id="b" data-name="Layer_2" xmlns="http://www.w3.org/2000/svg" width="239.583" height="239.608" viewBox="0 0 239.583 239.608">
  <defs>
    <style>
      .d {
        fill: #ad1e29;
      }
    </style>
  </defs>
  <g id="c" data-name="Layer_1">
    <g>
      <path class="d" d="M97.968,219.648c1.526,3.946,2.853,7.515,4.325,11.024.197.469,1.121.896,1.71.899,10.565.054,21.13.064,31.694-.022.65-.005,1.52-.759,1.899-1.395,1.405-2.36,3.146-3.147,5.339-2.183,2.205.97,2.905,2.822,1.994,5.405-.414,1.174-.89,2.327-1.37,3.476-.748,1.79-2.081,2.754-4.051,2.755-13.144.002-26.287.002-39.431,0-2.215,0-3.496-1.208-4.249-3.2-1.851-4.893-3.778-9.757-5.604-14.66-.504-1.354-1.058-2.146-2.75-2.212-2.163-.085-3.555-1.561-3.584-3.76-.088-6.737-.095-13.476-.004-20.212.036-2.634,1.67-3.87,4.754-3.876,9.899-.019,19.799-.008,29.698-.008,8.818,0,17.636,0,26.454,0,.895,0,1.789,0,2.95,0,0-3.77.08-7.323-.027-10.871-.074-2.452.929-3.988,3.047-5.214,18.111-10.48,28.881-26.094,32.27-46.731,5.423-33.023-18.45-66.253-51.584-71.892-35.038-5.964-67.081,15.731-74.305,50.309-5.541,26.522,7.163,54.371,31.009,67.977,3.804,2.17,4.737,4.041,3.26,6.534-1.437,2.425-3.439,2.554-7.144.459-26.423-14.934-40.712-45.413-35.248-75.188,5.53-30.134,29.278-53.387,59.468-58.225,40.801-6.539,79.047,22.72,82.701,63.925,2.58,29.095-9.164,51.718-33.372,67.89-1.607,1.073-2.147,2.1-2.13,3.959.09,9.898.049,19.797.039,29.696-.004,4.033-1.325,5.337-5.413,5.338-16.388.007-32.776.003-49.164.003h-3.179ZM147.57,211.503v-11.649h-55.601v11.649h55.601Z"/>
      <path class="d" d="M87.566,95.8c-1.554,2.681-3.047,5.255-4.69,8.088,2.34,2.074,4.609,4.232,7.039,6.191,2.04,1.645,2.631,3.543,2.309,6.131-.314,2.523-.251,5.139.02,7.674.236,2.209-.259,3.864-1.957,5.294-2.474,2.082-4.858,4.271-7.404,6.524,1.565,2.719,3.085,5.36,4.675,8.124,3.256-1.083,6.41-2.069,9.516-3.189,1.914-.69,3.474-.315,5.139.798,2.335,1.56,4.743,3.084,7.299,4.217,2.248.997,3.365,2.482,3.76,4.808.513,3.016,1.165,6.009,1.808,9.271,2.805,0,5.529.079,8.241-.07.515-.028,1.272-.891,1.419-1.491.654-2.659,1.164-5.355,1.651-8.051.388-2.151,1.549-3.451,3.57-4.389,2.54-1.179,4.971-2.655,7.284-4.242,1.739-1.193,3.363-1.561,5.36-.835,3.037,1.104,6.125,2.065,9.387,3.151,1.548-2.67,3.075-5.305,4.695-8.099-2.433-2.15-4.73-4.296-7.154-6.286-1.861-1.527-2.46-3.299-2.222-5.695.259-2.62.222-5.3.002-7.928-.181-2.169.212-3.877,1.936-5.318,2.483-2.076,4.86-4.278,7.438-6.563-1.555-2.695-3.078-5.334-4.675-8.101-3.244,1.077-6.398,2.062-9.503,3.179-1.915.689-3.47.298-5.137-.806-2.41-1.595-4.919-3.08-7.523-4.327-1.911-.915-3.045-2.164-3.424-4.222-.496-2.695-1.172-5.36-1.571-8.068-.21-1.423-.846-1.73-2.137-1.705-3.408.068-6.819.047-10.228.014-3.024-.029-4.663-1.453-4.676-3.976-.013-2.531,1.63-3.992,4.631-4.01,4.906-.029,9.813-.032,14.72.001,2.798.019,4.042,1.062,4.642,3.848.683,3.166,1.232,6.363,2.012,9.503.204.821,1.001,1.53,1.626,2.197.322.343.94.397,1.293.724,3.277,3.027,6.747,2.595,10.437.816,1.631-.786,3.462-1.15,5.189-1.744,2.121-.73,3.829-.122,4.935,1.743,2.71,4.573,5.36,9.183,7.945,13.827,1.134,2.036.522,3.846-1.183,5.338-2.378,2.08-4.828,4.087-7.083,6.293-.71.695-1.073,1.893-1.284,2.925-1.058,5.167,1.399,8.491,5.368,11.625,6.054,4.779,5.851,5.04,1.951,11.8-1.743,3.022-3.478,6.05-5.244,9.059-1.66,2.829-3.069,3.344-6.218,2.314-1.184-.387-2.352-.82-3.531-1.221-6.751-2.294-6.769-2.322-12.886,1.369-.651.393-1.171,1.332-1.357,2.111-.731,3.068-1.286,6.178-1.94,9.265-.629,2.966-1.832,4.017-4.748,4.039-4.906.037-9.813.041-14.72-.002-2.788-.025-4.007-1.083-4.609-3.896-.678-3.167-1.221-6.365-2-9.505-.204-.821-1.027-1.514-1.643-2.195-.261-.288-.788-.324-1.08-.597-3.426-3.207-6.97-2.341-10.913-.851-8.213,3.103-7.975,3.504-12.505-4.589-1.582-2.827-3.249-5.607-4.847-8.425-1.618-2.854-1.356-4.324,1.137-6.53,2.242-1.983,4.584-3.863,6.707-5.965.704-.697,1.04-1.906,1.249-2.94,1.042-5.149-1.338-8.495-5.334-11.632-6.071-4.766-5.859-5.036-1.961-11.793,1.66-2.878,3.316-5.759,4.983-8.634,1.931-3.332,3.154-3.812,6.718-2.616,2.676.898,5.368,1.757,8.006,2.758,1.449.55,2.613.538,3.896-.483,1.156-.92,2.502-1.661,3.864-2.249,2.059-.889,4.118-.058,5.074,1.843.973,1.936.421,3.944-1.469,5.206-2.001,1.336-3.915,2.87-6.073,3.874-1.281.596-3.057.727-4.44.384-3.198-.794-6.292-2.005-9.559-3.09Z"/>
      <path class="d" d="M103.809,119.577c.088-8.756,7.433-15.86,16.269-15.736,8.646.121,15.73,7.386,15.683,16.084-.047,8.768-7.346,15.934-16.156,15.864-8.769-.07-15.885-7.373-15.796-16.212ZM111.813,119.638c-.086,4.409,3.343,8.025,7.724,8.146,4.479.124,8.184-3.449,8.213-7.921.029-4.39-3.474-7.963-7.861-8.02-4.405-.057-7.991,3.404-8.076,7.795Z"/>
      <path class="d" d="M181.732,19.822c-.203.521-.431,1.414-.872,2.184-3.841,6.702-7.702,13.393-11.597,20.064-1.45,2.483-3.45,3.131-5.603,1.95-2.246-1.232-2.753-3.401-1.278-5.976,3.881-6.774,7.804-13.525,11.717-20.281,1.029-1.776,2.582-2.66,4.596-2.146,1.877.479,2.887,1.852,3.036,4.206Z"/>
      <path class="d" d="M199.665,161.676c.507.213,1.455.502,2.294.982,6.616,3.787,13.22,7.596,19.809,11.429,2.575,1.498,3.265,3.572,2.014,5.753-1.253,2.185-3.396,2.628-6.004,1.135-6.759-3.871-13.499-7.775-20.238-11.68-1.752-1.015-2.678-2.498-2.133-4.562.499-1.893,1.797-2.912,4.258-3.057Z"/>
      <path class="d" d="M18.603,182.187c-.948-.979-2.366-1.912-2.994-3.223-.819-1.708-.197-3.454,1.559-4.494,3.425-2.027,6.879-4.007,10.324-6.001,3.445-1.995,6.873-4.02,10.347-5.962,2.472-1.381,4.675-.931,5.887,1.069,1.298,2.14.647,4.37-1.876,5.843-6.732,3.93-13.495,7.808-20.264,11.673-.698.399-1.526.57-2.982,1.095Z"/>
      <path class="d" d="M44.318,73.007c-.035,3.705-3.049,5.871-5.586,4.476-7.275-4-14.452-8.181-21.602-12.403-1.88-1.11-2.219-3.45-1.129-5.28,1.115-1.872,3.319-2.528,5.439-1.355,4.723,2.614,9.376,5.353,14.055,8.045,2.159,1.243,4.404,2.367,6.431,3.798,1.119.79,1.869,2.104,2.391,2.719Z"/>
      <path class="d" d="M224.146,62.679c-.388.514-.967,1.947-2.025,2.58-6.908,4.136-13.895,8.142-20.911,12.093-2.122,1.195-4.207.475-5.349-1.519-1.14-1.99-.689-4.1,1.451-5.359,6.939-4.084,13.899-8.138,20.939-12.047,2.791-1.549,5.809.326,5.896,4.252Z"/>
      <path class="d" d="M123.79,16.131c0,3.732.024,7.464-.008,11.195-.025,2.981-1.494,4.637-4.006,4.624-2.503-.013-3.967-1.672-3.978-4.664-.027-7.546-.028-15.093,0-22.639C115.809,1.715,117.352-.011,119.812,0c2.45.011,3.948,1.741,3.971,4.688.03,3.814.007,7.629.007,11.444Z"/>
      <path class="d" d="M78.29,40.702c-.92,1.033-1.708,2.607-2.927,3.086-1.131.445-2.77-.129-4.086-.558-.573-.187-.955-1.101-1.325-1.741-3.697-6.384-7.388-12.772-11.048-19.178-1.597-2.795-1.228-4.994.958-6.28,2.17-1.276,4.337-.478,5.932,2.265,3.707,6.379,7.394,12.769,11.061,19.172.484.845.8,1.787,1.436,3.234Z"/>
      <path class="d" d="M16.054,123.811c-3.817,0-7.634.03-11.45-.01C1.629,123.77-.023,122.276,0,119.758c.024-2.511,1.671-3.933,4.682-3.941,7.551-.02,15.101-.022,22.652.001,2.975.009,4.624,1.493,4.6,4.019-.023,2.511-1.663,3.937-4.679,3.965-3.733.035-7.468.008-11.201.008Z"/>
      <path class="d" d="M223.685,115.811c3.817,0,7.634-.028,11.45.009,2.811.028,4.416,1.485,4.447,3.923.032,2.439-1.574,4.03-4.338,4.048-7.716.049-15.433.045-23.149.005-2.816-.014-4.414-1.51-4.446-3.944-.033-2.537,1.607-4.012,4.585-4.035,3.817-.03,7.633-.007,11.45-.007Z"/>
    </g>
  </g>
</svg>