<?xml version="1.0" encoding="UTF-8"?>
<svg id="b" data-name="Layer 2" xmlns="http://www.w3.org/2000/svg" width="413.911" height="279.103" viewBox="0 0 413.911 279.103">
  <defs>
    <style>
      .d {
        fill: #bf3630;
      }
    </style>
  </defs>
  <g id="c" data-name="Layer 1">
    <path class="d" d="M208.392,278.972c-1.356-.151-4.631-1.082-6.082-1.554-3.177-1.035-7.507-4.343-10.112-4.577-5.245-.472-10.478,5.34-17.144,5.54-12.176.366-26.567-13.046-27.773-25.042-16.496,6.049-32.445-7.338-36.023-22.932-19.69,6.154-41.099-14.687-34.237-34.432-16.919-3.028-31.965-22.764-21.882-39.253.949-1.551,4.776-5.26,4.08-6.457l-11.528-5.566c-1.969,6.326-3.88,13.981-6.608,19.954-2.285,5.002-4.351,5.818-9.926,4.795-3.641-.668-25.528-8.068-28.037-9.836-5.665-3.992-3.067-11.997,3.391-12.446,5.488-.381,17.523,6.145,23.445,7.301l39.678-113.78L4.709,12.767C-1.252,9.373.2.048,7.654,0c1.66-.011,3.445.652,5.008,1.16,22.765,7.405,46.316,21.01,69.057,29.288,5.463,2.689,2.561,8.163,2.632,12.934l42.985,8.64c6.08,3.525,3.911,12.351-2.942,12.761l-45.533-8.576-26.211,74.772,18.042,9.291c19.769-7.755,38.321,2.789,40.602,23.9,18.159-.622,29.665,9.801,32.905,27.253,16.93.972,29.13,10.922,31.179,28.081,21.146-2.23,39.635,22.818,25.76,41.478,8.11,7.365,23.516,4.56,21.864-8.51-.609-4.822-5.593-9.216-2.39-14.09,1.976-3.008,5.116-3.968,8.576-3.064,5.084,1.328,13.882,7.931,19.728,10.196,6.419,2.487,13.771,3.972,18.035-2.958,7.89-12.826-10.479-18.905-17.911-25.241-7.51-6.403-4.347-15.534,5.622-12.939,11.801,5.383,22.587,13.443,34.362,18.777,4.991,2.261,7.561,3.072,12.663.39,7.24-3.806,8.872-13.77,2.593-19.29-6.52-5.733-19.742-10.809-25.334-16.808-5.969-6.403-.423-13.898,8.87-10.691,13.218,4.562,28.536,15.193,41.955,20.959,1.549.666,4.666,2.266,6.06,2.491,13.824,2.229,20.234-13.917,9.145-21.949-8.812-6.383-22.436-12.098-32.279-17.807-25.618-14.858-50.605-30.855-75.887-46.268-5.972-5.18-1.189-14.216,6.431-11.911,32.774,19.636,64.656,40.833,98.792,58.178l2.008.123c.592-.567,1.476-13.316,1.976-15.425,1.474-6.22,11.406-6.891,12.035-8.769l-27.49-80.148c-.995-.723-20.508,5.903-23.758,6.413-8.172,1.281-7.593-2.743-13.062-5.325-1.482-.7-3.093-1.039-4.671-1.438-14.807-3.742-33.446-6.116-48.792-8.637-10.197-1.675-24.172-6.019-33.431-1.428l-52.854,33.875-14.057,42.094c.441,3.154,7.358,5.442,10.164,5.765,12.012,1.382,18.096-5.19,22.523-15.213,2.728-6.177,3.826-16.412,10.577-18.731,5.865-2.015,23.038-5.635,29.235-6.197,4.245-.385,8.915-.536,10.209,4.308,1.138,4.259-.879,7.431-4.941,8.887-7.303,2.618-17.261,3.016-24.733,5.202-.884.258-2.223.792-2.877,1.399-1.742,1.616-4.678,11.458-6.232,14.526-9.581,18.921-31.188,26.005-49.605,14.321-5.442-3.452-9.538-6.795-8.992-13.652.997-12.52,12.668-31.482,14.222-44.991,2.359-5.49,5.983-9.082,10.773-12.432,14.071-9.841,32.921-21.72,47.794-30.385,9.862-5.746,15.779-5.848,27.053-4.542,24.922,2.888,51.205,9.754,75.758,14.66,2.541,2.637,4.237,3.378,7.993,2.898,1.412-.18,15.013-3.993,15.639-4.513,1.416-1.175-.667-6.367.122-9.041.549-1.861,3.936-3.372,5.571-4.198,22.239-11.227,49.198-18.073,71.919-28.866,8.546-3.943,14.871,7.031,7.129,11.999l-69.474,27.969,39.73,113.513c7.684-2.19,15.296-6.308,22.885-8.568,3.412-1.016,5.186-1.994,8.473.125,4.274,2.754,4.002,9.055-.388,11.613-4.283,2.496-28.014,11.536-32.78,12.417-10.953,2.026-10.618-12.608-14.119-19.827-5.843-.859-6.444,12.876-6.07,16.744.714,7.396,6.658,12.195,7.318,19.54,1.158,12.879-9.828,26.69-22.884,27.789-7.897.665-12.776-1.757-19.878-4.292.587,10.157-3.457,19.348-12.035,24.905-9.17,5.94-18.073,5.359-27.683.73.616,17.587-15.085,29.088-31.914,25.462-4.977-1.072-8.745-3.928-13.303-5.327-.449,12.142-10.794,21.882-22.613,23.195-1.571.174-4.54.175-6.11,0ZM81.736,150.944c-4.096.852-16.248,12.834-16.247,17.253,0,4.977,8.583,13.656,13.666,13.654,4.338-.002,16.041-10.908,17.441-14.843,2.55-7.167-7.646-17.565-14.86-16.064ZM114.74,177.797c-1.809.313-3.339,1.503-4.733,2.601-4.232,3.335-13.627,12.851-17.118,17.081-4.111,4.981-5.384,7.3-1.192,12.816,3.731,4.908,10.488,10.43,16.429,5.455l20.874-21.263c3.384-7.308-7.516-17.858-14.26-16.69ZM147.135,205.272c-.809.044-2.571.58-3.339.944-2.794,1.324-17.43,15.755-18.226,18.409-1.841,6.139,4.589,13.558,10.121,15.573,4.145,1.51,6.346.075,9.711-2.476,2.893-2.193,11.015-10.201,13.204-13.056,1.968-2.567,2.926-4.891,1.967-8.064-1.41-4.666-8.327-11.607-13.437-11.331ZM176.45,233.34c-1.049.218-2.314,1.048-3.19,1.691-1.8,1.322-9.471,8.918-10.701,10.673-2.309,3.295-2.225,5.568-.495,9.049,2.642,5.315,9.494,11.232,15.578,8.453,2.33-1.064,11.465-9.767,13.035-11.999,3.605-5.126.561-9.908-3.369-13.734-3.049-2.968-6.411-5.056-10.858-4.133Z"/>
  </g>
</svg>