<?xml version="1.0" encoding="UTF-8"?>
<svg id="b" data-name="Layer_2" xmlns="http://www.w3.org/2000/svg" width="255.616" height="255.399" viewBox="0 0 255.616 255.399">
  <defs>
    <style>
      .d {
        fill: #ad1e29;
      }
    </style>
  </defs>
  <g id="c" data-name="Layer_1">
    <g>
      <path class="d" d="M180.506,255.399c-13.139-.327-26.205-3.685-38.728-9.127-49.76-21.627-88.315-56.207-116.945-102.017C14.439,127.621,6.286,109.9,1.874,90.658c-2.103-9.17-2.746-18.42-.303-27.651,1.257-4.752,3.681-8.905,7.148-12.392,6.628-6.667,13.253-13.338,19.984-19.901,5.633-5.491,12.194-8.279,19.929-5.031,2.905,1.22,5.675,3.206,7.946,5.418,9.774,9.518,19.357,19.234,28.975,28.911,4.618,4.647,7.873,9.898,6.883,16.852-.717,5.037-3.611,8.846-7.062,12.308-5.639,5.656-11.323,11.268-16.971,16.915-2.792,2.791-2.861,3.634-1.244,7.257,6.466,14.495,16.375,26.555,27.014,38.069,10.483,11.347,22.016,21.516,35.129,29.748,4.491,2.82,9.333,5.079,14.001,7.62,2.277,1.239,3.926.243,5.512-1.358,5.855-5.91,11.719-11.812,17.621-17.676,3.471-3.449,7.309-6.225,12.401-6.84,4.83-.584,9.011.881,12.817,3.674,1.269.931,2.452,2,3.57,3.112,9.612,9.566,19.199,19.157,28.795,28.739,3.104,3.099,5.717,6.53,6.669,10.908,1.214,5.58-.102,10.79-3.887,14.866-7.409,7.98-15.005,15.813-22.912,23.296-6.27,5.934-14.271,7.891-23.383,7.895Z"/>
      <path class="d" d="M255.616,119.723c-6.514,1.118-12.869,2.208-19.109,3.279-13.501-57.552-49.037-92.109-107.243-103.953.855-6.144,1.754-12.598,2.652-19.049,55.159,6.576,111.478,50.753,123.7,119.723Z"/>
      <path class="d" d="M126.688,70.333c.118-1.118.198-2.189.349-3.25.759-5.331,1.536-10.659,2.305-15.978,33.575,3.622,67.525,31.382,74.442,72.001-6.396,1.107-12.797,2.215-19.296,3.34-7.234-31.039-26.388-49.672-57.8-56.112Z"/>
    </g>
  </g>
</svg>