<?xml version="1.0" encoding="UTF-8"?>
<svg id="b" data-name="Layer 2" xmlns="http://www.w3.org/2000/svg" width="299.561" height="299.524" viewBox="0 0 299.561 299.524">
  <defs>
    <style>
      .e {
        fill: #bf3630;
      }
    </style>
  </defs>
  <g id="c" data-name="Layer 1">
    <g id="d" data-name="c">
      <path class="e" d="M120.438,149.411c-2.428-1.609-4.087-2.356-5.292-3.559C79.351,110.133,43.635,74.336,7.813,38.643,1.571,32.423-1.399,25.279.663,16.631,4.428.84,23.392-5.26,35.834,5.187c1.439,1.208,2.741,2.582,4.072,3.914,35.249,35.24,70.496,70.482,105.725,105.742,1.225,1.226,2.26,2.643,3.726,4.376,1.661-1.58,2.896-2.705,4.076-3.885,35.864-35.855,71.751-71.687,107.555-107.601,6.612-6.632,14.195-9.414,23.278-6.689,13.912,4.175,19.714,20.72,11.562,32.754-1.367,2.018-3.112,3.812-4.845,5.547-35.431,35.468-70.883,70.915-106.348,106.35-1.221,1.22-2.61,2.273-4.248,3.687,1.598,1.676,2.737,2.92,3.927,4.111,35.855,35.864,71.686,71.752,107.602,107.554,6.129,6.109,8.968,13.187,7.04,21.653-3.562,15.634-22.137,22.004-34.726,12.043-1.583-1.253-2.988-2.74-4.422-4.173-35.353-35.341-70.704-70.684-106.02-106.063-1.21-1.213-2.053-2.793-3.252-4.459-2.104,1.997-3.362,3.138-4.561,4.337-35.759,35.748-71.543,71.472-107.239,107.283-6.458,6.479-13.844,9.467-22.82,6.988-15.313-4.229-20.961-22.688-10.771-34.863,1.206-1.44,2.582-2.741,3.913-4.073,35.343-35.351,70.687-70.702,106.054-106.028,1.208-1.207,2.669-2.162,5.324-4.282h.002Z"/>
    </g>
  </g>
</svg>