<?xml version="1.0" encoding="UTF-8"?>
<svg id="b" data-name="Layer_2" xmlns="http://www.w3.org/2000/svg" width="333.894" height="297.162" viewBox="0 0 333.894 297.162">
  <g id="c" data-name="Layer_1">
    <g>
      <path d="M333.819,104.952c-.032-1.954-.063-3.906-.072-5.854-.016-3.502-2.357-5.735-6.111-5.826-1.079-.026-2.159-.02-3.348-.014h-.256s.003-1.446.003-1.446c.006-2.041.012-3.944-.013-5.847-.033-2.508-.745-4.503-2.059-5.77-1.053-1.015-2.435-1.536-4.062-1.493-3.559.085-5.823,2.814-5.908,7.123-.04,2-.03,4.038-.021,6.01.002.401.004.804.006,1.208h-5.007v-4.467c0-4.459-.641-6.99-2.143-8.465-.991-.973-2.314-1.426-3.999-1.399-5.209.096-5.928,4.716-5.929,9.694v4.842c-.737-.002-1.391-.002-2.043.004-5.671.054-7.686,2.037-7.699,7.579l-.009,3.099c-.017,5.353-.033,10.887.02,16.334.104,10.701,6.603,19.733,16.557,23.011,1.531.504,1.741.793,1.732,2.376-.069,12.368-.062,24.94-.055,37.099l.005,12.093c0,2.201.004,4.402.008,6.604.01,5.362.02,10.908-.035,16.356-.044,4.339-2.871,7.917-6.438,8.144-4.408.281-8.807.221-13.468.157-1.537-.021-3.09-.043-4.662-.052,0-.857,0-1.665-.002-2.472-.016-3.931.002-7.862.02-11.794.038-8.77.078-17.837-.265-26.757-.621-16.116-12.361-29.617-28.55-32.831-1.768-.351-2.255-.839-2.61-2.612-3.47-17.311-7.028-34.421-10.356-50.332-2.204-10.539-9.988-16.833-20.822-16.838-51.238-.021-102.479-.022-153.722.002-10.766.005-18.521,6.333-20.746,16.929-1.7,8.095-3.376,16.195-5.052,24.295-1.771,8.564-3.544,17.129-5.344,25.687-.06.283-.103.571-.145.859-.175,1.201-.222,1.523-1.298,1.776C10.372,156.552.029,169.608.012,189.717c-.018,20.674-.012,41.348-.006,62.021l.003,12.404c.002,6.92,1.778,8.711,8.638,8.712h78.365c-.002.341-.005.674-.008,1.003-.014,1.732-.027,3.369.032,5.002.132,3.605,2.286,5.768,5.909,5.934,1.008.046,2.019.058,3.018.058.537,0,1.071-.003,1.598-.007.53-.003,1.061-.007,1.59-.007h7.05c25.809.002,51.619.004,77.426-.001,6.34-.001,8.179-1.809,8.195-8.058.003-1.153.003-2.306.002-3.567v-.354h22.059c18.9.001,37.796.001,56.693-.003,6.293-.001,8.216-1.902,8.231-8.134.004-1.812.012-3.625.021-5.438.027-6.287.056-12.788-.073-19.187-.025-1.282.199-1.601.27-1.668.068-.066.39-.273,1.649-.205,1.799.099,3.611.06,5.362.023,2.05-.043,3.983-.084,5.918.073,6.543.534,12.526-1.41,16.822-5.476,4.619-4.371,7.057-10.822,6.863-18.164-.421-15.991-.329-32.276-.24-48.025.038-6.735.076-13.472.076-20.206v-2.46c.188-.067.375-.134.562-.201.572-.204,1.144-.407,1.709-.628,9.173-3.573,14.548-10.034,15.542-18.684.744-6.475.636-13.108.531-19.523ZM322.11,105.436c-.081,1.671-.132,3.342-.181,4.97-.149,4.987-.29,9.698-1.228,14.298-1.181,5.798-7.64,8.506-12.941,7.689-6.029-.928-10.343-5.67-10.488-11.532-.101-4.008-.055-8.101-.01-12.06.013-1.122.025-2.244.034-3.366h24.813ZM191.797,254.917c-.092-3.636-2.291-5.892-6.034-6.187-.681-.053-1.338-.043-1.976-.033-.243.004-.487.008-.73.008h-8.737s-78.645,0-78.645,0c-6.967,0-8.67,1.686-8.678,8.589v3.257H12.327v-22.275l12.362.004c7.183.005,14.361.009,21.541-.019,4.805-.019,6.963-2.162,6.999-6.949.038-5.158.069-10.658-.005-16.211-.148-11.031-8.291-19.173-19.361-19.358-4.486-.075-9.041-.058-13.447-.04-1.998.008-3.984.017-5.996.016h-2.763c.122-1.435.213-2.853.302-4.237.267-4.143.519-8.057,1.512-11.74,2.48-9.192,11.01-15.701,21.225-16.197,1.098-.053,2.308-.079,3.809-.079h52.641c49.77,0,99.539,0,149.31-.022h.036c4.442,0,9.131.324,13.335,2.645,7.692,4.245,11.96,10.589,12.686,18.854.229,2.608.171,5.255.109,8.057-.019.868-.038,1.745-.049,2.633-.57.043-1.116.078-1.651.079-2.529.007-5.055.003-7.583,0-3.949-.007-7.897-.013-11.845.022-11.619.103-19.803,8.253-19.9,19.821-.049,5.67-.027,11.291-.002,15.553.029,5.068,2.089,7.143,7.107,7.158,7.471.024,14.941.02,22.414.016l11.455-.003v22.335h-74.753c0-.258.002-.515.004-.77.01-1.693.02-3.292-.021-4.926ZM12.229,207.771h5.546c1.535,0,3.167-.006,4.751-.013,3.516-.014,7.153-.028,10.72.034,5.121.09,7.859,2.881,7.921,8.072.031,2.641.023,5.281.016,7.979-.002.733-.004,1.47-.005,2.212H12.229v-18.285ZM238.023,213.05c.35-2.908,2.663-4.94,5.755-5.056,5.652-.211,11.204-.17,17.084-.126,1.891.014,3.788.028,5.696.033v18.166h-28.678c-.015-.996-.042-1.992-.068-2.988-.093-3.479-.182-6.765.211-10.029ZM178.034,144.225c3.158-3.582,7.838-5.874,12.518-6.13,4.358-.24,8.824,1.41,12.244,4.525,2.688,2.449,4.396,5.477,4.911,8.659h-32.963c.205-2.388,1.344-4.846,3.29-7.054ZM220.249,151.18c-4.811-16.488-14.771-25.174-28.879-25.174-.177,0-.356.001-.535.004-11.998.185-25.333,8.052-28.642,25.176H43.328l1.271-6.195c1.448-7.058,2.876-14.019,4.309-20.978.569-2.767,1.144-5.531,1.718-8.297.871-4.193,1.742-8.388,2.596-12.585,1.317-6.479,3.997-8.666,10.619-8.667,50.471-.005,100.941-.005,151.414.001,6.064,0,8.866,2.068,9.994,7.372,2.536,11.934,5.033,24.087,7.448,35.84.902,4.393,1.805,8.785,2.712,13.176.021.108.042.216.062.326h-15.222ZM179.627,260.971v11.587h-80.335v-11.587h80.335Z"/>
      <path d="M71.95,69.533c59.947.023,108.584.014,153.06-.03h.013c2.033,0,3.137.48,4.371,1.9,8.187,9.417,19.685,14.604,32.066,14.604,1.487,0,2.989-.075,4.497-.227,14.09-1.414,26.129-9.211,33.03-21.391,2.195-3.874,1.718-6.306.931-7.663-.777-1.34-2.611-2.94-6.94-2.958-2.05-.009-4.1,0-6.149.009-3.386.015-6.892.029-10.329-.038-6.468-.125-11.104-4.728-11.022-10.944.077-6.021,4.761-10.433,11.136-10.491,5.184-.048,10.237-.029,15.834-.002h.267c2.354.017,5.255.036,7.041-2.946,1.907-3.187.331-5.879-.936-8.043l-.059-.101c-7.032-12.022-19.038-19.68-32.938-21.009-13.96-1.335-27.262,3.948-36.508,14.493-1.19,1.358-2.269,1.807-4.091,1.81-20.396-.058-41.132-.053-61.187-.049l-16.154.002c-7.687.006-15.386-.005-23.079-.011-17.571-.013-35.743-.026-53.617.032-9.23.03-17.468,4.131-22.599,11.25-4.914,6.818-6.187,15.415-3.492,23.587,3.761,11.401,13.8,18.21,26.855,18.216ZM237.285,24.021c5.269-6.889,12.96-11.103,21.656-11.863,8.67-.758,17.3,2.177,23.688,8.051.037.034.073.067.108.102-.324-.009-.646-.018-.963-.027-2.893-.082-5.625-.16-8.304.166-12.169,1.481-20.591,11.603-20.024,24.067.516,11.385,10.199,20.72,22.045,21.251,2.209.099,4.444.075,6.811.05.083,0,.167-.002.251-.003-2.209,2.143-4.755,3.836-7.944,5.315-13.081,6.067-28.798,2.194-37.379-9.204-2.392-3.177-5.104-4.474-9.362-4.474h-.031c-46.201.071-93.175.062-138.603.054l-17.075-.003c-7.646-.001-12.772-3.026-15.236-8.99-1.801-4.36-1.438-9.105.993-13.02,2.531-4.075,6.858-6.606,11.872-6.944.84-.057,1.685-.05,2.584-.043l.875.005,28.38-.003c41.403-.006,84.218-.011,126.325.065,4.103.014,6.855-1.312,9.334-4.552Z"/>
      <path d="M256.784,273.335c-3.439.072-5.808,2.789-5.896,6.761-.03,1.401-.022,2.803-.015,4.227,0,.145,0,.289.002.434h-24.346c.007-.298.015-.593.021-.885.047-1.779.092-3.459-.108-5.167-.401-3.421-2.822-5.51-6.214-5.317-3.368.19-5.535,2.429-5.653,5.841-.097,2.789-.094,5.257.01,7.548.266,5.948,4.524,10.17,10.356,10.269,4.608.077,9.229.116,13.834.116s9.161-.039,13.682-.115c5.82-.099,10.221-4.545,10.464-10.572.079-1.961.082-4.109.008-6.567-.119-3.943-2.66-6.645-6.146-6.572Z"/>
      <path d="M64.287,280.147c-.067-4.04-2.346-6.716-5.806-6.815-.065-.002-.131-.003-.196-.003-3.499,0-5.914,2.734-6.033,6.867-.041,1.405-.031,2.779-.021,4.233,0,.156.002.313.003.471h-24.298c.005-.292.009-.58.014-.866.029-1.742.056-3.386-.065-5.058-.229-3.157-2.335-5.299-5.495-5.589-1.709-.156-3.353.323-4.513,1.316-.986.843-1.576,2.023-1.659,3.321-.224,3.481-.355,8.018.622,12.226.936,4.028,4.455,6.679,8.965,6.753,5.295.087,10.286.13,15.04.13,4.689,0,9.148-.042,13.443-.126,5.432-.106,9.614-4.297,9.944-9.964.131-2.25.094-4.519.058-6.712l-.003-.183Z"/>
      <path d="M196.306,232.833c1.846-6.536,3.806-13.162,5.701-19.569.729-2.462,1.457-4.924,2.182-7.387.734-2.5,1.374-5.644-.218-7.772-1.58-2.111-4.711-2.383-7.262-2.383-14.236-.003-28.477-.002-42.715-.002h-14.238s-16.313-.001-16.313-.001c-14.088-.003-28.173-.005-42.259.013-3.008.003-5.143.82-6.346,2.428-1.2,1.602-1.384,3.868-.546,6.735,1.086,3.72,2.193,7.435,3.301,11.149,1.633,5.477,3.321,11.14,4.911,16.726,1.074,3.777,3.357,5.537,7.185,5.537h.019c33.288-.049,66.711-.048,99.34,0h.02c3.885,0,6.186-1.739,7.239-5.473ZM191.015,207.919l-.739,2.532c-1.06,3.628-2.101,7.191-3.151,10.753-.756,2.56-1.212,4.105-1.824,4.573-.599.456-2.155.456-4.741.456l-18.649-.003c-21.663-.006-44.069-.012-66.106.071h-.084c-2.321,0-2.823-.375-3.309-2.4-1.017-4.229-2.264-8.298-3.584-12.605-.343-1.119-.688-2.243-1.03-3.377h103.219Z"/>
    </g>
  </g>
</svg>