<?xml version="1.0" encoding="UTF-8"?>
<svg id="Layer_2" data-name="Layer 2" xmlns="http://www.w3.org/2000/svg" viewBox="0 0 47.97 47.7">
  <g id="Layer_1-2" data-name="Layer 1">
    <g>
      <path d="M47.97,23.85c0,13.17-10.74,23.85-23.99,23.85S0,37.02,0,23.85,10.74,0,23.99,0s23.99,10.68,23.99,23.85ZM46.17,23.86c0-12.18-9.93-22.05-22.17-22.05S1.82,11.68,1.82,23.86s9.93,22.05,22.17,22.05,22.17-9.87,22.17-22.05Z"/>
      <path d="M22.42,7.83c2.91-.66,5.45.73,5.97,3.69-.83,3.27-.5,17.54-2.34,19.3s-4.35.71-4.88-1.59c-.84-3.65-1.56-12.41-1.65-16.29-.04-1.94.74-4.62,2.9-5.11ZM23.06,29.58l1.53-.22,2.01-16.42c.51-2.94-2.51-4.64-4.57-2.52-1.15,6.13.8,12.9,1.04,19.16Z"/>
      <path d="M27.46,36.66c0,1.91-1.56,3.46-3.48,3.46s-3.48-1.55-3.48-3.46,1.56-3.46,3.48-3.46,3.48,1.55,3.48,3.46ZM25.54,36.6c0-.85-.69-1.54-1.55-1.54s-1.55.69-1.55,1.54.69,1.54,1.55,1.54,1.55-.69,1.55-1.54Z"/>
    </g>
  </g>
</svg>