<?xml version="1.0" encoding="UTF-8"?>
<svg id="Layer_2" data-name="Layer 2" xmlns="http://www.w3.org/2000/svg" viewBox="0 0 59.7 57.82">
  <g id="Layer_1-2" data-name="Layer 1">
    <g>
      <path d="M59.7,27.38h-9.2c-1.4,0-16.51-18.65-20.43-18.9-1.28-.08-2.74.97-3.71,1.73-2.98,2.31-7.62,7.12-10.45,9.95-.94.94-6.06,7.23-6.7,7.23H0C7.45,19.86,14.84,10.56,22.88,3.74c5.87-4.98,8.07-4.99,13.94,0,8.1,6.88,15.2,16.22,22.88,23.64Z"/>
      <path d="M59.7,30.86l-17.15,17.93c-5.24,3.36-7.57,10.33-14.83,8.82-1.7-.35-5.33-3.75-6.84-5.1-7.29-6.52-13.7-14.9-20.89-21.65h9.7c4.9,5.03,10.27,11.77,15.67,16.17,4.57,3.72,5.16,3.13,9.47-.5,5.27-4.44,10.36-10.67,15.17-15.68h9.7Z"/>
      <path d="M28.36,21.66c-.34,1.2-6.3,5.28-6.48,6.98-.28,2.71,5.19,5.75,6.48,7.94v8.21c-.87.22-.99-.36-1.5-.74-2.42-1.86-10.39-9.78-12.2-12.18-2.84-3.78.46-6.11,2.99-8.97,3.2-3.62,6.95-6.93,10.7-9.94v8.71Z"/>
      <path d="M31.34,44.79v-8.71c0-.48,6.42-5.34,6.46-6.95.06-2.08-6.46-6.86-6.46-7.48v-8.71c2.25,2.31,5.23,4.5,7.46,6.72,1.5,1.49,5.42,5.47,6.47,6.96,1.68,2.38.92,3.6-.73,5.73-1.92,2.48-9.22,9.79-11.7,11.68-.5.38-.63.96-1.5.74Z"/>
    </g>
  </g>
</svg>