<?xml version="1.0" encoding="UTF-8"?>
<svg id="Layer_2" data-name="Layer 2" xmlns="http://www.w3.org/2000/svg" viewBox="0 0 51.98 45.56">
  <g id="Layer_1-2" data-name="Layer 1">
    <g>
      <path d="M22.16,22.47l1.11-.41,7.43,5.23,14.83-15.09c1.7-1.66,4.42-.13,3,1.98-2.27,1.74-3.89,4.19-5.77,6.19-1.37,1.46-10.81,11.17-11.6,11.37-1.13.29-8.38-5.91-9.18-7.14-.56-.85-.39-1.31.17-2.13Z"/>
      <path d="M16.54,38.25c.56-.53,5.72,3.3,6.89,3.83,13.65,6.14,27.8-4.38,26.6-19-.21-2.62-2.61-6.07-.02-7.18,7.45,16.62-7.39,34.04-25.08,28.67-1.16-.35-10.03-4.75-8.38-6.32Z"/>
      <path d="M47.51,18.88c4.43,12.14-5.15,24.7-18.18,23.29-1.44-.16-7.26-1.99-7.78-3.19-.24-.54-.27-1.42.74-1.24,1.29.23,3.53,2.05,5.61,2.37,9.45,1.46,19.1-4.49,19.15-14.54,0-2.06-2.31-6.53.46-6.7Z"/>
      <path d="M36.02,0c.32,2.37-3.67,1.16-4,1.49l.22,3.02c4.83.59,8.72,2.41,12.77,4.94.27.38-.37,1.39-.77,1.48s-5.57-3.06-6.94-3.5c-6.14-1.95-11.3-.9-16.62,2.4-1.6.99-3.23,3.75-4.63,1.85,3.59-4.17,8.84-6.94,14.48-6.7V1.49s-3.5,0-3.5,0V0h9Z"/>
      <path d="M30.92,8.09c3.16-.06,8.01,1.19,10.47,3.22,1.68,1.39,1.05,2.49-.37,1.86-1.55-.69-3-2.03-4.89-2.6-5.08-1.52-9.99-.41-14.34,2.35-1.14-.94-.99-1.14.06-1.92,2.07-1.53,6.5-2.86,9.06-2.91Z"/>
      <path d="M.05,23.85h14.74l.75.75-.75,1.23H.8c-.53,0-.95-1.41-.75-1.99Z"/>
      <path d="M5.3,18.88c-.42-.12-.91-.95-.75-1.49.49-.69,13.97-.87,15.26-.03.92.6.52,1.51-.02,1.51H5.3Z"/>
      <polygon points="4.55 32.29 4.55 30.8 19.79 30.8 20.53 31.55 19.79 32.29 4.55 32.29"/>
    </g>
  </g>
</svg>