<?xml version="1.0" encoding="UTF-8"?>
<svg id="Layer_2" data-name="Layer 2" xmlns="http://www.w3.org/2000/svg" viewBox="0 0 105.4 104.94">
  <g id="Layer_1-2" data-name="Layer 1">
    <g>
      <path d="M90.66,5.45c.52.63,3.97-.23,4.14,3.97.12,3.1-3.33,8-2.91,9.98.15.73,5,7.28,5.97,8.99,4.64,8.2,10.33,20.86,5.98,30.03-7.25,15.29-35.34,15.27-44.71,2.03-26.05,20.8-63.56-2.92-53.85-35.36C13.03-.82,48.95-6.15,64.17,16.07c1.24.75,2.75,6.52,3.99,6.15.27-.08,2.02-3.13,1.97-3.78-.25-3.08-5.4-8.64-1.64-12.02.62-.56,1.87-.62,2.22-1.05.72-.87.16-2.97,1.94-4.32s12.53-1.23,14.98-.64c4.1.98,2.28,4.13,3.03,5.03ZM87.6,3.74h-13.15l.34,4.17-4.53,1.5,2.93,8.28c2.55.3,13.85,1.06,15.32-.24.82-.72,3.24-7.83,2.69-8.35-1.49.07-3.03.2-3.91-1.2l.32-4.17ZM62.5,29.98c3.64-2.59,2.96-4.64,1.29-8.16C52.83-1.29,17.91.52,9,24.62c-11.03,29.84,25.71,53.98,48.51,31.91l-1-3.29c-8.54,7.9-19.15,10.51-30.09,5.88-21.01-8.89-20.59-39.59.6-48.13,15.2-6.13,32.69,2.81,35.49,18.99ZM35.57,12.7c-2.37-1.13-13.4,3.58-13.06,5.53,2.75,3.27-.08,5.8-2.76,2.21-3.52,3.4-4.65,8.18-5.69,12.8l3.02.59.5,1.72c-.51,1.94-3.6,1.37-3.5,1.87,1.03,4.34,2.12,9.23,5.75,12.18l2.31-1.15,1.44.98-1.15,3.8c4.12,2.29,8.28,4.62,13.15,4.79-.1-1.57-.31-3.95,2.09-3.58l.9,3.58c4.86-.07,8.92-2.8,13.15-4.79-3.37-7.62,1.49-3.45,2.61-3.63,2.84-.45,3.82-9.8,5.18-12.15-3.59-.81-4.54-4.05-.04-3.91.37-4.75-1.82-9.69-5.05-13.08-1.39,2.39-4.69,2.43-3.76-.75.17-.59,1.2-1.27,1.06-1.9-.36-1.62-10.77-6.2-13.12-5.09.32,4.09-3.35,4.1-3.03,0ZM72.78,21.16c-7.14,10.39-20.46,30.86-7.25,41.26,7.98,6.28,25.32,6.03,32.55-1.42,10.1-10.4-1.9-30.6-9.29-39.67l-16.01-.17Z"/>
      <path d="M1.06,97.22c-.68-.93-.67-2.02-.76-3.11-.34-4.1-.45-12.75.01-16.73.22-1.9.82-3.28,2.83-3.74,3.29-.75,19.91-.55,23.78-.13,2.24.24,3.31,1.49,4.82,1.76s5.58.24,7.15.05c4.97-.59,5.24-5.2,13.16-4.81,6.41.31,21.48,2.85,27.8,4.46,2.62.66,3.62,1.68,5.04,3.88,4.22-2.11,8.76-8.44,14.04-6.22.87.37,2.66,2.69,2.88,3.7.76,3.41-1.3,4.97-3.46,7.03-3.74,3.57-22.69,19.02-26.5,20.68-10.69,4.65-27.18-10.25-39.56-7.86-1.39.27-1.6,1.55-3.56,1.81-5.26.71-19.02.45-24.57,0-1.09-.09-2.19-.09-3.12-.76ZM54.42,82.45c7.51-1.17,17.87.87,25.7,0,1.82-1.28,2.2-3.07-.16-4.02-9-.52-20.49-4.8-29.16-4.94-4.62-.08-6.36,4.26-10.4,5.12-2.77.59-5.62.13-8.4.27v14.31h9.86c3.03,0,17.54,7.31,22.26,8.21,5,.96,6.6-.57,10.26-3.2,6.21-4.46,16.22-12.06,21.59-17.23,1.02-.98,2.56-2.03,2.41-3.55-.22-1.17-1.18-2.38-2.42-1.88l-25.4,17.39c-2.94,0-6.71-5.69-9.29-6.57-2.35-.79-5.29.26-7.14-.63-1.68-.81-1.75-2.96.3-3.28ZM28.42,77.09H3.91v17.89h24.51v-17.89ZM75.04,86.03h-8.37l3.88,3.46,4.49-3.46Z"/>
      <path d="M38.58,21.63v12.52l5.12,1.75c.91,4.89-5.68.97-8.1.63v-14.91h2.99Z"/>
      <path d="M82.91,32.27c.19.22,1.41.17,2,.67,2.48,2.09,3.05,3.91,2.69,7.18-3.59.79-2.61-2.35-4.14-3.92-2.33-2.38-6.7-.28-5.91,3.48.71,3.35,3.71,2.37,5.9,3.09,3.99,1.32,5.45,7.01,3.23,10.44-1.05,1.63-3.63,2.3-3.76,2.51-.52.84.45,3.88-2.12,4.04-2.02-.56-1.24-3.53-1.66-4.04-.16-.2-1.38-.21-1.99-.67-1.87-1.4-3.11-3.84-3.23-6.19l2.34-1.32c1.65.78.65,5.4,5.07,5.17,3.56-.19,4.21-5.2,1.68-6.65-2.06-1.18-4.17.22-6.69-2.12-3.77-3.49-2.9-7.93.83-10.99,1.64-1.34,2.58.44,2.17-4.06,4.18-2.15,3.02,2.7,3.6,3.4Z"/>
    </g>
  </g>
</svg>