<?xml version="1.0" encoding="UTF-8"?>
<svg id="b" data-name="Layer 2" xmlns="http://www.w3.org/2000/svg" width="262.54" height="235.98" viewBox="0 0 262.54 235.98">
  <defs>
    <style>
      .d {
        fill: #bf3630;
      }
    </style>
  </defs>
  <g id="c" data-name="Layer 1">
    <g>
      <path class="d" d="M133.891.005c42.024-.298,83.269,14.07,117.044,38.499,2.49,1.801,7.378,5.044,9.137,7.259,5.892,7.414.567,17.927-8.927,17.122-4.541-.385-17.338-10.895-22.187-13.956C167.07,9.861,89.476,11.794,28.835,52.202c-5.697,3.796-12.95,11.333-19.884,10.664-7.637-.737-11.537-10.346-7.051-16.358,2.989-4.006,19.321-14.199,24.406-17.329C58.711,9.231,95.835.275,133.891.005ZM123.084,7.83c-41.52,1.639-82.269,17.286-114.5,43.123-1.721,2.393,1.162,5.156,3.491,3.491C80.215-.633,182.799-.462,250.89,54.572c2.038,1.289,4.398-.821,3.364-2.967-.787-1.633-8.822-7.159-10.835-8.567C208.347,18.508,166.083,6.133,123.084,7.83Z"/>
      <path class="d" d="M128.676,163.967c16.086-1.202,31.135,8.513,36.392,23.753.591,1.713,1.397,7.377,2.522,7.912.936.445,2.765.319,3.845.285,15.238-.485,36.659-3.671,40.296,16.314.878,4.823.944,14.662.506,19.647-.169,1.922-.619,3.502-2.614,4.093l-156.909.01c-1.499-.653-2.037-1.804-2.216-3.373-.537-4.717-.434-18.695.851-22.997,3.364-11.264,12.685-13.673,23.169-14.095,6.899-.278,13.824.329,20.712.217,1.249-3.256,1.755-6.744,3.054-9.988,4.996-12.478,17.039-20.778,30.393-21.776ZM158.562,195.53c-1.244-12.003-11.023-21.15-22.655-23.365-14.976-2.853-30.036,8.392-32.122,23.365h54.778ZM204.023,227.949c.776-10.257,1.91-22.723-11.369-24.218h-123.336c-4.77.094-10.996,5.85-10.996,10.617v13.601h145.701Z"/>
      <path class="d" d="M123.084,54.41c31.886-1.594,63.995,6.905,90.596,24.33,6.218,4.073,14.438,10.183,8.229,18.6-7.493,10.157-17.509.117-24.854-4.211-39.883-23.499-88.939-23.825-129.295-1.256-4.707,2.632-13.263,9.536-18.179,9.768-7.371.348-12.275-6.383-10.461-13.442,1.252-4.872,11.274-10.548,15.598-13.095,20.529-12.095,44.447-19.498,68.367-20.694ZM128.301,62.235c-25.343.858-49.874,7.754-71.439,20.975-2.132,1.307-7.961,4.682-9.352,6.297-1.855,2.154.127,5.16,3.238,3.61,5.153-2.567,10.676-7.058,16.135-9.946,41.958-22.202,93.56-21.078,134.408,3.111,2.229,1.32,10.525,7.347,12.231,7.351,1.49.003,2.738-1.64,2.155-3.075-.834-2.054-11.158-8.079-13.641-9.493-22.35-12.721-47.835-19.707-73.737-18.831Z"/>
      <path class="d" d="M124.575,108.815c16.946-.984,41.013,2.949,55.195,12.779,9.428,6.534,4.34,20.434-7.237,19.161-3.01-.331-6.832-3.133-9.739-4.421-19.905-8.818-41.834-9.197-61.869-.49-2.982,1.296-7.47,4.348-10.459,4.82-11.398,1.799-16.964-11.949-8.262-18.697,9.409-7.295,30.572-12.466,42.372-13.151ZM125.693,116.64c-9.472.572-19.093,2.855-27.859,6.423-2.325.946-11.187,4.73-11.788,6.875-.316,1.128.581,2.534,1.702,2.834,1.584.423,8.251-3.55,10.195-4.382,18.49-7.908,39.302-9.376,58.474-2.821,3.538,1.21,15.331,7.134,17.896,6.904,3.529-.317,1.97-3.355.023-4.701-11.863-8.201-34.47-11.989-48.644-11.132Z"/>
    </g>
  </g>
</svg>