<?xml version="1.0" encoding="UTF-8"?>
<svg id="b" data-name="Layer 2" xmlns="http://www.w3.org/2000/svg" width="243.092" height="243.207" viewBox="0 0 243.092 243.207">
  <defs>
    <style>
      .d {
        fill: #bf3630;
      }
    </style>
  </defs>
  <g id="c" data-name="Layer 1">
    <g>
      <path class="d" d="M116.212,60.612l10.69,11.728c3.318-1.518,5.409-3.879,9.402-4.227,14.337-1.25,19.25,15.652,8.354,23.714l4.907,5.247c.706.352,3.961-2.394,4.921-2.932,16.357-9.182,28.47,12.948,13.045,22.209l4.615,5.692c6.097-3.266,10.358-8.01,18.039-5.461,11.585,3.845,10.567,20.013-.091,24.452l4.898,5.735c.241.269.408.102.655-.009,2.396-1.08,5.281-3.973,7.838-5.255,10.603-5.318,21.983,3.54,18.332,15.062-.292.92-2.27,4.263-1.949,4.704,3.845,1.732,7.333,5.225,9.953,8.521,1.614,2.03,2.702,2.876,2.463,5.743-.403,4.842-9.442,10.624-12.433,14.367,4.43,4.828,9.557,8.976,14.06,13.722,6.411,6.757,10.612,12.508,8.729,22.477-2.988,15.821-24.176,22.983-35.396,11.382-1.641-1.697-2.379-4.929.056-6.184,3.445-1.777,5.606,1.961,8.399,3.287,11.664,5.537,24.332-6.719,18.92-18.593-1.524-3.343-8.12-9.425-11.006-12.205-2.765-2.664-5.664-5.28-8.556-7.811l-19.707,19.47c1.764,2.632,8.851,6.347,4.844,10.054-3.875,3.585-7.153-3.267-9.59-4.722-.467-.279-.672-.428-1.254-.264-.591.166-7.156,7.551-8.579,8.772-4.287,3.677-6.427,4.451-11.097.653-1.704-1.386-6.66-6.299-7.635-8.057-2.257-4.07-.126-6.979,2.879-9.75-1.888-1.307-6.233-6.741-7.939-7.447-.534-.221-.583-.197-1.103.006-2.285.892-5.54,4.059-8.114,5.317-4.259,2.081-9.017,2.328-13.086-.32-8.998-5.857-7.06-18.457,2.131-22.898.177-.259-1.903-2.744-2.277-3.109-.899-.877-2.237-2.161-3.62-1.977-1.973.263-5.529,3.8-7.937,4.823-13.58,5.774-24.659-10.78-13.797-21.316.678-.658,1.632-1.072,2.252-1.608.375-.324.293-.297.053-.681-.308-.493-4.932-4.801-5.286-4.862-3.484,1.906-6.637,5.003-10.777,5.489-11.848,1.392-18.942-11.361-11.563-20.717.712-.903,3-2.269,2.301-3.286-1.051-1.529-3.87-3.011-5.083-4.652-3.259,1.997-6.192,4.397-10.178,4.785-9.81.954-16.916-8.795-12.937-17.839.818-1.858,2.357-3.254,3.332-5.001-.783-.621-4.892,4.294-5.985,4.963-2.572,1.574-5.711,1.284-8.081-.545-1.488-1.149-7.512-7.232-8.307-8.693-1.925-3.539-.491-6.645,2.08-9.296-5.284-7.167-11.185-13.951-16.452-21.12-2.196-2.989-4.771-6.332-4.771-10.264,0-1.965,1.149-3.761,1.264-5.682C10.615,61.27,1.104,51.153.158,39.187-.894,25.87,3.243,14.048,14.302,6.264c18.157-12.779,43.204-5.126,51.877,14.97,3.812-1.323,7.857-1.983,11.46.299l25.474,19.321c2.915-1.809,5.1-3.649,8.696-2.164,1.881.776,8.308,7.172,9.631,9.004,3.847,5.329-1.097,10.031-5.227,12.918ZM97.574,45.573l-23.631-17.727c-3.557-1.492-6.853,2.076-11.13.013-2.628-1.268-3.726-4.937-5.185-7.237C40.466-6.431-.27,11.008,8.24,42.22c1.661,6.092,5.685,11.144,10.902,14.598,4.896,3.242,9.965,3.678,9.091,11.108-.296,2.514-1.727,3.455-.356,6.311l17.725,23.635,10.449-9.969c-5.739-5.51-14.26-11.397-9.322-20.444,1.61-2.95,15.352-16.602,18.478-19.118,9.421-7.581,16.366.959,22.398,7.681l9.969-10.449ZM109.226,46.245l-62.833,62.748c-.218.246-.13.397,0,.648.154.299,4.463,4.61,4.763,4.763l63.603-62.627c.305-.381.035-.536-.163-.825-.391-.569-5.017-4.768-5.369-4.707ZM72.566,52.6c-1.251.009-2.05.729-2.95,1.46-3.36,2.732-13.583,12.717-16.021,16.018-.675.914-1.179,1.899-1.131,3.083,1.776,3.724,5.727,6.433,8.397,9.641l21.996-21.379c-2.653-2.051-5.38-6.205-8.001-8.012-.68-.469-1.456-.817-2.291-.811ZM120.786,76.944l-9.317-10.446-44.952,45.261c.734.927,1.561.795,2.46.181l51.809-34.996ZM137.047,75.397c-.838.129-2.057.687-2.836,1.085l-68.182,46.24c-5.237,4.823.676,12.339,6.598,8.886l67.095-45.366c1.48-1.469,3.311-2.669,3.594-4.904.481-3.805-2.521-6.516-6.268-5.94ZM138.333,95.946l-51.212,34.785,5.981,5.025,13.616-8.958c4.075-1.131,6.317,3.535,3.11,6.377-5.677,5.031-14.299,8.732-20.097,13.902-4.591,5.52,1.299,11.921,7.292,8.273l68.877-46.853c3.841-4.138-.111-10.583-5.566-9.161-.639.166-1.92.972-2.579,1.343-11.027,6.218-21.87,16.489-32.946,22.304-2.182,1.145-3.857,1.892-5.655-.428-1.208-1.559-1.451-3.044.149-4.424l23.899-16.333c.721-1.143-4.089-4.443-4.433-5.743l-.437-.109ZM166.227,126.638c.437-.624-4.831-5.916-5.332-5.837l-48.27,33.117,5.649,5.048,47.953-32.329ZM113.708,179.163c2.096,1.902,5.648,1.104,7.831-.277l66.7-45.107c6.476-4.195,1.69-13.245-5.306-9.883l-69.616,47.422c-1.941,2.083-1.64,6.002.39,7.845ZM183.776,145.651l-45.974,31.211,5.646,5.317,45.66-31.179-5.332-5.348ZM208.312,147.314c-.81.168-1.807.99-2.631,1.291l-67.727,46.042c-4.204,3.85-.913,10.923,4.828,9.729,24.097-15.637,48.097-31.839,71.45-48.527,3.118-4.467-.625-9.634-5.92-8.535ZM218.7,169.476l-49.196,49.196,5.388,5.388,49.196-49.196-5.388-5.388ZM204.805,171.762l-36.718,24.576c-1.035,1.225-3.961,2.278-4.82,3.359-.232.292-.466.445-.16.829l6.882,6.208,34.817-34.972Z"/>
      <path class="d" d="M223.878,217.196c4.625-.528,5.53,6.795.562,7.151-4.479.321-5.352-6.604-.562-7.151Z"/>
      <path class="d" d="M32.312,12.326c9.56-1.09,18.592,3.662,21.984,12.815,5.361,14.465-5.834,28.673-21.089,27.3-3.268-.294-9.751-2.232-6.225-6.542,2.039-2.493,4.958-.818,7.532-.652,11.212.725,18.227-12.031,11.115-20.92-7.627-9.533-22.925-4.464-23.353,7.741-.05,1.413.519,2.645.278,4.176-.627,3.991-6.256,3.761-7.093-.057-2.352-10.743,5.856-22.608,16.85-23.861Z"/>
    </g>
  </g>
</svg>