<?xml version="1.0" encoding="UTF-8"?>
<svg id="b" data-name="Layer 2" xmlns="http://www.w3.org/2000/svg" width="256.606" height="191.883" viewBox="0 0 256.606 191.883">
  <defs>
    <style>
      .d {
        fill: #bf3630;
      }
    </style>
  </defs>
  <g id="c" data-name="Layer 1">
    <g>
      <path class="d" d="M78.36,55.406c23.824-1.181,48.396.689,72.298-.113,11.442.721,22.182,4.75,30.796,12.297,12.355,10.826,18.448,18.066,35.678,21.892,11.401,2.531,20.387.731,31.496,1.497,5.144.355,7.15,1.496,7.573,6.903,1.289,16.457-.999,34.566,0,51.198-.287,3.672-1.727,6.045-5.604,6.516-7.741.939-17.065-.358-25.209.377-5.998.541-12.164,1.944-17.768,4.115-23.012,8.915-27.61,29.706-56.623,31.247-32.66,1.735-66.848-1.33-99.666-.019-43.206-4.055-61.462-45.301-45.779-83.816,12.515-30.735,39.367-50.438,72.808-52.095ZM81.39,62.812c-21.025.894-39.867,8.319-54.143,23.964-19.596,21.475-28.734,58.603-7.234,81.992,17.989,19.569,41.604,14.833,65.639,14.793,20.966-.036,43.526,1.585,64.316.349,21.521-1.279,39.213-17.45,40.922-39.205-.787-14.039,1.024-29.152-.057-43.064-1.491-19.189-16.838-35.511-35.865-38.202-24.353-.621-49.176-1.665-73.578-.627ZM248.445,99.073c-14.466-.782-28.357.441-42.173-4.792-3.423-1.297-6.703-3.083-10.009-4.633.996,4.589,2.113,9.236,2.369,13.956.638,11.777.598,27.289.002,39.083-.241,4.774-1.22,9.509-2.378,14.119.053.89,3.292-1.33,3.581-1.47,11.774-5.679,21.333-6.722,34.285-7.125,4.106-.128,9.261.489,13.161.031.49-.058.866-.042,1.161-.522v-11.952c-3.647-.029-7.305.033-10.956.014-3.847-.02-7.875-.3-11.783-.028-3.207.224-8.646,1.671-11.441,1.368-4.198-.454-4.542-6.425.043-7.379,7.658-1.593,17.344-.429,25.201-1.732l8.936.014v-9.427c-3.975-.12-7.99.156-11.966.014-6.667-.239-14.935-.6-21.495-1.398-5.864-.713-4.881-7.562-.027-7.72,1.48-.048,4.064.81,5.756.982,7.365.748,19.392,1.576,26.571.733.49-.058.866-.042,1.161-.522v-11.615Z"/>
      <path class="d" d="M158.765,9.956c.562-.059,2.585.451,3.233.665,6.189,2.051,9.722,9.286,6.26,15.166-1.477,2.508-17.505,18.52-20.032,20.032-9.678,5.792-20.352-6.332-13.073-15.43,2.873-3.59,15.465-16.356,19.02-18.35.596-.334,4.211-2.043,4.592-2.083ZM158.473,18.35c-.535.14-1.316.882-1.777,1.262-5.466,4.507-10.392,11.114-15.799,15.846-1.775,2.792,1.627,5.551,4.027,3.354l16.326-16.328c1.65-2.161-.171-4.815-2.777-4.134Z"/>
      <path class="d" d="M59.832,10.618c2.962-.434,5.42.006,7.795,1.793,4.559,3.431,14.903,13.794,18.348,18.348,5.79,7.653-.714,17.73-10.042,16.438-2.752-.381-6.067-3.796-8.118-5.685-3.985-3.67-11.841-11.004-14.783-15.18-4.064-5.77-.138-14.697,6.8-15.714ZM61.159,18.336c-.929.139-2.132,1.502-2.243,2.465.014.43,1.308,2.223,1.677,2.683,2.653,3.308,11.698,12.496,14.983,14.98.599.453,1.674,1.235,2.406,1.272,1.073.054,2.661-1.726,2.656-2.78-.01-2.024-5.055-5.805-6.594-7.396-2.868-2.965-5.555-6.44-8.74-9.104-1.081-.904-2.658-2.342-4.145-2.12Z"/>
      <path class="d" d="M101.439,28.826c1.111-1.059,3.73-1.152,4.927-.278,2.237,1.632.255,5.676,3.696,6.755,1.822.571,2.915-1.471,3.06-3.042.483-5.227.483-16.015,0-21.242-.224-2.421-2.324-4.402-4.412-2.36-2.29,2.239.973,9.521-4.838,9.253-4.261-.196-3.834-5.536-3.571-8.572,1.021-11.797,17.714-12.624,20.183-1.306-.526,8.562.798,18.143.042,26.582-.89,9.936-15.552,11.902-19.465,2.604-.902-2.143-1.455-6.646.378-8.393Z"/>
      <path class="d" d="M35.336,101.093h139.885l.37-.696c-2.547-12.522-12.826-21.583-25.625-22.53-4.218-.312-14.429,2.072-12.133-5.409.681-2.218,4.403-2.281,6.398-2.355,20.244-.753,36.74,11.394,39.233,31.835-1.896,18.2,4.846,43.685-5.918,59.386-7.393,10.784-18.225,14.697-30.926,15.197-29.471,1.16-59.697-.914-89.246-.002-47.68-1.193-52.68-50.681-26.742-82.319,22.244-27.133,51.265-24.594,83.302-23.73,2.494.067,10.083-.495,11.754.366,3.043,1.568,2.063,6.93-1.67,6.997-30.869,1.401-62.1-6.722-85.324,18.706-1.157,1.267-2.855,2.994-3.358,4.554ZM113.442,108.5h-15.318c-1.307,0-3.857,2.345-4.684,3.396-8.573,10.893-15.585,24.911-24.164,36.099-.548.715-1.111,1.698-1.897,2.143-3.089,1.749-6.878-1.126-5.519-4.512l24.486-36.458-.341-.668H31.464c-1.996,0-3.592,4.251-4.268,5.832-6.892,16.131-7.301,36.315,7.83,47.839,2.09,1.592,9.067,5.912,11.514,5.182,2.814-.839,5.395-12.444,11.073-8.914,4.197,2.609-.818,7.467-2.078,10.324h52.688l.506-.841,1.718-21.848c.597-3.803,2.54-5.191,6.236-5.547,3.495-.336,15.109-.436,18.047.719,2.523.991,2.869,3.777,3.282,6.144l1.688,21.373h11.952c8.712,0,18.744-8.648,22.004-16.376,1.818-4.309,2.847-7.288.526-11.54-5.536-10.139-14.624-20.176-20.514-30.323-.434-.414-2.987-2.024-3.363-2.024h-15.655l1.68,19.025c.223,2.702-.046,6.298-2.91,7.519-2.498,1.065-11.756.966-14.774.739-6.974-.525-6.822-3.941-6.566-9.959.139-3.268.783-6.802,1.021-10.089.173-2.396.283-4.834.34-7.235ZM127.246,108.836h-6.06l-1.683,19.19h9.09l-1.347-19.19ZM175.725,108.836h-13.803l13.803,20.537v-20.537ZM130.276,148.226h-12.457l-1.694,19.699c-.038.282.348.838.516.838h15.318l-1.683-20.537Z"/>
    </g>
  </g>
</svg>