<?xml version="1.0" encoding="UTF-8"?>
<svg id="b" data-name="Layer 2" xmlns="http://www.w3.org/2000/svg" width="309.989" height="198.021" viewBox="0 0 309.989 198.021">
  <defs>
    <style>
      .d {
        fill: #bf3630;
      }
    </style>
  </defs>
  <g id="c" data-name="Layer 1">
    <g>
      <path class="d" d="M194.453,198.021h-1.662c-2.91-.952-3.47-3.203-3.734-6.029-1.304-13.962.53-30.619.532-44.722,2.049-10.119,13.063-16.73,19.403-24.211-1.829-1.742-4.117-2.895-6.362-4.019-7.526-3.766-15.953-6.856-23.706-10.207-.642.098-1.042.564-1.522.929-2.445,1.861-15.325,14.585-16.803,16.846-.665,1.017-1.034,2.276-1.076,3.494l-.308,64.064c-2.453,4.513-8.154,5.278-8.82-.92l-.283-64.919c-.191-.735-.527-1.332-.959-1.949-1.809-2.581-13.107-13.723-15.787-15.788-.86-.663-1.998-1.469-3.127-1.468-10.001,4.349-20.566,7.981-29.709,13.936-.015.66,8.375,7.91,9.562,9.127,9.204,9.439,10.957,12.036,10.813,25.776-.113,10.745-.619,21.581-.451,32.393.028,1.813,1.014,2.403-.21,4.326-2.559,4.019-6.701,3.738-8.474-.63-.839-13.498,1.03-28.162-.01-41.52-.27-3.468-1.119-6.039-3.33-8.716-1.492-1.806-8.974-9.557-10.588-10.6-.513-.332-.825-.509-1.475-.396v61.672c0,.952-2.261,3.227-3.325,3.53h-2.078c-2.737-1.245-3.506-3.103-3.755-6.007-1.503-17.508,1.169-37.12-.002-54.852.506-6.732.359-11.845,4.418-17.596,6.764-9.584,25.241-13.682,35.513-19.333,1.898-1.044,3.355-2.34,3.688-4.622,1.302-8.947-4.074-10.41-8.197-16.651-5.646-8.546-4.056-12.889-6.506-21.324-.695-2.392-3.121-4.602-3.843-6.957-2.6-8.481-.022-23.408,4.382-31.101C127.434.764,147.46-2.249,167.524,1.29c17.734,3.128,33.054,21.096,30.634,39.505-.507,3.854-3.667,5.521-4.434,8.028-1.259,4.113-.767,11.74-1.402,16.457-1.007,7.471-3.727,12.443-8.461,18.125-1.916,2.3-4.707,3.581-5.164,6.883-.482,3.48.527,7.58,3.566,9.653,14.619,8.308,38.467,10.744,40.053,31.41l-.025,62.718c-1.03,2.44-4.774,4.656-7.224,3.083-.356-.229-1.495-2.042-1.495-2.243v-61.88l-1.033-.621c-3.571,4.436-9,8.547-12.256,13.09-1.443,2.014-1.907,3.722-2.103,6.205-1.035,13.12,1.324,28.183.009,41.124-.275,2.707-1.15,4.214-3.735,5.197ZM184.064,50.587c-11.691-.694-22.847.193-33.816-4.625-3.579-1.572-13.029-7.094-14.117-10.809-.991-3.387,1.49-6.082,4.915-5.761,1.895.178,7.293,5.102,9.758,6.463,9.807,5.412,22.879,6.544,33.815,4.702,1.354-.228,2.735-.463,4.02-.966,1.496-1.272-1.112-9.908-1.883-11.835-6.542-16.361-22.857-20.271-39.056-18.276-17.581,2.165-27.225,15.394-27.243,32.616-.002,1.815.835,4.007.435,6.002,3.438-1.471,10.729-8.832,13.657-3.061,3.367,6.637-8.103,8.266-8.931,12.601-.266,1.395.523,5.49.876,7.077,4.584,20.601,30.349,29.66,46.766,15.99,9.042-7.529,12.348-18.582,10.803-30.116ZM140.425,93.78c-.046,2.942-2.525,6.592-1.349,9.448l15.742,15.856c3.874-3.396,7.848-7.148,11.383-10.964.699-.755,4.794-5.147,4.9-5.5.355-1.191-1.577-8.671-2.239-8.813-9.184,3.446-19.235,3.248-28.438-.026Z"/>
      <path class="d" d="M23.219,198.021c-2.358-1.106-3.389-2.661-3.694-5.237-.837-7.058,1.581-21.358-1.218-27.023-.637-1.288-6.342-7.69-7.549-8.654-.422-.337-.544-.786-1.254-.616v37.169c0,.195-1.222,2.82-1.476,3.094-1.829,1.977-7.461.952-7.57-2.361.636-13.7-1.183-28.729-.113-42.277.526-6.663,4.155-11.424,9.712-14.798,4.631-2.812,12.103-5.221,16.045-8.054,4.075-2.929,3.982-8.537,2.645-12.973-1.395-4.629-5.606-6.737-8.366-10.329-7.98-10.385-7.76-34.815-.581-45.706,1.923-2.918,9.948-10.432,10.039-12.813.171-4.451-1.107-6.677.915-11.541,7.233-17.397,34.386-13.655,36.475,4.143.314,2.673-.783,7.846.332,9.599.684,1.075,3.076,2.418,4.088,3.427,9.726,9.696,10.85,18.83,10.189,32.214-.44,8.911-1.518,16.349-7.487,23.25-2.055,2.375-6.892,5.233-7.106,8.303-.103,1.473-.118,5.66.067,7.017.945,6.941,8.694,6.086,9.75,10.204.353,1.375-.087,3.307-1.046,4.381-3.809,4.266-10.851-2.916-12.47-2.112-2.016,2.836-9.121,7.781-10.082,10.724-.428,1.311-.669,5.117-.752,6.724-.686,13.217.54,27.03.027,40.311-.671,5.613-6.954,3.925-8.729-.019-.061-13.011.243-26.063-.442-39.012-.112-2.12.271-4.578-.019-6.626-.596-4.209-7.443-7.961-9.494-11.695l-1.057-.583-20.167,9.963c-.17.628.166.687.409,1.038,4.497,6.503,12.228,8.907,14.768,18.052,1.157,4.166,1.199,23.701.625,28.465-.302,2.506-1.627,3.419-3.75,4.351h-1.662ZM58.131,44.36c.764-14.394-20.189-14.245-19.534,0h19.534ZM24.052,76.751c.982,1.044,12.136-8.659,14.345-8.75,2.915-.121,6.386,4.481,8.728,6.252,3.297,2.493,8.447,5.2,12.567,5.716,1.919.24,12.336.348,12.932-1.401.952-10.634-6.434-20.88-16.358-24.247-16.298-5.53-30.709,6.094-32.214,22.43ZM72.675,88.799c-8.924.442-15.956,1.174-24.113-3.108-2.238-1.175-8.463-5.988-10.182-6.062-.728-.031-1.399.135-2.03.49l-12.232,6.667-.099.539c1.521,30.89,45.077,32.208,48.656,1.474ZM58.131,119.945h-19.534c-.406,4.285-1.4,6.778,1.45,10.388,2.258,2.86,5.914,5.448,8.317,8.293,1.755-2.594,8.885-7.645,9.868-10.066.97-2.386-.016-6.103-.102-8.615Z"/>
      <path class="d" d="M250.561,198.021c-2.129-1.213-3.043-2.237-3.326-4.775l-.099-59.29c-.497-2.96-6.923-8.244-9.26-10.682-.394-.412-.706-1.27-1.034-1.48-1.328-.848-4.395,3.031-7.695.65-.58-.419-1.318-1.523-1.54-2.195-1.653-5.006,2.993-4.759,4.458-8.196.704-1.651.928-5.868.536-7.595-.282-1.243-4.401-5.598-5.49-7.388-2.015-3.313-3.57-7.553-3.928-11.441-.199-2.159.292-4.971-.142-6.918-.495-2.218-3.576-2.392-4.268-4.042-.289-.688-.582-3.401-.648-4.336-1.953-27.641,15.624-39.421,41.736-35.89,13.111,1.773,22.989,10.747,25.081,23.943.554,3.493,1.159,12.537.085,15.637-1.114,3.216-4.177,1.576-4.536,5.433-.692,7.439-.166,11.322-4.405,18.026-2.433,3.848-6.13,5.767-5.545,11.001.181,1.618,1.607,4.804,2.893,5.838,12.379,8.802,34.722,10.761,36.159,29.071,1.257,16.021-.971,33.659-.014,49.852-.331,2.954-1.419,3.935-4.157,4.775h-.831c-1.718-.427-4.156-1.96-4.156-3.945v-52.12c-3.266,3.349-8.917,7.202-9.786,12.024-.341,1.889-.527,5.244-.621,7.27-.505,10.932.433,22.244-.007,33.218-.721,4.525-8.33,4.389-8.713-.382-.041-10.391.079-20.783.026-31.174-.019-3.682-.653-6.261.09-10.258,1.564-8.407,7.258-12.068,12.776-17.753l-26.812-13.181c-3.752,3.559-7.654,6.993-10.823,11.076l-.184,60.035c-.374,2.669-1.239,4.185-3.742,5.19h-2.078ZM275.892,67.594c1.993-9.975-3.789-21.148-14.026-23.526-6.173-1.434-17.05-1.456-22.935.923-8.111,3.278-12.824,13.144-11.215,21.579.1.522-.307.752.602.626,3.086-1.611,9.625-8.006,12.569-8.621,3.308-.691,6.679,2.19,9.687,3.42,7.936,3.246,16.694,5.485,25.318,5.597ZM241.306,69.79c-2.034.376-3.017,1.912-4.586,2.891-1.416.884-4.089,1.193-4.434,3.045-.685,3.678.116,10.666,1.577,14.183,6.927,16.665,31.451,15.152,36.53-1.853.637-2.132,1.73-9.098.566-10.712-.95-1.318-14.857-4.139-17.578-4.862-3.921-1.041-7.934-3.458-12.075-2.692ZM261.362,109.146c-6.386,2.573-13.451,1.8-19.941.002-.821,4.606,3.325,8.31,6.428,11.223,1.316,1.235,3.004,2.226,4.167,3.719l9.299-9.804c.864-1.606.511-3.497.047-5.139Z"/>
    </g>
  </g>
</svg>