<?xml version="1.0" encoding="UTF-8"?>
<svg id="b" data-name="Layer 2" xmlns="http://www.w3.org/2000/svg" width="254.52" height="237.478" viewBox="0 0 254.52 237.478">
  <defs>
    <style>
      .d {
        fill: #bf3630;
      }
    </style>
  </defs>
  <g id="c" data-name="Layer 1">
    <g>
      <path class="d" d="M76.492,17.518c.93-7.817,8.27-15.25,15.865-16.892,46.06-1.241,92.329-.194,138.465-.53,8.894.952,16.342,7.229,18.5,15.937.342,15.321,1.631,32.404.635,47.7-.81,12.446-8.411,19.687-20.598,21.192.959,3.418,2.958,7.175,3.356,10.71,1.348,11.978,1.213,31.927.445,44.112-.277,4.388-1.477,8.433-3.805,12.154,1.861,1.043,4.051.41,6.043.686,9.93,1.374,17.945,8.824,18.755,19.042,1.176,14.849-.923,31.214,0,46.226-2.878,22.739-24.521,19.272-41.781,19.533-24.186.366-48.309-.507-72.464-.44v-8.399h17.428c.419,0,1.504-1.096,1.828-1.532,2.28-3.069,3.728-9.034,5.99-12.067.274-.367.429-.726.982-.683l6.914,3.637-5.005,10.644h6.509c1.541,0,6.765-12.472,8.02-14.312l7.729,3.399-5.04,10.912h6.089c1.547,0,6.847-12.456,8.02-14.312l7.728,3.398-5.04,10.913h6.089c.419,0,1.504-1.096,1.828-1.532,2.28-3.069,3.728-9.034,5.99-12.067.273-.367.428-.725.981-.682l6.982,3.612-5.072,10.668h6.929l7.6-14.312,7.729,3.399-5.04,10.068c9.34-.631,10.464-13.013,9.239-20.154h-75.593v-8.399h75.593v-8.399h-67.194v-8.819h67.194c1.519-8.68.054-17.503-9.235-20.578l4.992,10.297-7.313,3.879c-2.395-1.733-6.316-14.596-8.813-14.596h-6.089l5.008,10.667-7.521,4.032c-1.956-3.736-3.73-8.475-5.818-12.038-.407-.695-1.581-2.661-2.378-2.661h-6.089l5.008,10.667-7.326,3.988c-.757-.056-5.628-11.71-7.122-13.406-1.811-2.056-3.642-1.057-6.099-1.25v-8.189c0-.208,2.365-2.315,2.865-3.014,1.994-2.786,2.758-6.458,4.477-9.38.433-.736.931-2.12,1.678-2.134l7.316,3.602-4.996,10.717h6.089c.292,0,1.16-.783,1.411-1.109,1.229-1.589,6.18-13.488,6.98-13.547l7.326,3.988-4.586,9.826c7.551-.945,9.645-9.656,9.498-16.096-.029-1.288-.116-3.624-.892-4.48h-37.167v-7.979h37.797v-8.819h-46.196v-8.399h46.196c1.253-8.297.044-17.654-9.032-20.575-.629.327.122,1.012.284,1.396.586,1.391,4.582,8.392,4.101,9.066l-7.279,3.361c-1.195-.277-5.369-11.878-7.172-13.416-2.345-2-4.661-.62-7.356-.829l5.038,10.911-7.728,3.398-6.794-13.439c-2.281-2.23-4.533-.484-7.314-.871l4.65,10.666-7.343,3.643-6.767-13.462c-.81-1.234-1.872-.849-2.931-.849h-7.349v-8.819h9.449l7.6-14.312,7.274,3.667-5.005,10.644h6.509c.794,0,1.572-1.607,1.954-2.24,2.307-3.824,3.805-8.218,6.066-12.071l7.728,3.398-5.04,10.913h6.509c2.12-1.214,6.89-13.985,8.021-14.247l7.308,3.334-5.04,10.913h6.509c3.66-4.135,5.307-9.594,8.02-14.312l7.274,3.667-4.585,9.8c9.4-1.041,10.599-12.58,9.239-20.154H102.11v-8.399h139.008v-8.399H84.891v12.179h-8.399V17.518ZM102.32,8.488h-6.089l4.996,10.717-7.314,3.939c-.602-.044-3.956-7.869-4.737-9.07-1.26-1.938-2.374.162-3.099,1.689-2.023,4.26-1.222,9.196-1.185,13.724h156.226c1.215-7.344-.054-19.004-9.239-20.154l4.996,9.873-7.929,3.982c-2.074-3.682-3.962-9.928-6.368-13.167-.324-.436-1.409-1.532-1.828-1.532h-6.089l5.008,10.667-7.521,4.032c-1.195-2.942-2.615-5.895-4.134-8.682-.615-1.128-3.074-6.017-4.062-6.017h-6.089l4.996,10.717-7.314,3.939c-.861-.063-6.672-14.656-8.391-14.656h-6.509l5.416,10.717-7.708,3.995c-2.758-4.767-4.499-10.481-7.998-14.712h-6.509l5.008,10.667-7.323,4.027c-1.753-2.652-5.738-13.346-8.293-14.376-1.821-.735-4.259-.129-6.189-.316l4.994,10.715-7.314,3.939c-1.08-.08-5.672-13.281-8.29-14.337-1.149-.463-4.298-.498-5.57-.32-.555.078-.75-.225-.625.629.284,1.931,5.062,9.259,5.001,10.089l-7.708,3.995c-.737.01-5.34-11.577-6.587-13.183-.224-.289-1.712-1.528-1.831-1.528h-6.089l5.008,10.667-7.521,4.032c-.984-2.367-6.383-14.187-8.196-14.699Z"/>
      <path class="d" d="M83.125,59.427c69.611-4.357,117.539,69.527,84.152,131.188-32.84,60.65-119.923,62.247-154.957,2.786C-21.236,136.448,17.52,63.533,83.125,59.427ZM84.891,76.103v-7.769c-.3-.395-.432-.53-.945-.547-3.076-.103-7.917,1.631-11.223,1.608l1.658,8.368-7.778,2.023-2.954-7.844-11.087,4.79,4.193,7.343c-2.15.342-4.878,3.165-6.713,3.621-.636.158-.554.189-1.043-.253-1.346-1.214-2.371-4.895-3.834-6.274-.57-.135-8.912,6.143-9.439,6.882-.265.371-.578.586-.203,1.064l5.266,4.835-6.14,6.059-5.402-5.422c-1.042,1.22-7.833,9.29-7.323,10.033,1.139.623,6.727,3.379,6.642,4.368l-3.736,7.01-7.343-4.193-4.814,11.093,7.868,2.948-2.006,7.789-8.392-2.1-1.509,11.743.455.856h7.769v8.399h-7.769c-.435.312-.449.372-.455.857-.042,3.318,1.502,7.839,1.507,11.325l8.361-1.651,2.142,7.703-7.987,2.348c-.072.454.058.848.191,1.275.461,1.489,3.299,8.312,4.067,9.373.249.345.393.805.926.646l6.958-3.713,3.768,7.485-6.633,4.094,7.094,9.616c.499.519.711.084,1.071-.209.764-.622,4.157-5.466,4.608-5.463l6.502,6.501-5.864,5.46,9.451,7.343c.85.18.509-.212.708-.535,1.335-2.168,2.529-4.45,3.896-6.591l7.346,4.4-4.19,7.346,11.132,4.617,2.991-7.935,7.546,2.048-1.512,8.417,12.181,1.26v-7.979h8.399v7.979l12.18-1.262-1.5-8.414,7.771-2.065,2.131,7.962,11.323-4.856-3.761-7.083,7.347-4.436c.755,1,3.614,7.341,4.592,7.121l9.469-7.133c.752-1.111-5.654-4.722-5.427-6.024l6.087-6.133,5.634,5.865,7.124-9.876-7.069-4.61,4.405-6.902,7.07,3.737,4.857-11.322-7.97-2.123,2.356-7.931,8.131,1.65,1.262-12.178h-7.979v-8.819h7.979l-1.26-11.761-8.42,1.51-2.049-7.544,7.532-2.365c.87-.874-3.899-10.05-4.209-11.759l-7.346,4.187-4.402-7.341,7.144-4.203-7.35-9.873c-.492-.603-.406-.36-.854,0-.955.767-4.001,5.612-4.974,5.438l-6.117-6.115,5.847-5.4-9.835-7.342-4.072,6.66-7.535-3.968,3.804-7.735-11.334-4.206-2.344,7.994-7.725-2.13,1.668-8.381-12.181-1.682v8.399h-8.399Z"/>
      <path class="d" d="M84.387,101.846c46.831-4.127,69.926,54.858,33.218,83.193-32.283,24.919-78.025-.31-75.125-40.688,1.581-22.02,19.94-40.57,41.907-42.506ZM93.711,110.54h-9.239c.007,3.136,1.054,6.354,1.256,9.454.236,3.631-.338,16.839-3.132,19.118-1.586,1.294-6.295.667-8.307.3-6.383-1.167-13.469-4.845-19.811-6.576-.497.126-2.645,6.79-2.757,7.746-.109.937.09.472.622.606,3.142.794,6.655.917,9.961,1.809,3.27.882,14.734,5.372,15.968,8.386,1.196,2.922-2.949,8.579-4.545,11.197-3.027,4.965-6.305,9.796-10.666,13.684l7.745,5.263c3.097-6.982,8.153-15.46,14.306-20.162,5.154-3.939,8.608.236,12.175,4.184,4.166,4.61,7.467,10.259,9.869,15.964l7.973-5.871c-4.151-2.788-7.956-7.523-10.674-11.802-1.782-2.806-5.498-9.03-4.751-12.252.563-2.428,8.693-6.019,11.113-6.933,5.007-1.89,10.309-2.998,15.65-3.46l-2.945-9.237c-5.338,3.083-11.115,5.692-17.198,6.944-2.673.55-9.268,1.852-11.343-.025-.758-.686-1.041-2.394-1.225-3.395-.764-4.156-1.335-12.081-1.342-16.334-.005-2.655.909-5.946,1.296-8.607ZM76.451,130.653c1.228-5.909,1.13-12.382-1.003-17.996-6.312,2.541-11.951,6.615-16.166,11.951,5.178,3.122,11.03,5.882,17.17,6.045ZM102.112,113.058c-1.246,5.71-2.006,11.717-.452,17.457,1.874,1.343,14.586-3.639,16.646-5.687.544-1.137-6.026-6.615-7.244-7.492-2.609-1.879-5.715-3.792-8.95-4.278ZM126.884,149.596c-5.873,1.008-12.141,1.964-17.179,5.314-.538,1.848,8.691,13.649,10.742,13.961.675.102,1.984-2.392,2.32-3.028,2.535-4.801,4.14-10.793,4.117-16.247ZM68.513,154.641c-1.627-.372-2.973-1.403-4.509-2.006-1.906-.748-11.824-3.761-12.952-2.212.289,5.044,1.559,10.155,3.863,14.661.63,1.231,1.864,4.437,3.323,3.434,1.044-.718,3.866-3.762,4.805-4.864,2.228-2.614,4.399-5.726,5.471-9.012ZM99.17,184.868c-2.06-5.761-5.671-10.763-9.927-15.082-1.679-.282-10.166,12.295-10.244,14.846,6.353,2.344,13.684,1.923,20.171.237Z"/>
      <path class="d" d="M151.876,148.336l.565.695c1.544,10.55-2.676,21.172-7.995,30.092-6.308,10.578-16.146,21.471-27.799,25.942l-3.563-6.973c18.611-10.118,30.744-28.211,31.023-49.756h7.769Z"/>
      <path class="d" d="M89.091,84.922c23.941-.733,46.874,14.132,57.07,35.495l-7.902,3.534c-8.88-17.703-24.81-28.084-44.392-30.576-1.62-.206-3.615.468-4.776-.684v-7.769Z"/>
      <path class="d" d="M34.076,147.916h-8.399c-.536-23.707,14.107-46.769,35.495-56.652l3.526,7.239c-.143.48-7.168,4.704-8.327,5.563-13.942,10.339-22.18,26.386-22.294,43.85Z"/>
      <path class="d" d="M88.671,203.351v7.979c-23.6,1.121-47.082-14.189-56.708-35.468l7.37-3.545c9.722,18.586,28.152,30.545,49.338,31.034Z"/>
      <path class="d" d="M87.709,144.227c7.437-1.701,6.969,9.036.792,8.298-4.772-.57-4.752-7.392-.792-8.298Z"/>
    </g>
  </g>
</svg>