<?xml version="1.0" encoding="UTF-8"?>
<svg id="b" data-name="Layer 2" xmlns="http://www.w3.org/2000/svg" width="145.988" height="257.875" viewBox="0 0 145.988 257.875">
  <defs>
    <style>
      .d {
        fill: #bf3630;
      }
    </style>
  </defs>
  <g id="c" data-name="Layer 1">
    <g>
      <path class="d" d="M98.663,17.421h10.105c2.799,0,6.996,4.214,6.996,6.996v5.752c5.401.019,10.965-.32,16.156,1.412,7.255,2.421,12.176,8.817,13.615,16.234.912,47.082.114,94.282.404,141.409-.784,12.722-8.979,20.543-21.611,21.296l-46.792.004-.326,12.731h17.567c1.007,0,3.975.782,5.03,1.189,4.66,1.796,7.051,6.803,7.576,11.545h32.18c1.856.423,3.882.013,5.289,1.553,1.84,2.014,1.227,6.083-1.553,6.875l-35.927.296c-.129,4.497-2.191,8.792-6.128,11.128-3.781,2.244-6.14,1.428-10.211,1.604-12.228.528-24.744.618-36.975,0-1.832-.093-3.703.18-5.529-.068-5.896-.798-9.283-6.981-10.017-12.37l-.365-.257-34.162-.04c-4.967-.38-5.351-7.414-.589-8.364,11.533-.788,23.176-.091,34.751-.384.505-.171,1.02-3.546,1.385-4.523,2.019-5.404,6.672-8.184,12.337-8.184h16.635v-12.748l-46.497.013c-10.929-.46-19.57-6.583-21.512-17.665-.653-48.265-.668-96.764.007-145.027,1.328-7.701,6.558-14.039,14.045-16.425,4.844-1.544,10.655-1.078,15.712-1.234v-6.063c0-1.097,1.643-3.55,2.478-4.362.73-.711,3.316-2.322,4.207-2.322h10.416v-6.685c0-4.953,5.99-9.94,10.73-10.413,6.403-.64,14.362-.162,20.816.01,7.073.189,13.029-1.371,17.522,5.486.667,1.018,2.234,4.146,2.234,5.228v6.374ZM107.058,25.816h-14.147c-.954,0-2.311-1.77-2.568-2.718-1.473-5.442,2.545-13.729-5.194-14.394-6.413-.551-17.481-.449-23.967-.003-1.394.096-3.047.217-4.041,1.245-3.058,3.161.175,12.265-2.423,14.834-.217.214-1.746,1.037-1.917,1.037h-13.836v17.101h68.093v-17.101ZM30.259,39.186c-9.45-1.368-19.973-.336-21.416,11.076l-.049,139.579c.661,7.255,5.456,11.411,12.593,11.971l102.632.004c7.751-.505,12.444-4.411,13.195-12.301l.016-138.68c-.511-4.952-3.046-9.483-8.029-10.938-4.263-1.245-9.042-.885-13.437-1.332v6.063c0,3.316-4.578,7.198-7.917,7.007l-70.277-.015c-2.646.258-7.31-3.96-7.31-6.37v-6.063ZM51.017,232.042c-2.273.332-3.41,1.497-3.658,3.804-.219,2.04-.252,7.613.075,9.566.454,2.715,2.206,3.443,4.735,3.66,13.301,1.145,28.214-.889,41.686,0,1.998-.171,3.683-.73,4.416-2.736.604-1.655.626-8.55.365-10.463-.413-3.032-1.997-3.721-4.779-3.927-13.794-1.02-28.912.724-42.84.095Z"/>
      <path class="d" d="M69.994,77.522c37.492-2.368,62.472,37.643,44.067,70.496-16.08,28.701-57.309,32.057-77.885,6.359-23.949-29.912-4.357-74.443,33.818-76.854ZM69.374,86.229c-28.349,2.34-44.154,34.429-29.296,58.648,16.667,27.167,58.067,23.166,69.079-6.739,9.905-26.898-11.39-54.252-39.783-51.909Z"/>
      <path class="d" d="M76.181,132.06c-1.976,2.206-6.836,1.291-7.34-2.265-.397-2.797.014-6.951-.014-9.935-.041-4.436-.036-8.884.002-13.369.013-1.5-.349-2.888.056-4.581.999-4.181,7.648-4.192,8.297.579,1.111,8.165-.78,18.62.035,27.031-.077.619-.651,2.112-1.035,2.542Z"/>
      <path class="d" d="M72.48,141.859c5.457-.571,6.35,7.535,1.446,8.307-6.363,1.002-6.822-7.744-1.446-8.307Z"/>
    </g>
  </g>
</svg>