<?xml version="1.0" encoding="UTF-8"?>
<svg id="Layer_2" data-name="Layer 2" xmlns="http://www.w3.org/2000/svg" viewBox="0 0 54.57 45.55">
  <g id="Layer_1-2" data-name="Layer 1">
    <g>
      <path d="M45.63,34.9c-.19-.09.05-.91-.82-.85-1.57.12-6.28,2.17-7.04,3.5-.65,1.13-.02,2.93-1.98,3.99-1.33.72-2.51.21-3.18.58-.27.15-.65,1.69-1.61,2.13-2.09.97-3.04-.76-4.21-.78-.41,0-.25,2.3-3.52,2.05-.39-.03-4.58-.98-4.93-1.11-.73-.25-.63-1.26-1.14-1.39-.46-.11-1.76.57-2.68-.25-.74-.67-.3-1.87-.76-2.75-.2-.37-1.12-.41-1.41-1.13s.16-1.67.09-1.78c-.32-.48-2.64-.74-1.91-3.05h-.74c-1.66,2.53-9.76-.06-9.78-2.72L5.16,14.33c1.16-1.13,7.36.83,8.64,1.85.47.37.57,1.41,1.07,1.53,1.26.29,3.21-.85,4.65-.53-2.59-3.93-2.05-8.63-1.93-13.09C17.76,3.58,26.44.03,27.26,0c.88-.03,9.45,3.46,9.66,4.1.93,2.72.12,10.82-1.84,13.42.39,2.35,3.24,1.76,4.61.6.96-.81.68-1.88,1.92-2.56,1.99-1.08,7.1-2.6,8.49-.23.86,1.48,3.84,12.19,4.16,14.24.15.99.5,2.22.16,3.19-.41,1.19-7.39,2.8-8.8,2.14ZM32.01,17.18l1.51.28c2.39-3.66,2.94-8.45,2.26-12.72-.26-.38-7.77-3.24-8.51-3.24-.53,0-7.44,2.69-7.76,3-1.32,1.27-.56,11.66,1.78,12.67.53.23,1.51.23,1.24-.73-1.09-2.33-3.16-8.39-1.55-10.48.27-.35,5.83-2.54,6.38-2.56,1.5-.05,4.79,2.25,6.59,2.43.05,1.83.25,3.77.01,5.59-.17,1.36-2.15,5.54-1.94,5.77ZM22.1,6.83c-.34,2.58-.05,9.01,3.13,9.39,7.61.91,7.69-3.01,7.04-9.49-3.88-2.24-6.3-1.95-10.18.1ZM13.03,16.68l-6.96-1.47c-.8,4.67-3.96,10.76-4.43,15.27-.33,3.19,3.52,2.15,5.74,3.51l.9-.4,4.75-16.91ZM47.37,15.27c-.8.09-5.66,1.63-5.75,2.13l5.16,16.62c1.45-.65,6.67-1.08,6.7-2.65l-5.3-16.15c-.28-.09-.54.02-.81.04ZM41,19.17c-1.54.03-2.58,1.59-4.21,1.49-1.91-.12-6.18-3.19-9.6-3.44-5.12-.37-12.02,7.23-8.18,9.17,3.14,1.58,4.87-5.98,9.52-4.52,1.02.32,9.58,8.8,10.75,10.19.54.64.71,2.02.99,2.03l4.15-1.8-3.42-13.12ZM20.02,18.68l-6.05.8-3.44,12.84.99.52c1.03-1.17,2.82-2.92,4.5-2.02.94.5.74,1.74,1.13,2.12.31.31,1.21.21,1.62.61,1.52,1.48,2.77,3.63,4.77,4.71,2.14,2.83-4.17,6.41.24,6.21,2.41-.11,1.52-2.96,1.23-4.44.84-.88,3.6,4.37,5.92,2.91,3.12-1.96-6.36-7.31-4.92-8.87,2.35.13,7.56,9.1,9.77,5.99,1.98-2.79-6.22-7.51-6.27-8.73-.01-.32.72-.9,1.5-.51,1.36.7,4.03,4.79,5.35,5.15s2.95-.67,2.58-2.07c-.19-.73-10.06-10.48-10.79-10.69-3.82-1.14-5.81,7.66-10.39,3.89-4.01-3.3,2.66-8.15,2.25-8.44ZM12.03,35.56c2.12.24,2.86-1.34,3.98-2.73-1.36-2.37-4.78,1.95-3.98,2.73ZM13.53,38.54c5.83.04,5.23-8.17.73-2.01-.5.68-.95,1-.73,2.01ZM19.51,36.3l-4.75,4.72,1.27,1.26,4.75-4.72-1.27-1.26ZM18.52,43.01c1.44.84,4.5-2.39,4.48-3.23-.06-2.31-5.34,1.48-4.48,3.23Z"/>
      <ellipse cx="8.59" cy="19.55" rx="2.1" ry="2.09"/>
      <ellipse cx="46.01" cy="19.48" rx="2.12" ry="2.1"/>
      <path d="M31.01,8.74c.71.65-4.26,4.77-4.74,5.45-.22,0-3.17-2.72-2-3.46l1.93,1.45c1.11-.19,2.85-4.04,4.81-3.44Z"/>
    </g>
  </g>
</svg>