<?xml version="1.0" encoding="UTF-8"?>
<svg id="Layer_2" data-name="Layer 2" xmlns="http://www.w3.org/2000/svg" viewBox="0 0 45.74 45.23">
  <g id="Layer_1-2" data-name="Layer 1">
    <g>
      <path d="M7.24,30.3c.39.13.55,1.36,1.1,1.5,1.29.32,3.57-.15,5.27.11,2.3.35,7.28,2.72,9.12,2.66,3.34-.12,9.78-7.91,12.98-1.79,3.42-2.32,10.3-5.82,10.02,1.01l-21.05,11.41c-4.07.48-12-3.88-16.04-3.84-.71,0-1.32.83-2.37.9-2.06.13-4.21-.15-6.27-.03v-11.92c1.84.36,5.75-.5,7.24,0ZM43.95,33.25c.28-1.69-.56-2.15-2.11-1.87-3.75.66-10.47,6.18-14.5,7.47-.95.31-2.87.73-1.85-.84l8.48-4.24c-1.5-4.21-7.97,2.28-10.77,2.47-3.82.26-10.65-4.31-15.22-2.96l-.03,6.17,16.66,4.17,19.32-10.37ZM6,31.79H1.5v8.94h4.5v-8.94Z"/>
      <path d="M37.37,7.55c1.58,7.85-5.01,21.54-13.26,23.15-9.39,1.83-17.04-15.53-15.51-23.15L22.77,0l14.59,7.55ZM35.89,8.52L23.16,1.59l-13.09,6.92c-.96,6.42,6.11,22.45,13.92,20.58s12.58-13.5,11.9-20.57Z"/>
      <path d="M33.39,9.51c1.52,5.41-5.1,17.88-11.11,17.3-5.63-.54-10.54-12.17-9.71-17.3l10.58-5.44,10.24,5.45ZM31.9,10.5l-8.75-4.43-9.13,4.41c-.3,3.92,4.44,15.53,9.1,14.78s9.4-10.36,8.78-14.76Z"/>
      <path d="M26.33,10.48c1.08-.28,3.74,2.37,3.61,3.11l-7.71,7.76-4.71-5.14c.05-.3,2.44-2.67,2.78-2.73.79-.14,1.49,1,2.18.7.95-.42,2.78-3.42,3.84-3.7ZM26.73,12.42c-1.93,1.33-3.62,5.47-6.01,3.11l-1.23,1.11c3.39,5.05,5.45-.72,8.48-2.98l-1.24-1.23Z"/>
    </g>
  </g>
</svg>